Atma-Light.ufo
<glyph name="eight" format="1">
  <advance width="639"/>
  <unicode hex="0038"/>
  <outline>
    <contour>
      <point x="355" y="723" type="curve" smooth="yes"/>
      <point x="164" y="723"/>
      <point x="38" y="630"/>
      <point x="38" y="507" type="curve" smooth="yes"/>
      <point x="38" y="418"/>
      <point x="101" y="330"/>
      <point x="270" y="330" type="curve" smooth="yes"/>
      <point x="515" y="330"/>
      <point x="589" y="483"/>
      <point x="589" y="569" type="curve" smooth="yes"/>
      <point x="589" y="669"/>
      <point x="502" y="723"/>
    </contour>
    <contour>
      <point x="322" y="619" type="curve" smooth="yes"/>
      <point x="357" y="619"/>
      <point x="381" y="587"/>
      <point x="381" y="528" type="curve" smooth="yes"/>
      <point x="381" y="477"/>
      <point x="365" y="414"/>
      <point x="310" y="414" type="curve" smooth="yes"/>
      <point x="262" y="414"/>
      <point x="243" y="465"/>
      <point x="243" y="513" type="curve" smooth="yes"/>
      <point x="243" y="571"/>
      <point x="273" y="619"/>
    </contour>
    <contour>
      <point x="355" y="386" type="curve" smooth="yes"/>
      <point x="164" y="386"/>
      <point x="38" y="294"/>
      <point x="38" y="170" type="curve" smooth="yes"/>
      <point x="38" y="81"/>
      <point x="101" y="-6"/>
      <point x="270" y="-6" type="curve" smooth="yes"/>
      <point x="515" y="-6"/>
      <point x="589" y="146"/>
      <point x="589" y="233" type="curve" smooth="yes"/>
      <point x="589" y="333"/>
      <point x="502" y="386"/>
    </contour>
    <contour>
      <point x="322" y="303" type="curve" smooth="yes"/>
      <point x="357" y="303"/>
      <point x="381" y="278"/>
      <point x="381" y="211" type="curve" smooth="yes"/>
      <point x="381" y="164"/>
      <point x="365" y="97"/>
      <point x="310" y="97" type="curve" smooth="yes"/>
      <point x="262" y="97"/>
      <point x="243" y="154"/>
      <point x="243" y="196" type="curve" smooth="yes"/>
      <point x="243" y="260"/>
      <point x="273" y="303"/>
    </contour>
  </outline>
</glyph>
<glyph name="B" format="1">
  <advance width="683"/>
  <unicode hex="0042"/>
  <outline>
    <contour>
      <point x="71" y="684" type="curve"/>
      <point x="69" y="635"/>
      <point x="69" y="586"/>
      <point x="69" y="538" type="curve" smooth="yes"/>
      <point x="69" y="371"/>
      <point x="76" y="206"/>
      <point x="95" y="40" type="curve"/>
      <point x="151" y="30"/>
      <point x="213" y="2"/>
      <point x="265" y="2" type="curve"/>
      <point x="262" y="74"/>
      <point x="260" y="147"/>
      <point x="260" y="221" type="curve" smooth="yes"/>
      <point x="260" y="373"/>
      <point x="267" y="526"/>
      <point x="282" y="675" type="curve"/>
      <point x="249" y="684"/>
      <point x="223" y="690"/>
      <point x="181" y="690" type="curve" smooth="yes"/>
      <point x="151" y="690"/>
      <point x="102" y="689"/>
    </contour>
    <contour>
      <point x="119" y="574" type="curve"/>
      <point x="159" y="601"/>
      <point x="276" y="629"/>
      <point x="311" y="629" type="curve" smooth="yes"/>
      <point x="379" y="629"/>
      <point x="408" y="600"/>
      <point x="408" y="549" type="curve" smooth="yes"/>
      <point x="408" y="485"/>
      <point x="360" y="439"/>
      <point x="256" y="424" type="curve"/>
      <point x="351" y="361" type="line"/>
      <point x="530" y="399"/>
      <point x="603" y="479"/>
      <point x="603" y="577" type="curve" smooth="yes"/>
      <point x="603" y="679"/>
      <point x="520" y="742"/>
      <point x="343" y="742" type="curve" smooth="yes"/>
      <point x="247" y="742"/>
      <point x="150" y="724"/>
      <point x="71" y="684" type="curve"/>
      <point x="76" y="647"/>
      <point x="95" y="612"/>
    </contour>
    <contour>
      <point x="324" y="-20" type="curve" smooth="yes"/>
      <point x="505" y="-20"/>
      <point x="653" y="103"/>
      <point x="653" y="267" type="curve" smooth="yes"/>
      <point x="653" y="352"/>
      <point x="581" y="433"/>
      <point x="424" y="433" type="curve" smooth="yes"/>
      <point x="356" y="433"/>
      <point x="303" y="425"/>
      <point x="234" y="412" type="curve"/>
      <point x="235" y="285" type="line"/>
      <point x="278" y="296"/>
      <point x="313" y="311"/>
      <point x="349" y="311" type="curve" smooth="yes"/>
      <point x="426" y="311"/>
      <point x="451" y="272"/>
      <point x="451" y="227" type="curve" smooth="yes"/>
      <point x="451" y="167"/>
      <point x="404" y="100"/>
      <point x="341" y="100" type="curve" smooth="yes"/>
      <point x="296" y="100"/>
      <point x="258" y="114"/>
      <point x="212" y="145" type="curve"/>
      <point x="95" y="40" type="line"/>
      <point x="164" y="-2"/>
      <point x="246" y="-20"/>
    </contour>
  </outline>
</glyph>
<glyph name="C" format="1">
  <advance width="638"/>
  <unicode hex="0043"/>
  <outline>
    <contour>
      <point x="514" y="219" type="curve"/>
      <point x="474" y="129"/>
      <point x="428" y="85"/>
      <point x="363" y="85" type="curve" smooth="yes"/>
      <point x="272" y="85"/>
      <point x="240" y="202"/>
      <point x="240" y="281" type="curve" smooth="yes"/>
      <point x="240" y="448"/>
      <point x="288" y="573"/>
      <point x="355" y="573" type="curve" smooth="yes"/>
      <point x="396" y="573"/>
      <point x="436" y="543"/>
      <point x="436" y="438" type="curve"/>
      <point x="530" y="438"/>
      <point x="566" y="450"/>
      <point x="623" y="475" type="curve"/>
      <point x="611" y="614"/>
      <point x="524" y="693"/>
      <point x="392" y="693" type="curve" smooth="yes"/>
      <point x="176" y="693"/>
      <point x="35" y="490"/>
      <point x="35" y="261" type="curve" smooth="yes"/>
      <point x="35" y="51"/>
      <point x="155" y="-35"/>
      <point x="314" y="-35" type="curve" smooth="yes"/>
      <point x="438" y="-35"/>
      <point x="542" y="16"/>
      <point x="614" y="135" type="curve"/>
      <point x="594" y="174"/>
      <point x="560" y="200"/>
    </contour>
  </outline>
</glyph>
<glyph name="D" format="1">
  <advance width="691"/>
  <unicode hex="0044"/>
  <outline>
    <contour>
      <point x="79" y="654" type="curve"/>
      <point x="77" y="605"/>
      <point x="77" y="556"/>
      <point x="77" y="508" type="curve" smooth="yes"/>
      <point x="77" y="343"/>
      <point x="90" y="179"/>
      <point x="109" y="14" type="curve"/>
      <point x="159" y="5"/>
      <point x="225" y="1"/>
      <point x="276" y="1" type="curve"/>
      <point x="273" y="64"/>
      <point x="268" y="127"/>
      <point x="268" y="191" type="curve" smooth="yes"/>
      <point x="268" y="343"/>
      <point x="275" y="496"/>
      <point x="290" y="645" type="curve"/>
      <point x="257" y="654"/>
      <point x="231" y="660"/>
      <point x="189" y="660" type="curve" smooth="yes"/>
      <point x="159" y="660"/>
      <point x="110" y="659"/>
    </contour>
    <contour>
      <point x="131" y="522" type="curve"/>
      <point x="197" y="565"/>
      <point x="268" y="599"/>
      <point x="331" y="599" type="curve" smooth="yes"/>
      <point x="411" y="599"/>
      <point x="465" y="537"/>
      <point x="465" y="453" type="curve" smooth="yes"/>
      <point x="465" y="277"/>
      <point x="370" y="150"/>
      <point x="184" y="106" type="curve"/>
      <point x="276" y="1" type="line"/>
      <point x="495" y="66"/>
      <point x="660" y="265"/>
      <point x="660" y="441" type="curve" smooth="yes"/>
      <point x="660" y="609"/>
      <point x="560" y="712"/>
      <point x="348" y="712" type="curve" smooth="yes"/>
      <point x="251" y="712"/>
      <point x="170" y="696"/>
      <point x="79" y="654" type="curve"/>
      <point x="85" y="610"/>
      <point x="103" y="566"/>
    </contour>
  </outline>
</glyph>
<glyph name="E" format="1">
  <advance width="627"/>
  <unicode hex="0045"/>
  <outline>
    <contour>
      <point x="137" y="-43" type="curve"/>
      <point x="294" y="-43"/>
      <point x="565" y="-21"/>
      <point x="601" y="-10" type="curve"/>
      <point x="601" y="38"/>
      <point x="593" y="115"/>
      <point x="582" y="145" type="curve"/>
      <point x="511" y="130"/>
      <point x="339" y="113"/>
      <point x="298" y="113" type="curve"/>
      <point x="291" y="190"/>
      <point x="288" y="278"/>
      <point x="288" y="362" type="curve" smooth="yes"/>
      <point x="288" y="489"/>
      <point x="295" y="608"/>
      <point x="306" y="674" type="curve"/>
      <point x="212" y="674"/>
      <point x="152" y="667"/>
      <point x="80" y="652" type="curve"/>
      <point x="80" y="452"/>
      <point x="110" y="125"/>
    </contour>
    <contour>
      <point x="517" y="455" type="curve"/>
      <point x="419" y="455"/>
      <point x="329" y="441"/>
      <point x="241" y="412" type="curve"/>
      <point x="250" y="278" type="line"/>
      <point x="343" y="292"/>
      <point x="440" y="296"/>
      <point x="533" y="296" type="curve"/>
      <point x="533" y="359"/>
      <point x="529" y="406"/>
    </contour>
    <contour>
      <point x="576" y="735" type="curve"/>
      <point x="394" y="735"/>
      <point x="233" y="713"/>
      <point x="62" y="680" type="curve"/>
      <point x="62" y="635"/>
      <point x="73" y="587"/>
      <point x="91" y="540" type="curve"/>
      <point x="245" y="562"/>
      <point x="403" y="570"/>
      <point x="557" y="570" type="curve"/>
      <point x="566" y="613"/>
      <point x="576" y="673"/>
    </contour>
  </outline>
</glyph>
<glyph name="F" format="1">
  <advance width="586"/>
  <unicode hex="0046"/>
  <outline>
    <contour>
      <point x="501" y="430" type="curve"/>
      <point x="403" y="430"/>
      <point x="313" y="416"/>
      <point x="225" y="387" type="curve"/>
      <point x="234" y="251" type="line"/>
      <point x="327" y="265"/>
      <point x="424" y="269"/>
      <point x="517" y="269" type="curve"/>
      <point x="517" y="333"/>
      <point x="514" y="380"/>
    </contour>
    <contour>
      <point x="560" y="774" type="curve"/>
      <point x="373" y="746"/>
      <point x="238" y="725"/>
      <point x="55" y="715" type="curve"/>
      <point x="60" y="669"/>
      <point x="66" y="625"/>
      <point x="82" y="571" type="curve"/>
      <point x="262" y="571"/>
      <point x="404" y="588"/>
      <point x="559" y="603" type="curve"/>
      <point x="564" y="625"/>
      <point x="570" y="656"/>
      <point x="570" y="688" type="curve" smooth="yes"/>
      <point x="570" y="722"/>
      <point x="567" y="750"/>
    </contour>
    <contour>
      <point x="295" y="-65" type="curve"/>
      <point x="303" y="56"/>
      <point x="308" y="197"/>
      <point x="308" y="333" type="curve" smooth="yes"/>
      <point x="308" y="484"/>
      <point x="302" y="616"/>
      <point x="290" y="713" type="curve"/>
      <point x="196" y="713"/>
      <point x="136" y="706"/>
      <point x="64" y="691" type="curve"/>
      <point x="101" y="480"/>
      <point x="113" y="108"/>
      <point x="113" y="-86" type="curve"/>
      <point x="194" y="-86"/>
      <point x="245" y="-78"/>
    </contour>
  </outline>
</glyph>
<glyph name="G" format="1">
  <advance width="661"/>
  <unicode hex="0047"/>
  <outline>
    <contour>
      <point x="469" y="256" type="line"/>
      <point x="449" y="163"/>
      <point x="410" y="105"/>
      <point x="347" y="105" type="curve" smooth="yes"/>
      <point x="273" y="105"/>
      <point x="240" y="175"/>
      <point x="240" y="323" type="curve" smooth="yes"/>
      <point x="240" y="497"/>
      <point x="282" y="604"/>
      <point x="340" y="604" type="curve" smooth="yes"/>
      <point x="378" y="604"/>
      <point x="401" y="567"/>
      <point x="416" y="478" type="curve"/>
      <point x="487" y="478"/>
      <point x="549" y="487"/>
      <point x="608" y="506" type="curve"/>
      <point x="596" y="645"/>
      <point x="509" y="724"/>
      <point x="377" y="724" type="curve" smooth="yes"/>
      <point x="170" y="724"/>
      <point x="35" y="506"/>
      <point x="35" y="261" type="curve" smooth="yes"/>
      <point x="35" y="84"/>
      <point x="132" y="-15"/>
      <point x="272" y="-15" type="curve" smooth="yes"/>
      <point x="398" y="-15"/>
      <point x="494" y="49"/>
      <point x="559" y="217" type="curve"/>
    </contour>
    <contour>
      <point x="427" y="330" type="curve"/>
      <point x="435" y="203"/>
      <point x="465" y="81"/>
      <point x="519" y="-34" type="curve"/>
      <point x="573" y="-31"/>
      <point x="620" y="-25"/>
      <point x="662" y="-14" type="curve"/>
      <point x="632" y="103"/>
      <point x="618" y="225"/>
      <point x="620" y="352" type="curve"/>
      <point x="542" y="352"/>
      <point x="482" y="346"/>
    </contour>
  </outline>
</glyph>
<glyph name="I" format="1">
  <advance width="316"/>
  <unicode hex="0049"/>
  <outline>
    <contour>
      <point x="83" y="-32" type="curve"/>
      <point x="140" y="-32"/>
      <point x="221" y="-22"/>
      <point x="254" y="-12" type="curve"/>
      <point x="268" y="136"/>
      <point x="276" y="355"/>
      <point x="276" y="526" type="curve" smooth="yes"/>
      <point x="276" y="583"/>
      <point x="275" y="635"/>
      <point x="273" y="677" type="curve"/>
      <point x="240" y="686"/>
      <point x="210" y="689"/>
      <point x="176" y="689" type="curve" smooth="yes"/>
      <point x="121" y="689"/>
      <point x="74" y="673"/>
      <point x="47" y="655" type="curve"/>
      <point x="76" y="436"/>
      <point x="83" y="183"/>
    </contour>
  </outline>
</glyph>
<glyph name="J" format="1">
  <advance width="544"/>
  <unicode hex="004A"/>
  <outline>
    <contour>
      <point x="231" y="-88" type="curve" smooth="yes"/>
      <point x="345" y="-88"/>
      <point x="434" y="-15"/>
      <point x="465" y="163" type="curve" smooth="yes"/>
      <point x="484" y="274"/>
      <point x="494" y="376"/>
      <point x="494" y="563" type="curve" smooth="yes"/>
      <point x="494" y="620"/>
      <point x="493" y="672"/>
      <point x="491" y="714" type="curve"/>
      <point x="458" y="723"/>
      <point x="428" y="726"/>
      <point x="394" y="726" type="curve" smooth="yes"/>
      <point x="339" y="726"/>
      <point x="292" y="710"/>
      <point x="265" y="692" type="curve"/>
      <point x="288" y="514"/>
      <point x="295" y="316"/>
      <point x="295" y="184" type="curve" smooth="yes"/>
      <point x="295" y="64"/>
      <point x="259" y="36"/>
      <point x="223" y="36" type="curve" smooth="yes"/>
      <point x="188" y="36"/>
      <point x="170" y="78"/>
      <point x="152" y="190" type="curve"/>
      <point x="97" y="183"/>
      <point x="46" y="164"/>
      <point x="3" y="127" type="curve"/>
      <point x="10" y="37"/>
      <point x="97" y="-88"/>
    </contour>
  </outline>
</glyph>
<glyph name="K" format="1">
  <advance width="653"/>
  <unicode hex="004B"/>
  <outline>
    <contour>
      <point x="96" y="-76" type="curve"/>
      <point x="153" y="-76"/>
      <point x="234" y="-66"/>
      <point x="267" y="-56" type="curve"/>
      <point x="254" y="40"/>
      <point x="246" y="152"/>
      <point x="246" y="267" type="curve" smooth="yes"/>
      <point x="246" y="409"/>
      <point x="258" y="557"/>
      <point x="284" y="692" type="curve"/>
      <point x="251" y="701"/>
      <point x="221" y="704"/>
      <point x="187" y="704" type="curve" smooth="yes"/>
      <point x="132" y="704"/>
      <point x="85" y="688"/>
      <point x="58" y="670" type="curve"/>
      <point x="53" y="595"/>
      <point x="50" y="518"/>
      <point x="50" y="442" type="curve" smooth="yes"/>
      <point x="50" y="262"/>
      <point x="65" y="84"/>
    </contour>
    <contour>
      <point x="471" y="710" type="curve"/>
      <point x="367" y="512"/>
      <point x="282" y="399"/>
      <point x="149" y="284" type="curve"/>
      <point x="224" y="183" type="line"/>
      <point x="393" y="289"/>
      <point x="531" y="397"/>
      <point x="642" y="596" type="curve"/>
      <point x="594" y="639"/>
      <point x="544" y="687"/>
    </contour>
    <contour>
      <point x="310" y="385" type="curve"/>
      <point x="206" y="261" type="line"/>
      <point x="331" y="143"/>
      <point x="432" y="19"/>
      <point x="516" y="-120" type="curve"/>
      <point x="587" y="-90"/>
      <point x="633" y="-54"/>
      <point x="675" y="3" type="curve"/>
      <point x="572" y="147"/>
      <point x="451" y="277"/>
    </contour>
  </outline>
</glyph>
<glyph name="L" format="1">
  <advance width="574"/>
  <unicode hex="004C"/>
  <outline>
    <contour>
      <point x="128" y="-106" type="curve"/>
      <point x="288" y="-87"/>
      <point x="410" y="-73"/>
      <point x="558" y="-73" type="curve"/>
      <point x="558" y="-27"/>
      <point x="545" y="46"/>
      <point x="535" y="76" type="curve"/>
      <point x="471" y="76"/>
      <point x="357" y="62"/>
      <point x="290" y="42" type="curve"/>
      <point x="275" y="133"/>
      <point x="275" y="255"/>
      <point x="275" y="362" type="curve" smooth="yes"/>
      <point x="275" y="489"/>
      <point x="282" y="607"/>
      <point x="293" y="673" type="curve"/>
      <point x="275" y="675"/>
      <point x="258" y="676"/>
      <point x="241" y="676" type="curve" smooth="yes"/>
      <point x="177" y="676"/>
      <point x="119" y="666"/>
      <point x="67" y="652" type="curve"/>
      <point x="67" y="434"/>
      <point x="99" y="77"/>
    </contour>
  </outline>
</glyph>
<glyph name="M" format="1">
  <advance width="871"/>
  <unicode hex="004D"/>
  <outline>
    <contour>
      <point x="428" y="232"/>
      <point x="492" y="238"/>
      <point x="514" y="249" type="curve"/>
      <point x="591" y="342"/>
      <point x="697" y="528"/>
      <point x="797" y="710" type="curve"/>
      <point x="747" y="735"/>
      <point x="693" y="744"/>
      <point x="627" y="756" type="curve"/>
      <point x="571" y="599"/>
      <point x="517" y="493"/>
      <point x="455" y="402" type="curve"/>
      <point x="465" y="402" type="line"/>
      <point x="434" y="493"/>
      <point x="343" y="659"/>
      <point x="267" y="767" type="curve"/>
      <point x="191" y="758"/>
      <point x="116" y="717"/>
      <point x="60" y="679" type="curve"/>
      <point x="223" y="566"/>
      <point x="301" y="405"/>
      <point x="385" y="232" type="curve"/>
    </contour>
    <contour>
      <point x="167" y="16"/>
      <point x="255" y="25"/>
      <point x="291" y="36" type="curve"/>
      <point x="262" y="137"/>
      <point x="241" y="298"/>
      <point x="241" y="455" type="curve" smooth="yes"/>
      <point x="241" y="501"/>
      <point x="244" y="591"/>
      <point x="260" y="684" type="curve"/>
      <point x="60" y="679" type="line"/>
      <point x="60" y="483"/>
      <point x="81" y="185"/>
      <point x="105" y="16" type="curve"/>
    </contour>
    <contour>
      <point x="708" y="-61"/>
      <point x="755" y="-46"/>
      <point x="811" y="-24" type="curve"/>
      <point x="811" y="169"/>
      <point x="808" y="484"/>
      <point x="797" y="710" type="curve"/>
      <point x="640" y="710" type="line"/>
      <point x="640" y="523"/>
      <point x="623" y="137"/>
      <point x="613" y="-61" type="curve"/>
    </contour>
  </outline>
</glyph>
<glyph name="O" format="1">
  <advance width="569"/>
  <unicode hex="004F"/>
  <outline>
    <contour>
      <point x="308" y="733" type="curve" smooth="yes"/>
      <point x="149" y="733"/>
      <point x="40" y="565"/>
      <point x="40" y="343" type="curve" smooth="yes"/>
      <point x="40" y="132"/>
      <point x="131" y="-20"/>
      <point x="265" y="-20" type="curve" smooth="yes"/>
      <point x="460" y="-20"/>
      <point x="529" y="217"/>
      <point x="529" y="386" type="curve" smooth="yes"/>
      <point x="529" y="611"/>
      <point x="454" y="733"/>
    </contour>
    <contour>
      <point x="302" y="688" type="curve" smooth="yes"/>
      <point x="413" y="688"/>
      <point x="474" y="601"/>
      <point x="474" y="377" type="curve" smooth="yes"/>
      <point x="474" y="206"/>
      <point x="411" y="24"/>
      <point x="265" y="24" type="curve" smooth="yes"/>
      <point x="143" y="24"/>
      <point x="95" y="203"/>
      <point x="95" y="351" type="curve" smooth="yes"/>
      <point x="95" y="553"/>
      <point x="185" y="688"/>
    </contour>
  </outline>
</glyph>
<glyph name="P" format="1">
  <advance width="627"/>
  <unicode hex="0050"/>
  <outline>
    <contour>
      <point x="72" y="684" type="curve"/>
      <point x="70" y="635"/>
      <point x="70" y="586"/>
      <point x="70" y="538" type="curve" smooth="yes"/>
      <point x="70" y="340"/>
      <point x="80" y="142"/>
      <point x="103" y="-55" type="curve"/>
      <point x="153" y="-64"/>
      <point x="219" y="-68"/>
      <point x="270" y="-68" type="curve"/>
      <point x="266" y="27"/>
      <point x="261" y="123"/>
      <point x="261" y="221" type="curve" smooth="yes"/>
      <point x="261" y="376"/>
      <point x="268" y="529"/>
      <point x="283" y="675" type="curve"/>
      <point x="250" y="684"/>
      <point x="224" y="690"/>
      <point x="182" y="690" type="curve" smooth="yes"/>
      <point x="152" y="690"/>
      <point x="103" y="689"/>
    </contour>
    <contour>
      <point x="121" y="561" type="curve"/>
      <point x="163" y="588"/>
      <point x="232" y="629"/>
      <point x="300" y="629" type="curve" smooth="yes"/>
      <point x="376" y="629"/>
      <point x="409" y="564"/>
      <point x="409" y="499" type="curve" smooth="yes"/>
      <point x="409" y="408"/>
      <point x="336" y="347"/>
      <point x="231" y="332" type="curve"/>
      <point x="250" y="216" type="line"/>
      <point x="424" y="253"/>
      <point x="604" y="388"/>
      <point x="604" y="547" type="curve" smooth="yes"/>
      <point x="604" y="646"/>
      <point x="520" y="742"/>
      <point x="344" y="742" type="curve" smooth="yes"/>
      <point x="248" y="742"/>
      <point x="138" y="729"/>
      <point x="72" y="684" type="curve"/>
      <point x="78" y="643"/>
      <point x="95" y="602"/>
    </contour>
  </outline>
</glyph>
<glyph name="Q" format="1">
  <advance width="689"/>
  <unicode hex="0051"/>
  <outline>
    <contour>
      <point x="383" y="673" type="curve" smooth="yes"/>
      <point x="187" y="673"/>
      <point x="30" y="512"/>
      <point x="30" y="273" type="curve" smooth="yes"/>
      <point x="30" y="114"/>
      <point x="101" y="-40"/>
      <point x="294" y="-40" type="curve" smooth="yes"/>
      <point x="575" y="-40"/>
      <point x="659" y="230"/>
      <point x="659" y="382" type="curve" smooth="yes"/>
      <point x="659" y="584"/>
      <point x="556" y="673"/>
    </contour>
    <contour>
      <point x="355" y="543" type="curve" smooth="yes"/>
      <point x="412" y="543"/>
      <point x="450" y="497"/>
      <point x="450" y="327" type="curve" smooth="yes"/>
      <point x="450" y="230"/>
      <point x="426" y="90"/>
      <point x="337" y="90" type="curve" smooth="yes"/>
      <point x="264" y="90"/>
      <point x="235" y="209"/>
      <point x="235" y="301" type="curve" smooth="yes"/>
      <point x="235" y="444"/>
      <point x="279" y="543"/>
    </contour>
    <contour>
      <point x="328" y="153" type="curve"/>
      <point x="420" y="73"/>
      <point x="499" y="-22"/>
      <point x="567" y="-130" type="curve"/>
      <point x="620" y="-96"/>
      <point x="663" y="-58"/>
      <point x="677" y="-11" type="curve"/>
      <point x="608" y="75"/>
      <point x="500" y="161"/>
      <point x="391" y="217" type="curve"/>
      <point x="359" y="200"/>
      <point x="340" y="178"/>
    </contour>
  </outline>
</glyph>
<glyph name="R" format="1">
  <advance width="652"/>
  <unicode hex="0052"/>
  <outline>
    <contour>
      <point x="72" y="684" type="curve"/>
      <point x="93" y="495"/>
      <point x="107" y="309"/>
      <point x="107" y="119" type="curve" smooth="yes"/>
      <point x="107" y="82"/>
      <point x="106" y="44"/>
      <point x="105" y="6" type="curve"/>
      <point x="155" y="-3"/>
      <point x="221" y="-7"/>
      <point x="272" y="-7" type="curve"/>
      <point x="285" y="128"/>
      <point x="290" y="263"/>
      <point x="290" y="394" type="curve" smooth="yes"/>
      <point x="290" y="491"/>
      <point x="287" y="586"/>
      <point x="283" y="675" type="curve"/>
      <point x="250" y="684"/>
      <point x="224" y="690"/>
      <point x="182" y="690" type="curve" smooth="yes"/>
      <point x="152" y="690"/>
      <point x="103" y="689"/>
    </contour>
    <contour>
      <point x="128" y="551" type="curve"/>
      <point x="186" y="607"/>
      <point x="239" y="657"/>
      <point x="302" y="657" type="curve" smooth="yes"/>
      <point x="370" y="657"/>
      <point x="409" y="604"/>
      <point x="409" y="539" type="curve" smooth="yes"/>
      <point x="409" y="436"/>
      <point x="341" y="390"/>
      <point x="245" y="376" type="curve"/>
      <point x="264" y="260" type="line"/>
      <point x="430" y="295"/>
      <point x="604" y="409"/>
      <point x="604" y="547" type="curve" smooth="yes"/>
      <point x="604" y="660"/>
      <point x="523" y="770"/>
      <point x="327" y="770" type="curve" smooth="yes"/>
      <point x="249" y="770"/>
      <point x="143" y="743"/>
      <point x="72" y="684" type="curve"/>
      <point x="78" y="640"/>
      <point x="98" y="591"/>
    </contour>
    <contour>
      <point x="302" y="315" type="line"/>
      <point x="387" y="200"/>
      <point x="455" y="76"/>
      <point x="504" y="-55" type="curve"/>
      <point x="582" y="-32"/>
      <point x="642" y="1"/>
      <point x="684" y="44" type="curve"/>
      <point x="623" y="172"/>
      <point x="538" y="289"/>
      <point x="431" y="395" type="curve"/>
    </contour>
  </outline>
</glyph>
<glyph name="S" format="1">
  <advance width="592"/>
  <unicode hex="0053"/>
  <outline>
    <contour>
      <point x="355" y="152" type="curve" smooth="yes"/>
      <point x="355" y="104"/>
      <point x="324" y="68"/>
      <point x="266" y="68" type="curve" smooth="yes"/>
      <point x="180" y="68"/>
      <point x="148" y="169"/>
      <point x="148" y="247" type="curve"/>
      <point x="111" y="247"/>
      <point x="41" y="231"/>
      <point x="-5" y="208" type="curve"/>
      <point x="-5" y="100"/>
      <point x="97" y="-40"/>
      <point x="289" y="-40" type="curve" smooth="yes"/>
      <point x="425" y="-40"/>
      <point x="557" y="54"/>
      <point x="557" y="198" type="curve" smooth="yes"/>
      <point x="557" y="431"/>
      <point x="268" y="457"/>
      <point x="268" y="590" type="curve" smooth="yes"/>
      <point x="268" y="614"/>
      <point x="288" y="643"/>
      <point x="327" y="643" type="curve" smooth="yes"/>
      <point x="387" y="643"/>
      <point x="421" y="606"/>
      <point x="433" y="527" type="curve"/>
      <point x="503" y="532"/>
      <point x="553" y="542"/>
      <point x="596" y="571" type="curve"/>
      <point x="573" y="683"/>
      <point x="487" y="767"/>
      <point x="333" y="767" type="curve" smooth="yes"/>
      <point x="165" y="767"/>
      <point x="62" y="667"/>
      <point x="62" y="541" type="curve" smooth="yes"/>
      <point x="62" y="312"/>
      <point x="355" y="280"/>
    </contour>
  </outline>
</glyph>
<glyph name="T" format="1">
  <advance width="589"/>
  <unicode hex="0054"/>
  <outline>
    <contour>
      <point x="563" y="794" type="curve"/>
      <point x="338" y="794"/>
      <point x="180" y="777"/>
      <point x="-7" y="736" type="curve"/>
      <point x="-7" y="690"/>
      <point x="2" y="640"/>
      <point x="20" y="592" type="curve"/>
      <point x="216" y="611"/>
      <point x="365" y="623"/>
      <point x="562" y="623" type="curve"/>
      <point x="567" y="645"/>
      <point x="573" y="676"/>
      <point x="573" y="708" type="curve" smooth="yes"/>
      <point x="573" y="742"/>
      <point x="570" y="770"/>
    </contour>
    <contour>
      <point x="394" y="44" type="curve"/>
      <point x="403" y="138"/>
      <point x="411" y="247"/>
      <point x="411" y="353" type="curve" smooth="yes"/>
      <point x="411" y="504"/>
      <point x="405" y="636"/>
      <point x="393" y="733" type="curve"/>
      <point x="299" y="733"/>
      <point x="239" y="726"/>
      <point x="167" y="711" type="curve"/>
      <point x="200" y="524"/>
      <point x="212" y="195"/>
      <point x="212" y="23" type="curve"/>
      <point x="293" y="23"/>
      <point x="344" y="31"/>
    </contour>
  </outline>
</glyph>
<glyph name="U" format="1">
  <advance width="609"/>
  <unicode hex="0055"/>
  <outline>
    <contour>
      <point x="66" y="587"/>
      <point x="30" y="426"/>
      <point x="30" y="265" type="curve" smooth="yes"/>
      <point x="30" y="93"/>
      <point x="81" y="-80"/>
      <point x="266" y="-80" type="curve" smooth="yes"/>
      <point x="526" y="-80"/>
      <point x="579" y="187"/>
      <point x="579" y="412" type="curve" smooth="yes"/>
      <point x="579" y="524"/>
      <point x="557" y="632"/>
      <point x="540" y="712" type="curve"/>
      <point x="483" y="712"/>
      <point x="388" y="699"/>
      <point x="329" y="674" type="curve"/>
      <point x="338" y="635"/>
      <point x="370" y="497"/>
      <point x="370" y="350" type="curve" smooth="yes"/>
      <point x="370" y="204"/>
      <point x="355" y="50"/>
      <point x="297" y="50" type="curve" smooth="yes"/>
      <point x="253" y="50"/>
      <point x="235" y="165"/>
      <point x="235" y="305" type="curve" smooth="yes"/>
      <point x="235" y="407"/>
      <point x="246" y="518"/>
      <point x="263" y="619" type="curve"/>
      <point x="248" y="628"/>
      <point x="219" y="634"/>
      <point x="175" y="634" type="curve" smooth="yes"/>
      <point x="140" y="634"/>
      <point x="105" y="627"/>
      <point x="85" y="622" type="curve"/>
    </contour>
  </outline>
</glyph>
<glyph name="V" format="1">
  <advance width="639"/>
  <unicode hex="0056"/>
  <outline>
    <contour>
      <point x="397" y="-76" type="curve"/>
      <point x="516" y="154"/>
      <point x="620" y="458"/>
      <point x="659" y="730" type="curve"/>
      <point x="604" y="752"/>
      <point x="539" y="765"/>
      <point x="478" y="769" type="curve"/>
      <point x="450" y="553"/>
      <point x="396" y="303"/>
      <point x="333" y="120" type="curve"/>
      <point x="283" y="269"/>
      <point x="239" y="476"/>
      <point x="217" y="640" type="curve"/>
      <point x="137" y="639"/>
      <point x="60" y="624"/>
      <point x="0" y="597" type="curve"/>
      <point x="50" y="353"/>
      <point x="131" y="119"/>
      <point x="217" y="-98" type="curve"/>
      <point x="284" y="-98"/>
      <point x="355" y="-93"/>
    </contour>
  </outline>
</glyph>
<glyph name="W" format="1">
  <advance width="962"/>
  <unicode hex="0057"/>
  <outline>
    <contour>
      <point x="724" y="-22" type="curve"/>
      <point x="842" y="165"/>
      <point x="939" y="422"/>
      <point x="984" y="644" type="curve"/>
      <point x="943" y="678"/>
      <point x="883" y="705"/>
      <point x="803" y="710" type="curve"/>
      <point x="785" y="539"/>
      <point x="744" y="361"/>
      <point x="683" y="197" type="curve"/>
      <point x="664" y="318"/>
      <point x="647" y="450"/>
      <point x="626" y="595" type="curve"/>
      <point x="563" y="597"/>
      <point x="475" y="586"/>
      <point x="409" y="571" type="curve"/>
      <point x="384" y="429"/>
      <point x="355" y="279"/>
      <point x="310" y="139" type="curve"/>
      <point x="270" y="313"/>
      <point x="235" y="502"/>
      <point x="219" y="673" type="curve"/>
      <point x="141" y="670"/>
      <point x="67" y="658"/>
      <point x="-5" y="636" type="curve"/>
      <point x="40" y="379"/>
      <point x="103" y="151"/>
      <point x="188" y="-81" type="curve"/>
      <point x="244" y="-80"/>
      <point x="325" y="-71"/>
      <point x="372" y="-57" type="curve"/>
      <point x="425" y="79"/>
      <point x="461" y="216"/>
      <point x="493" y="367" type="curve"/>
      <point x="504" y="234"/>
      <point x="539" y="102"/>
      <point x="567" y="-37" type="curve"/>
      <point x="621" y="-34"/>
      <point x="684" y="-29"/>
    </contour>
  </outline>
</glyph>
<glyph name="X" format="1">
  <advance width="676"/>
  <unicode hex="0058"/>
  <outline>
    <contour>
      <point x="17" y="679" type="curve"/>
      <point x="217" y="465"/>
      <point x="360" y="228"/>
      <point x="503" y="-56" type="curve"/>
      <point x="554" y="-31"/>
      <point x="615" y="5"/>
      <point x="647" y="40" type="curve"/>
      <point x="532" y="330"/>
      <point x="385" y="565"/>
      <point x="209" y="794" type="curve"/>
      <point x="141" y="770"/>
      <point x="68" y="723"/>
    </contour>
    <contour>
      <point x="254" y="421" type="line"/>
      <point x="165" y="301"/>
      <point x="86" y="212"/>
      <point x="-11" y="97" type="curve"/>
      <point x="10" y="67"/>
      <point x="54" y="22"/>
      <point x="85" y="3" type="curve"/>
      <point x="187" y="104"/>
      <point x="260" y="187"/>
      <point x="353" y="299" type="curve"/>
    </contour>
    <contour>
      <point x="520" y="771" type="curve"/>
      <point x="444" y="634"/>
      <point x="368" y="528"/>
      <point x="283" y="413" type="curve"/>
      <point x="377" y="291" type="line"/>
      <point x="476" y="407"/>
      <point x="574" y="525"/>
      <point x="661" y="654" type="curve"/>
      <point x="628" y="700"/>
      <point x="572" y="747"/>
    </contour>
  </outline>
</glyph>
<glyph name="Y" format="1">
  <advance width="552"/>
  <unicode hex="0059"/>
  <outline>
    <contour>
      <point x="-11" y="673" type="curve"/>
      <point x="28" y="497"/>
      <point x="99" y="322"/>
      <point x="212" y="188" type="curve"/>
      <point x="318" y="329" type="line"/>
      <point x="250" y="465"/>
      <point x="209" y="575"/>
      <point x="188" y="737" type="curve"/>
      <point x="109" y="733"/>
      <point x="44" y="714"/>
    </contour>
    <contour>
      <point x="365" y="729" type="curve"/>
      <point x="317" y="429"/>
      <point x="235" y="214"/>
      <point x="91" y="-33" type="curve"/>
      <point x="127" y="-63"/>
      <point x="197" y="-91"/>
      <point x="245" y="-103" type="curve"/>
      <point x="393" y="140"/>
      <point x="490" y="383"/>
      <point x="560" y="661" type="curve"/>
      <point x="506" y="699"/>
      <point x="443" y="719"/>
    </contour>
  </outline>
</glyph>
<glyph name="Z" format="1">
  <advance width="619"/>
  <unicode hex="005A"/>
  <outline>
    <contour>
      <point x="571" y="33"/>
      <point x="581" y="92"/>
      <point x="581" y="154" type="curve"/>
      <point x="461" y="141"/>
      <point x="351" y="133"/>
      <point x="217" y="129" type="curve"/>
      <point x="331" y="253"/>
      <point x="476" y="414"/>
      <point x="578" y="530" type="curve"/>
      <point x="595" y="567"/>
      <point x="601" y="618"/>
      <point x="606" y="660" type="curve"/>
      <point x="447" y="683"/>
      <point x="262" y="712"/>
      <point x="90" y="744" type="curve"/>
      <point x="61" y="690"/>
      <point x="52" y="642"/>
      <point x="52" y="580" type="curve"/>
      <point x="160" y="566"/>
      <point x="293" y="552"/>
      <point x="388" y="553" type="curve"/>
      <point x="384" y="562" type="line"/>
      <point x="281" y="446"/>
      <point x="173" y="321"/>
      <point x="29" y="164" type="curve"/>
      <point x="17" y="127"/>
      <point x="11" y="72"/>
      <point x="11" y="30" type="curve"/>
      <point x="150" y="17"/>
      <point x="380" y="-12"/>
      <point x="552" y="-13" type="curve"/>
    </contour>
  </outline>
</glyph>
<glyph name="a" format="1">
  <advance width="416"/>
  <unicode hex="0061"/>
  <outline>
    <contour>
      <point x="335" y="72"/>
      <point x="366" y="241"/>
      <point x="366" y="338" type="curve" smooth="yes"/>
      <point x="366" y="436"/>
      <point x="339" y="533"/>
      <point x="225" y="533" type="curve" smooth="yes"/>
      <point x="143" y="533"/>
      <point x="63" y="469"/>
      <point x="42" y="373" type="curve"/>
      <point x="50" y="355"/>
      <point x="71" y="346"/>
      <point x="98" y="340" type="curve"/>
      <point x="101" y="434"/>
      <point x="165" y="490"/>
      <point x="224" y="488" type="curve" smooth="yes"/>
      <point x="276" y="486"/>
      <point x="307" y="454"/>
      <point x="307" y="341" type="curve" smooth="yes"/>
      <point x="307" y="201"/>
      <point x="282" y="75"/>
      <point x="256" y="-24" type="curve"/>
      <point x="272" y="-30"/>
      <point x="290" y="-34"/>
      <point x="305" y="-34" type="curve"/>
    </contour>
    <contour>
      <point x="221" y="8"/>
      <point x="248" y="11"/>
      <point x="286" y="23" type="curve"/>
      <point x="291" y="62" type="line"/>
      <point x="256" y="55"/>
      <point x="233" y="52"/>
      <point x="202" y="52" type="curve" smooth="yes"/>
      <point x="136" y="52"/>
      <point x="78" y="77"/>
      <point x="78" y="138" type="curve" smooth="yes"/>
      <point x="78" y="192"/>
      <point x="105" y="234"/>
      <point x="313" y="234" type="curve"/>
      <point x="314" y="266" type="line"/>
      <point x="289" y="268"/>
      <point x="267" y="269"/>
      <point x="235" y="269" type="curve" smooth="yes"/>
      <point x="86" y="269"/>
      <point x="20" y="218"/>
      <point x="20" y="138" type="curve" smooth="yes"/>
      <point x="20" y="65"/>
      <point x="76" y="8"/>
      <point x="197" y="8" type="curve" smooth="yes"/>
    </contour>
  </outline>
</glyph>
<glyph name="b" format="1">
  <advance width="405"/>
  <unicode hex="0062"/>
  <outline>
    <contour>
      <point x="50" y="-16" type="curve"/>
      <point x="68" y="-19"/>
      <point x="81" y="-34"/>
      <point x="99" y="-35" type="curve"/>
      <point x="91" y="27"/>
      <point x="93" y="86"/>
      <point x="93" y="204" type="curve" smooth="yes"/>
      <point x="93" y="338"/>
      <point x="106" y="541"/>
      <point x="130" y="692" type="curve"/>
      <point x="120" y="694"/>
      <point x="113" y="696"/>
      <point x="102" y="696" type="curve" smooth="yes"/>
      <point x="88" y="696"/>
      <point x="77" y="695"/>
      <point x="64" y="691" type="curve"/>
      <point x="52" y="599"/>
      <point x="45" y="424"/>
      <point x="45" y="273" type="curve" smooth="yes"/>
      <point x="45" y="243"/>
      <point x="43" y="94"/>
    </contour>
    <contour>
      <point x="89" y="13" type="curve"/>
      <point x="50" y="-16" type="line"/>
      <point x="78" y="-45"/>
      <point x="112" y="-60"/>
      <point x="156" y="-60" type="curve" smooth="yes"/>
      <point x="287" y="-60"/>
      <point x="375" y="67"/>
      <point x="375" y="276" type="curve" smooth="yes"/>
      <point x="375" y="419"/>
      <point x="322" y="483"/>
      <point x="238" y="483" type="curve" smooth="yes"/>
      <point x="144" y="483"/>
      <point x="88" y="412"/>
      <point x="53" y="295" type="curve"/>
      <point x="84" y="267" type="line"/>
      <point x="112" y="386"/>
      <point x="173" y="438"/>
      <point x="219" y="438" type="curve" smooth="yes"/>
      <point x="280" y="438"/>
      <point x="316" y="389"/>
      <point x="316" y="275" type="curve" smooth="yes"/>
      <point x="316" y="118"/>
      <point x="273" y="-15"/>
      <point x="160" y="-15" type="curve" smooth="yes"/>
      <point x="127" y="-15"/>
      <point x="108" y="-5"/>
    </contour>
  </outline>
</glyph>
<glyph name="c" format="1">
  <advance width="396"/>
  <unicode hex="0063"/>
  <outline>
    <contour>
      <point x="309" y="325" type="curve"/>
      <point x="332" y="325"/>
      <point x="351" y="330"/>
      <point x="368" y="338" type="curve"/>
      <point x="368" y="436"/>
      <point x="324" y="511"/>
      <point x="228" y="511" type="curve" smooth="yes"/>
      <point x="97" y="511"/>
      <point x="30" y="350"/>
      <point x="30" y="168" type="curve" smooth="yes"/>
      <point x="30" y="49"/>
      <point x="70" y="-56"/>
      <point x="189" y="-56" type="curve" smooth="yes"/>
      <point x="274" y="-56"/>
      <point x="352" y="19"/>
      <point x="371" y="91" type="curve"/>
      <point x="366" y="101"/>
      <point x="345" y="114"/>
      <point x="328" y="116" type="curve"/>
      <point x="296" y="40"/>
      <point x="254" y="-11"/>
      <point x="197" y="-11" type="curve" smooth="yes"/>
      <point x="117" y="-11"/>
      <point x="84" y="73"/>
      <point x="84" y="173" type="curve" smooth="yes"/>
      <point x="84" y="316"/>
      <point x="145" y="466"/>
      <point x="230" y="466" type="curve" smooth="yes"/>
      <point x="288" y="466"/>
      <point x="309" y="408"/>
    </contour>
  </outline>
</glyph>
<glyph name="e" format="1">
  <advance width="404"/>
  <unicode hex="0065"/>
  <outline>
    <contour>
      <point x="74" y="274" type="line"/>
      <point x="125" y="253"/>
      <point x="180" y="243"/>
      <point x="229" y="243" type="curve" smooth="yes"/>
      <point x="271" y="243"/>
      <point x="308" y="246"/>
      <point x="336" y="255" type="curve"/>
      <point x="348" y="285"/>
      <point x="361" y="332"/>
      <point x="361" y="388" type="curve" smooth="yes"/>
      <point x="361" y="467"/>
      <point x="320" y="524"/>
      <point x="243" y="524" type="curve" smooth="yes"/>
      <point x="112" y="524"/>
      <point x="30" y="357"/>
      <point x="30" y="225" type="curve" smooth="yes"/>
      <point x="30" y="96"/>
      <point x="84" y="-10"/>
      <point x="195" y="-10" type="curve" smooth="yes"/>
      <point x="275" y="-10"/>
      <point x="361" y="69"/>
      <point x="384" y="141" type="curve"/>
      <point x="372" y="154"/>
      <point x="354" y="164"/>
      <point x="338" y="167" type="curve"/>
      <point x="317" y="92"/>
      <point x="251" y="35"/>
      <point x="194" y="35" type="curve" smooth="yes"/>
      <point x="122" y="35"/>
      <point x="85" y="121"/>
      <point x="85" y="221" type="curve" smooth="yes"/>
      <point x="85" y="337"/>
      <point x="149" y="478"/>
      <point x="238" y="478" type="curve" smooth="yes"/>
      <point x="292" y="478"/>
      <point x="306" y="445"/>
      <point x="306" y="389" type="curve" smooth="yes"/>
      <point x="306" y="354"/>
      <point x="298" y="316"/>
      <point x="291" y="289" type="curve"/>
      <point x="282" y="286"/>
      <point x="260" y="284"/>
      <point x="246" y="284" type="curve" smooth="yes"/>
      <point x="205" y="284"/>
      <point x="134" y="287"/>
      <point x="72" y="320" type="curve"/>
    </contour>
  </outline>
</glyph>
<glyph name="f" format="1">
  <advance width="343"/>
  <unicode hex="0066"/>
  <outline>
    <contour>
      <point x="163" y="-15"/>
      <point x="143" y="-21"/>
      <point x="124" y="-21" type="curve"/>
      <point x="111" y="38"/>
      <point x="85" y="236"/>
      <point x="85" y="402" type="curve" smooth="yes"/>
      <point x="85" y="637"/>
      <point x="136" y="727"/>
      <point x="232" y="727" type="curve" smooth="yes"/>
      <point x="297" y="727"/>
      <point x="328" y="656"/>
      <point x="328" y="599" type="curve" smooth="yes"/>
      <point x="328" y="578"/>
      <point x="322" y="555"/>
      <point x="315" y="542" type="curve"/>
      <point x="298" y="542"/>
      <point x="282" y="545"/>
      <point x="267" y="551" type="curve"/>
      <point x="272" y="563"/>
      <point x="277" y="583"/>
      <point x="277" y="601" type="curve" smooth="yes"/>
      <point x="277" y="654"/>
      <point x="260" y="682"/>
      <point x="227" y="682" type="curve" smooth="yes"/>
      <point x="172" y="682"/>
      <point x="136" y="599"/>
      <point x="136" y="448" type="curve" smooth="yes"/>
      <point x="136" y="274"/>
      <point x="150" y="117"/>
      <point x="180" y="-9" type="curve"/>
    </contour>
    <contour>
      <point x="62" y="438"/>
      <point x="149" y="428"/>
      <point x="218" y="428" type="curve" smooth="yes"/>
      <point x="246" y="428"/>
      <point x="269" y="431"/>
      <point x="286" y="434" type="curve"/>
      <point x="286" y="419"/>
      <point x="283" y="398"/>
      <point x="281" y="386" type="curve"/>
      <point x="270" y="384"/>
      <point x="252" y="380"/>
      <point x="213" y="380" type="curve" smooth="yes"/>
      <point x="130" y="380"/>
      <point x="47" y="400"/>
      <point x="18" y="412" type="curve"/>
      <point x="18" y="421"/>
      <point x="24" y="437"/>
      <point x="29" y="442" type="curve"/>
    </contour>
  </outline>
</glyph>
<glyph name="g" format="1">
  <advance width="408"/>
  <unicode hex="0067"/>
  <outline>
    <contour>
      <point x="269" y="457" type="curve"/>
      <point x="275" y="500" type="line"/>
      <point x="263" y="507"/>
      <point x="241" y="513"/>
      <point x="219" y="513" type="curve" smooth="yes"/>
      <point x="113" y="513"/>
      <point x="34" y="421"/>
      <point x="34" y="257" type="curve" smooth="yes"/>
      <point x="34" y="101"/>
      <point x="95" y="4"/>
      <point x="191" y="4" type="curve" smooth="yes"/>
      <point x="252" y="4"/>
      <point x="298" y="50"/>
      <point x="330" y="198" type="curve"/>
      <point x="305" y="238" type="line"/>
      <point x="285" y="130"/>
      <point x="254" y="51"/>
      <point x="192" y="51" type="curve" smooth="yes"/>
      <point x="138" y="51"/>
      <point x="94" y="117"/>
      <point x="94" y="253" type="curve" smooth="yes"/>
      <point x="94" y="403"/>
      <point x="139" y="467"/>
      <point x="220" y="467" type="curve" smooth="yes"/>
      <point x="237" y="467"/>
      <point x="255" y="462"/>
    </contour>
    <contour>
      <point x="294" y="522"/>
      <point x="267" y="510"/>
      <point x="252" y="495" type="curve"/>
      <point x="279" y="420"/>
      <point x="302" y="327"/>
      <point x="302" y="150" type="curve" smooth="yes"/>
      <point x="302" y="-145"/>
      <point x="230" y="-202"/>
      <point x="177" y="-202" type="curve" smooth="yes"/>
      <point x="122" y="-202"/>
      <point x="91" y="-163"/>
      <point x="76" y="-62" type="curve"/>
      <point x="56" y="-68"/>
      <point x="38" y="-77"/>
      <point x="22" y="-87" type="curve"/>
      <point x="34" y="-156"/>
      <point x="83" y="-247"/>
      <point x="174" y="-247" type="curve" smooth="yes"/>
      <point x="245" y="-247"/>
      <point x="358" y="-179"/>
      <point x="358" y="169" type="curve" smooth="yes"/>
      <point x="358" y="301"/>
      <point x="334" y="462"/>
      <point x="316" y="522" type="curve"/>
    </contour>
  </outline>
</glyph>
<glyph name="i" format="1">
  <advance width="196"/>
  <unicode hex="0069"/>
  <outline>
    <contour>
      <point x="117" y="511"/>
      <point x="106" y="508"/>
      <point x="98" y="504" type="curve"/>
      <point x="69" y="375"/>
      <point x="44" y="196"/>
      <point x="44" y="84" type="curve" smooth="yes"/>
      <point x="44" y="52"/>
      <point x="44" y="22"/>
      <point x="47" y="-3" type="curve"/>
      <point x="53" y="-5"/>
      <point x="55" y="-5"/>
      <point x="62" y="-5" type="curve" smooth="yes"/>
      <point x="72" y="-5"/>
      <point x="81" y="-2"/>
      <point x="88" y="1" type="curve"/>
      <point x="88" y="201"/>
      <point x="128" y="407"/>
      <point x="154" y="508" type="curve"/>
      <point x="147" y="510"/>
      <point x="140" y="511"/>
      <point x="134" y="511" type="curve" smooth="yes"/>
    </contour>
    <contour>
      <point x="170" y="651"/>
      <point x="187" y="715"/>
      <point x="199" y="744" type="curve"/>
      <point x="190" y="748"/>
      <point x="178" y="756"/>
      <point x="161" y="756" type="curve" smooth="yes"/>
      <point x="148" y="756"/>
      <point x="138" y="751"/>
      <point x="128" y="746" type="curve"/>
      <point x="123" y="730"/>
      <point x="122" y="712"/>
      <point x="122" y="696" type="curve" smooth="yes"/>
      <point x="122" y="664"/>
      <point x="124" y="635"/>
      <point x="129" y="608" type="curve"/>
      <point x="145" y="608"/>
      <point x="154" y="609"/>
      <point x="163" y="611" type="curve"/>
    </contour>
  </outline>
</glyph>
<glyph name="k" format="1">
  <advance width="580"/>
  <unicode hex="006B"/>
  <outline>
    <contour>
      <point x="293" y="710" type="curve"/>
      <point x="245" y="732"/>
      <point x="123" y="748"/>
      <point x="75" y="748" type="curve"/>
      <point x="58" y="654"/>
      <point x="50" y="410"/>
      <point x="50" y="296" type="curve" smooth="yes"/>
      <point x="50" y="117"/>
      <point x="64" y="3"/>
      <point x="77" y="-56" type="curve"/>
      <point x="147" y="-56"/>
      <point x="196" y="-51"/>
      <point x="248" y="-32" type="curve"/>
      <point x="235" y="48"/>
      <point x="233" y="119"/>
      <point x="233" y="191" type="curve" smooth="yes"/>
      <point x="233" y="345"/>
      <point x="265" y="615"/>
    </contour>
    <contour>
      <point x="416" y="577" type="curve"/>
      <point x="319" y="449"/>
      <point x="240" y="335"/>
      <point x="119" y="249" type="curve"/>
      <point x="189" y="158" type="line"/>
      <point x="327" y="246"/>
      <point x="456" y="332"/>
      <point x="553" y="451" type="curve"/>
      <point x="527" y="495"/>
      <point x="471" y="551"/>
    </contour>
    <contour>
      <point x="272" y="339" type="curve"/>
      <point x="179" y="241" type="line"/>
      <point x="244" y="133"/>
      <point x="318" y="43"/>
      <point x="401" y="-31" type="curve"/>
      <point x="472" y="-10"/>
      <point x="518" y="41"/>
      <point x="560" y="92" type="curve"/>
      <point x="447" y="165"/>
      <point x="345" y="238"/>
    </contour>
  </outline>
</glyph>
<glyph name="m" format="1">
  <advance width="656"/>
  <unicode hex="006D"/>
  <outline>
    <contour>
      <point x="327" y="54"/>
      <point x="355" y="194"/>
      <point x="355" y="318" type="curve" smooth="yes"/>
      <point x="355" y="457"/>
      <point x="316" y="503"/>
      <point x="245" y="503" type="curve" smooth="yes"/>
      <point x="190" y="503"/>
      <point x="126" y="468"/>
      <point x="74" y="355" type="curve"/>
      <point x="92" y="316" type="line"/>
      <point x="126" y="409"/>
      <point x="185" y="452"/>
      <point x="233" y="452" type="curve" smooth="yes"/>
      <point x="282" y="452"/>
      <point x="300" y="413"/>
      <point x="300" y="322" type="curve" smooth="yes"/>
      <point x="300" y="223"/>
      <point x="286" y="131"/>
      <point x="266" y="24" type="curve"/>
      <point x="277" y="18"/>
      <point x="300" y="13"/>
      <point x="316" y="12" type="curve"/>
    </contour>
    <contour>
      <point x="41" y="353"/>
      <point x="48" y="94"/>
      <point x="55" y="-35" type="curve"/>
      <point x="71" y="-35"/>
      <point x="90" y="-32"/>
      <point x="103" y="-27" type="curve"/>
      <point x="97" y="19"/>
      <point x="95" y="139"/>
      <point x="95" y="180" type="curve" smooth="yes"/>
      <point x="95" y="277"/>
      <point x="100" y="435"/>
      <point x="110" y="524" type="curve"/>
      <point x="97" y="527"/>
      <point x="87" y="527"/>
      <point x="77" y="527" type="curve" smooth="yes"/>
      <point x="64" y="527"/>
      <point x="51" y="524"/>
      <point x="41" y="519" type="curve"/>
    </contour>
    <contour>
      <point x="564" y="36"/>
      <point x="606" y="214"/>
      <point x="606" y="373" type="curve" smooth="yes"/>
      <point x="606" y="512"/>
      <point x="567" y="558"/>
      <point x="496" y="558" type="curve" smooth="yes"/>
      <point x="440" y="558"/>
      <point x="379" y="517"/>
      <point x="322" y="395" type="curve"/>
      <point x="343" y="351" type="line"/>
      <point x="381" y="456"/>
      <point x="436" y="507"/>
      <point x="484" y="507" type="curve" smooth="yes"/>
      <point x="533" y="507"/>
      <point x="551" y="468"/>
      <point x="551" y="377" type="curve" smooth="yes"/>
      <point x="551" y="249"/>
      <point x="534" y="132"/>
      <point x="499" y="-7" type="curve"/>
      <point x="510" y="-13"/>
      <point x="533" y="-18"/>
      <point x="549" y="-19" type="curve"/>
    </contour>
  </outline>
</glyph>
<glyph name="n" format="1">
  <advance width="415"/>
  <unicode hex="006E"/>
  <outline>
    <contour>
      <point x="338" y="57"/>
      <point x="365" y="206"/>
      <point x="365" y="338" type="curve" smooth="yes"/>
      <point x="365" y="477"/>
      <point x="325" y="523"/>
      <point x="250" y="523" type="curve" smooth="yes"/>
      <point x="193" y="523"/>
      <point x="132" y="481"/>
      <point x="74" y="355" type="curve"/>
      <point x="92" y="316" type="line"/>
      <point x="130" y="421"/>
      <point x="188" y="472"/>
      <point x="238" y="472" type="curve" smooth="yes"/>
      <point x="290" y="472"/>
      <point x="310" y="433"/>
      <point x="310" y="342" type="curve" smooth="yes"/>
      <point x="310" y="236"/>
      <point x="297" y="138"/>
      <point x="276" y="24" type="curve"/>
      <point x="287" y="18"/>
      <point x="310" y="13"/>
      <point x="326" y="12" type="curve"/>
    </contour>
    <contour>
      <point x="41" y="353"/>
      <point x="48" y="94"/>
      <point x="55" y="-35" type="curve"/>
      <point x="71" y="-35"/>
      <point x="90" y="-32"/>
      <point x="103" y="-27" type="curve"/>
      <point x="97" y="19"/>
      <point x="95" y="139"/>
      <point x="95" y="180" type="curve" smooth="yes"/>
      <point x="95" y="277"/>
      <point x="102" y="435"/>
      <point x="109" y="524" type="curve"/>
      <point x="97" y="526"/>
      <point x="87" y="527"/>
      <point x="77" y="527" type="curve" smooth="yes"/>
      <point x="64" y="527"/>
      <point x="51" y="524"/>
      <point x="41" y="519" type="curve"/>
    </contour>
  </outline>
</glyph>
<glyph name="p" format="1">
  <advance width="411"/>
  <unicode hex="0070"/>
  <outline>
    <contour>
      <point x="85" y="112" type="curve"/>
      <point x="76" y="46" type="line"/>
      <point x="97" y="25"/>
      <point x="121" y="10"/>
      <point x="166" y="10" type="curve" smooth="yes"/>
      <point x="279" y="10"/>
      <point x="381" y="152"/>
      <point x="381" y="355" type="curve" smooth="yes"/>
      <point x="381" y="476"/>
      <point x="331" y="553"/>
      <point x="257" y="553" type="curve" smooth="yes"/>
      <point x="166" y="553"/>
      <point x="97" y="463"/>
      <point x="73" y="322" type="curve"/>
      <point x="99" y="303" type="line"/>
      <point x="128" y="447"/>
      <point x="180" y="497"/>
      <point x="237" y="497" type="curve" smooth="yes"/>
      <point x="286" y="497"/>
      <point x="322" y="447"/>
      <point x="322" y="352" type="curve" smooth="yes"/>
      <point x="322" y="169"/>
      <point x="243" y="53"/>
      <point x="166" y="53" type="curve" smooth="yes"/>
      <point x="131" y="53"/>
      <point x="106" y="73"/>
    </contour>
    <contour>
      <point x="89" y="-218" type="curve"/>
      <point x="106" y="-218"/>
      <point x="123" y="-215"/>
      <point x="139" y="-210" type="curve"/>
      <point x="121" y="-101"/>
      <point x="103" y="46"/>
      <point x="103" y="245" type="curve" smooth="yes"/>
      <point x="103" y="370"/>
      <point x="111" y="454"/>
      <point x="138" y="553" type="curve"/>
      <point x="127" y="557"/>
      <point x="116" y="558"/>
      <point x="105" y="558" type="curve" smooth="yes"/>
      <point x="88" y="558"/>
      <point x="74" y="555"/>
      <point x="59" y="547" type="curve"/>
      <point x="53" y="489"/>
      <point x="50" y="431"/>
      <point x="50" y="348" type="curve" smooth="yes"/>
      <point x="50" y="144"/>
      <point x="72" y="-91"/>
    </contour>
  </outline>
</glyph>
<glyph name="q" format="1">
  <advance width="449"/>
  <unicode hex="0071"/>
  <outline>
    <contour>
      <point x="329" y="448" type="curve"/>
      <point x="349" y="490" type="line"/>
      <point x="333" y="499"/>
      <point x="289" y="509"/>
      <point x="261" y="509" type="curve" smooth="yes"/>
      <point x="118" y="509"/>
      <point x="30" y="385"/>
      <point x="30" y="196" type="curve" smooth="yes"/>
      <point x="30" y="61"/>
      <point x="86" y="-50"/>
      <point x="180" y="-50" type="curve" smooth="yes"/>
      <point x="244" y="-50"/>
      <point x="297" y="3"/>
      <point x="334" y="178" type="curve"/>
      <point x="305" y="194" type="line"/>
      <point x="279" y="37"/>
      <point x="241" y="-5"/>
      <point x="182" y="-5" type="curve" smooth="yes"/>
      <point x="133" y="-5"/>
      <point x="85" y="62"/>
      <point x="85" y="197" type="curve" smooth="yes"/>
      <point x="85" y="389"/>
      <point x="171" y="464"/>
      <point x="252" y="464" type="curve" smooth="yes"/>
      <point x="295" y="464"/>
      <point x="313" y="457"/>
    </contour>
    <contour>
      <point x="360" y="561"/>
      <point x="351" y="558"/>
      <point x="341" y="553" type="curve"/>
      <point x="315" y="443"/>
      <point x="296" y="235"/>
      <point x="296" y="95" type="curve" smooth="yes"/>
      <point x="296" y="-56"/>
      <point x="303" y="-211"/>
      <point x="306" y="-238" type="curve"/>
      <point x="313" y="-240"/>
      <point x="316" y="-241"/>
      <point x="323" y="-241" type="curve" smooth="yes"/>
      <point x="331" y="-241"/>
      <point x="341" y="-239"/>
      <point x="348" y="-236" type="curve"/>
      <point x="334" y="78"/>
      <point x="354" y="364"/>
      <point x="409" y="557" type="curve"/>
      <point x="399" y="560"/>
      <point x="387" y="561"/>
      <point x="378" y="561" type="curve" smooth="yes"/>
    </contour>
  </outline>
</glyph>
<glyph name="r" format="1">
  <advance width="537"/>
  <unicode hex="0072"/>
  <outline>
    <contour>
      <point x="107" y="533"/>
      <point x="64" y="526"/>
      <point x="32" y="510" type="curve"/>
      <point x="32" y="348"/>
      <point x="73" y="124"/>
      <point x="117" y="-16" type="curve"/>
      <point x="134" y="-21"/>
      <point x="149" y="-23"/>
      <point x="177" y="-23" type="curve" smooth="yes"/>
      <point x="232" y="-23"/>
      <point x="272" y="-14"/>
      <point x="300" y="-1" type="curve"/>
      <point x="247" y="217"/>
      <point x="237" y="430"/>
      <point x="250" y="523" type="curve"/>
      <point x="227" y="529"/>
      <point x="200" y="533"/>
      <point x="179" y="533" type="curve" smooth="yes"/>
    </contour>
    <contour>
      <point x="527" y="375" type="curve"/>
      <point x="527" y="524"/>
      <point x="463" y="575"/>
      <point x="392" y="575" type="curve" smooth="yes"/>
      <point x="295" y="575"/>
      <point x="208" y="449"/>
      <point x="193" y="237" type="curve"/>
      <point x="260" y="175" type="line"/>
      <point x="260" y="364"/>
      <point x="295" y="426"/>
      <point x="319" y="426" type="curve" smooth="yes"/>
      <point x="341" y="426"/>
      <point x="351" y="397"/>
      <point x="351" y="345" type="curve"/>
      <point x="416" y="345"/>
      <point x="484" y="357"/>
    </contour>
  </outline>
</glyph>
<glyph name="u" format="1">
  <advance width="364"/>
  <unicode hex="0075"/>
  <outline>
    <contour>
      <point x="45" y="465"/>
      <point x="30" y="358"/>
      <point x="30" y="271" type="curve" smooth="yes"/>
      <point x="30" y="131"/>
      <point x="57" y="-10"/>
      <point x="166" y="-10" type="curve" smooth="yes"/>
      <point x="304" y="-10"/>
      <point x="334" y="188"/>
      <point x="334" y="355" type="curve" smooth="yes"/>
      <point x="334" y="399"/>
      <point x="330" y="443"/>
      <point x="324" y="472" type="curve"/>
      <point x="308" y="472"/>
      <point x="283" y="468"/>
      <point x="267" y="461" type="curve"/>
      <point x="271" y="445"/>
      <point x="279" y="384"/>
      <point x="279" y="320" type="curve" smooth="yes"/>
      <point x="279" y="182"/>
      <point x="257" y="35"/>
      <point x="174" y="35" type="curve" smooth="yes"/>
      <point x="109" y="35"/>
      <point x="83" y="156"/>
      <point x="83" y="261" type="curve" smooth="yes"/>
      <point x="83" y="370"/>
      <point x="96" y="451"/>
      <point x="116" y="510" type="curve"/>
      <point x="110" y="513"/>
      <point x="103" y="515"/>
      <point x="95" y="515" type="curve" smooth="yes"/>
      <point x="85" y="515"/>
      <point x="76" y="513"/>
      <point x="69" y="510" type="curve"/>
    </contour>
  </outline>
</glyph>
<glyph name="v" format="1">
  <advance width="528"/>
  <unicode hex="0076"/>
  <outline>
    <contour>
      <point x="329" y="24" type="curve"/>
      <point x="418" y="173"/>
      <point x="494" y="360"/>
      <point x="537" y="525" type="curve"/>
      <point x="482" y="547"/>
      <point x="417" y="560"/>
      <point x="356" y="564" type="curve"/>
      <point x="340" y="441"/>
      <point x="309" y="299"/>
      <point x="273" y="195" type="curve"/>
      <point x="259" y="316"/>
      <point x="231" y="475"/>
      <point x="190" y="591" type="curve"/>
      <point x="110" y="590"/>
      <point x="33" y="575"/>
      <point x="-27" y="548" type="curve"/>
      <point x="58" y="366"/>
      <point x="115" y="184"/>
      <point x="149" y="2" type="curve"/>
      <point x="216" y="2"/>
      <point x="287" y="7"/>
    </contour>
  </outline>
</glyph>
<glyph name="w" format="1">
  <advance width="831"/>
  <unicode hex="0077"/>
  <outline>
    <contour>
      <point x="544" y="-34"/>
      <point x="610" y="-21"/>
      <point x="644" y="-7" type="curve"/>
      <point x="730" y="130"/>
      <point x="792" y="319"/>
      <point x="836" y="478" type="curve"/>
      <point x="788" y="506"/>
      <point x="744" y="517"/>
      <point x="671" y="522" type="curve"/>
      <point x="660" y="411"/>
      <point x="645" y="297"/>
      <point x="615" y="189" type="curve"/>
      <point x="621" y="189" type="line"/>
      <point x="603" y="305"/>
      <point x="581" y="417"/>
      <point x="548" y="527" type="curve"/>
      <point x="489" y="529"/>
      <point x="408" y="517"/>
      <point x="346" y="503" type="curve"/>
      <point x="322" y="391"/>
      <point x="291" y="281"/>
      <point x="254" y="170" type="curve"/>
      <point x="262" y="170" type="line"/>
      <point x="236" y="294"/>
      <point x="228" y="419"/>
      <point x="222" y="550" type="curve"/>
      <point x="144" y="547"/>
      <point x="70" y="535"/>
      <point x="-2" y="513" type="curve"/>
      <point x="30" y="329"/>
      <point x="73" y="162"/>
      <point x="134" y="-3" type="curve"/>
      <point x="185" y="-2"/>
      <point x="260" y="8"/>
      <point x="303" y="21" type="curve"/>
      <point x="352" y="122"/>
      <point x="392" y="232"/>
      <point x="429" y="331" type="curve"/>
      <point x="421" y="332" type="line"/>
      <point x="448" y="213"/>
      <point x="472" y="85"/>
      <point x="491" y="-37" type="curve"/>
    </contour>
  </outline>
</glyph>
<glyph name="x" format="1">
  <advance width="554"/>
  <unicode hex="0078"/>
  <outline>
    <contour>
      <point x="-2" y="449" type="curve"/>
      <point x="142" y="295"/>
      <point x="254" y="125"/>
      <point x="369" y="-56" type="curve"/>
      <point x="420" y="-31"/>
      <point x="481" y="5"/>
      <point x="513" y="40" type="curve"/>
      <point x="418" y="224"/>
      <point x="315" y="402"/>
      <point x="190" y="564" type="curve"/>
      <point x="122" y="540"/>
      <point x="49" y="493"/>
    </contour>
    <contour>
      <point x="217" y="297" type="line"/>
      <point x="140" y="215"/>
      <point x="59" y="135"/>
      <point x="-24" y="58" type="curve"/>
      <point x="-7" y="25"/>
      <point x="21" y="-15"/>
      <point x="50" y="-38" type="curve"/>
      <point x="134" y="27"/>
      <point x="212" y="99"/>
      <point x="291" y="173" type="curve"/>
    </contour>
    <contour>
      <point x="447" y="561" type="curve"/>
      <point x="374" y="460"/>
      <point x="312" y="377"/>
      <point x="235" y="295" type="curve"/>
      <point x="309" y="169" type="line"/>
      <point x="399" y="252"/>
      <point x="485" y="340"/>
      <point x="567" y="434" type="curve"/>
      <point x="540" y="484"/>
      <point x="495" y="531"/>
    </contour>
  </outline>
</glyph>
<glyph name="y" format="1">
  <advance width="600"/>
  <unicode hex="0079"/>
  <outline>
    <contour>
      <point x="13" y="439" type="curve"/>
      <point x="57" y="281"/>
      <point x="136" y="128"/>
      <point x="242" y="-4" type="curve"/>
      <point x="336" y="78" type="line"/>
      <point x="279" y="218"/>
      <point x="231" y="354"/>
      <point x="210" y="516" type="curve"/>
      <point x="126" y="505"/>
      <point x="71" y="482"/>
    </contour>
    <contour>
      <point x="415" y="551" type="curve"/>
      <point x="319" y="281"/>
      <point x="223" y="58"/>
      <point x="88" y="-173" type="curve"/>
      <point x="119" y="-199"/>
      <point x="179" y="-225"/>
      <point x="220" y="-235" type="curve"/>
      <point x="377" y="-9"/>
      <point x="494" y="208"/>
      <point x="601" y="460" type="curve"/>
      <point x="554" y="505"/>
      <point x="489" y="533"/>
    </contour>
  </outline>
</glyph>
<glyph name="z" format="1">
  <advance width="551"/>
  <unicode hex="007A"/>
  <outline>
    <contour>
      <point x="488" y="120" type="curve"/>
      <point x="386" y="95"/>
      <point x="312" y="92"/>
      <point x="210" y="89" type="curve"/>
      <point x="284" y="188"/>
      <point x="427" y="315"/>
      <point x="503" y="380" type="curve"/>
      <point x="520" y="416"/>
      <point x="530" y="464"/>
      <point x="535" y="504" type="curve"/>
      <point x="399" y="555"/>
      <point x="239" y="573"/>
      <point x="88" y="577" type="curve"/>
      <point x="59" y="523"/>
      <point x="50" y="475"/>
      <point x="50" y="413" type="curve"/>
      <point x="137" y="422"/>
      <point x="253" y="426"/>
      <point x="325" y="426" type="curve"/>
      <point x="230" y="356"/>
      <point x="119" y="255"/>
      <point x="19" y="134" type="curve"/>
      <point x="9" y="104"/>
      <point x="3" y="59"/>
      <point x="3" y="25" type="curve"/>
      <point x="114" y="-23"/>
      <point x="314" y="-46"/>
      <point x="459" y="-47" type="curve"/>
      <point x="478" y="-1"/>
      <point x="488" y="58"/>
    </contour>
  </outline>
</glyph>
<glyph name="bn_chandrabindu" format="1">
  <advance width="300"/>
  <unicode hex="0981"/>
  <outline>
    <contour>
      <point x="219" y="665"/>
      <point x="275" y="725"/>
      <point x="288" y="805" type="curve"/>
      <point x="256" y="816" type="line"/>
      <point x="242" y="757"/>
      <point x="203" y="713"/>
      <point x="150" y="713" type="curve" smooth="yes"/>
      <point x="102" y="713"/>
      <point x="68" y="748"/>
      <point x="57" y="788" type="curve"/>
      <point x="12" y="770" type="line"/>
      <point x="23" y="714"/>
      <point x="73" y="665"/>
      <point x="144" y="665" type="curve" smooth="yes"/>
    </contour>
    <contour>
      <point x="174" y="788"/>
      <point x="190" y="805"/>
      <point x="190" y="827" type="curve" smooth="yes"/>
      <point x="190" y="851"/>
      <point x="172" y="871"/>
      <point x="149" y="871" type="curve" smooth="yes"/>
      <point x="127" y="871"/>
      <point x="109" y="854"/>
      <point x="109" y="832" type="curve" smooth="yes"/>
      <point x="109" y="808"/>
      <point x="126" y="788"/>
      <point x="150" y="788" type="curve" smooth="yes"/>
    </contour>
  </outline>
</glyph>
<glyph name="bn_anusvar" format="1">
  <advance width="438"/>
  <unicode hex="0982"/>
  <outline>
    <contour>
      <point x="403" y="-39"/>
      <point x="414" y="-32"/>
      <point x="422" y="-21" type="curve"/>
      <point x="334" y="140"/>
      <point x="183" y="257"/>
      <point x="50" y="310" type="curve"/>
      <point x="38" y="293"/>
      <point x="33" y="278"/>
      <point x="30" y="259" type="curve"/>
      <point x="154" y="221"/>
      <point x="290" y="110"/>
      <point x="387" y="-45" type="curve"/>
    </contour>
    <contour>
      <point x="297" y="330"/>
      <point x="363" y="395"/>
      <point x="363" y="474" type="curve" smooth="yes"/>
      <point x="363" y="547"/>
      <point x="307" y="599"/>
      <point x="230" y="599" type="curve" smooth="yes"/>
      <point x="148" y="599"/>
      <point x="85" y="535"/>
      <point x="85" y="456" type="curve" smooth="yes"/>
      <point x="85" y="382"/>
      <point x="141" y="330"/>
      <point x="215" y="330" type="curve" smooth="yes"/>
    </contour>
    <contour>
      <point x="172" y="373"/>
      <point x="131" y="411"/>
      <point x="131" y="472" type="curve" smooth="yes"/>
      <point x="131" y="523"/>
      <point x="162" y="556"/>
      <point x="215" y="556" type="curve" smooth="yes"/>
      <point x="275" y="556"/>
      <point x="317" y="520"/>
      <point x="317" y="461" type="curve" smooth="yes"/>
      <point x="317" y="408"/>
      <point x="283" y="373"/>
      <point x="229" y="373" type="curve" smooth="yes"/>
    </contour>
  </outline>
</glyph>
<glyph name="bn_bisarga" format="1">
  <advance width="433"/>
  <unicode hex="0983"/>
  <outline>
    <contour>
      <point x="297" y="330"/>
      <point x="363" y="395"/>
      <point x="363" y="474" type="curve" smooth="yes"/>
      <point x="363" y="547"/>
      <point x="307" y="599"/>
      <point x="230" y="599" type="curve" smooth="yes"/>
      <point x="148" y="599"/>
      <point x="85" y="535"/>
      <point x="85" y="456" type="curve" smooth="yes"/>
      <point x="85" y="382"/>
      <point x="141" y="330"/>
      <point x="215" y="330" type="curve" smooth="yes"/>
    </contour>
    <contour>
      <point x="296" y="5"/>
      <point x="357" y="65"/>
      <point x="357" y="140" type="curve" smooth="yes"/>
      <point x="357" y="212"/>
      <point x="301" y="266"/>
      <point x="227" y="266" type="curve" smooth="yes"/>
      <point x="150" y="266"/>
      <point x="90" y="206"/>
      <point x="90" y="130" type="curve" smooth="yes"/>
      <point x="90" y="57"/>
      <point x="146" y="5"/>
      <point x="218" y="5" type="curve" smooth="yes"/>
    </contour>
    <contour>
      <point x="175" y="50"/>
      <point x="135" y="88"/>
      <point x="135" y="143" type="curve" smooth="yes"/>
      <point x="135" y="191"/>
      <point x="166" y="221"/>
      <point x="216" y="221" type="curve" smooth="yes"/>
      <point x="274" y="221"/>
      <point x="312" y="181"/>
      <point x="312" y="127" type="curve" smooth="yes"/>
      <point x="312" y="78"/>
      <point x="281" y="50"/>
      <point x="232" y="50" type="curve" smooth="yes"/>
    </contour>
    <contour>
      <point x="172" y="373"/>
      <point x="131" y="411"/>
      <point x="131" y="472" type="curve" smooth="yes"/>
      <point x="131" y="523"/>
      <point x="162" y="556"/>
      <point x="215" y="556" type="curve" smooth="yes"/>
      <point x="275" y="556"/>
      <point x="317" y="520"/>
      <point x="317" y="461" type="curve" smooth="yes"/>
      <point x="317" y="408"/>
      <point x="283" y="373"/>
      <point x="229" y="373" type="curve" smooth="yes"/>
    </contour>
  </outline>
</glyph>
<glyph name="bn_a" format="1">
  <advance width="652"/>
  <unicode hex="0985"/>
  <note>
	uni0985
  </note>
  <outline>
    <contour>
      <point x="391" y="84"/>
      <point x="439" y="163"/>
      <point x="439" y="263" type="curve" smooth="yes"/>
      <point x="439" y="367"/>
      <point x="386" y="474"/>
      <point x="300" y="474" type="curve" smooth="yes"/>
      <point x="239" y="474"/>
      <point x="204" y="420"/>
      <point x="204" y="330" type="curve"/>
      <point x="213" y="318"/>
      <point x="237" y="305"/>
      <point x="257" y="303" type="curve"/>
      <point x="254" y="319"/>
      <point x="252" y="332"/>
      <point x="252" y="348" type="curve" smooth="yes"/>
      <point x="252" y="399"/>
      <point x="271" y="434"/>
      <point x="310" y="434" type="curve" smooth="yes"/>
      <point x="361" y="434"/>
      <point x="394" y="366"/>
      <point x="394" y="273" type="curve" smooth="yes"/>
      <point x="394" y="191"/>
      <point x="366" y="136"/>
      <point x="300" y="136" type="curve" smooth="yes"/>
      <point x="194" y="136"/>
      <point x="121" y="275"/>
      <point x="67" y="441" type="curve"/>
      <point x="52" y="435"/>
      <point x="39" y="426"/>
      <point x="28" y="415" type="curve"/>
      <point x="82" y="251"/>
      <point x="168" y="84"/>
      <point x="300" y="84" type="curve" smooth="yes"/>
    </contour>
    <contour>
      <point x="479" y="8" type="line"/>
      <point x="455" y="66"/>
      <point x="422" y="120"/>
      <point x="382" y="165" type="curve"/>
      <point x="349" y="134" type="line"/>
      <point x="388" y="98"/>
      <point x="420" y="52"/>
      <point x="450" y="-6" type="curve"/>
    </contour>
    <contour>
      <point x="536" y="75"/>
      <point x="558" y="277"/>
      <point x="558" y="436" type="curve" smooth="yes"/>
      <point x="558" y="480"/>
      <point x="558" y="522"/>
      <point x="554" y="561" type="curve"/>
      <point x="509" y="564" type="line"/>
      <point x="511" y="518"/>
      <point x="512" y="481"/>
      <point x="512" y="433" type="curve" smooth="yes"/>
      <point x="512" y="263"/>
      <point x="499" y="122"/>
      <point x="465" y="20" type="curve"/>
      <point x="450" y="-6" type="line"/>
      <point x="461" y="-13"/>
      <point x="476" y="-18"/>
      <point x="492" y="-18" type="curve"/>
    </contour>
    <contour>
      <point x="87" y="552"/>
      <point x="197" y="567"/>
      <point x="319" y="567" type="curve" smooth="yes"/>
      <point x="441" y="567"/>
      <point x="567" y="552"/>
      <point x="652" y="535" type="curve"/>
      <point x="655" y="546"/>
      <point x="658" y="569"/>
      <point x="652" y="581" type="curve"/>
      <point x="576" y="600"/>
      <point x="448" y="616"/>
      <point x="324" y="616" type="curve" smooth="yes"/>
      <point x="200" y="616"/>
      <point x="85" y="600"/>
      <point x="0" y="581" type="curve"/>
      <point x="-7" y="570"/>
      <point x="-5" y="549"/>
      <point x="0" y="535" type="curve"/>
    </contour>
  </outline>
</glyph>
<glyph name="bn_aa" format="1">
  <advance width="836"/>
  <unicode hex="0986"/>
  <outline>
    <contour>
      <point x="756" y="497" type="line"/>
      <point x="709" y="587"/>
      <point x="507" y="619"/>
      <point x="336" y="619" type="curve" smooth="yes"/>
      <point x="211" y="619"/>
      <point x="92" y="602"/>
      <point x="0" y="581" type="curve"/>
      <point x="-7" y="570"/>
      <point x="-5" y="549"/>
      <point x="0" y="535" type="curve"/>
      <point x="95" y="554"/>
      <point x="210" y="570"/>
      <point x="333" y="570" type="curve" smooth="yes"/>
      <point x="490" y="570"/>
      <point x="710" y="544"/>
      <point x="710" y="455" type="curve"/>
    </contour>
    <contour>
      <point x="699" y="-33"/>
      <point x="730" y="-31"/>
      <point x="752" y="-26" type="curve"/>
      <point x="738" y="132"/>
      <point x="735" y="310"/>
      <point x="760" y="509" type="curve"/>
      <point x="741" y="498" type="line"/>
      <point x="712" y="494" type="line"/>
      <point x="687" y="265"/>
      <point x="687" y="112"/>
      <point x="686" y="-32" type="curve"/>
    </contour>
    <contour>
      <point x="762" y="502"/>
      <point x="788" y="521"/>
      <point x="836" y="535" type="curve"/>
      <point x="840" y="548"/>
      <point x="841" y="571"/>
      <point x="836" y="581" type="curve"/>
      <point x="779" y="566"/>
      <point x="728" y="540"/>
      <point x="717" y="506" type="curve"/>
      <point x="753" y="481" type="line"/>
    </contour>
    <contour>
      <point x="528" y="-16"/>
      <point x="548" y="-13"/>
      <point x="562" y="-4" type="curve"/>
      <point x="540" y="77"/>
      <point x="536" y="208"/>
      <point x="536" y="295" type="curve" smooth="yes"/>
      <point x="536" y="409"/>
      <point x="544" y="522"/>
      <point x="565" y="584" type="curve"/>
      <point x="520" y="572" type="line"/>
      <point x="499" y="493"/>
      <point x="490" y="338"/>
      <point x="490" y="207" type="curve" smooth="yes"/>
      <point x="490" y="69"/>
      <point x="499" y="22"/>
      <point x="509" y="-16" type="curve"/>
    </contour>
    <contour>
      <point x="523" y="13" type="line"/>
      <point x="486" y="89"/>
      <point x="437" y="147"/>
      <point x="382" y="190" type="curve"/>
      <point x="362" y="155" type="line"/>
      <point x="417" y="115"/>
      <point x="466" y="59"/>
      <point x="509" y="-16" type="curve"/>
    </contour>
    <contour>
      <point x="382" y="92"/>
      <point x="430" y="173"/>
      <point x="430" y="276" type="curve" smooth="yes"/>
      <point x="430" y="383"/>
      <point x="377" y="493"/>
      <point x="291" y="493" type="curve" smooth="yes"/>
      <point x="237" y="493"/>
      <point x="202" y="443"/>
      <point x="202" y="378" type="curve" smooth="yes"/>
      <point x="202" y="354"/>
      <point x="208" y="329"/>
      <point x="217" y="311" type="curve"/>
      <point x="228" y="306"/>
      <point x="250" y="303"/>
      <point x="269" y="303" type="curve"/>
      <point x="255" y="322"/>
      <point x="248" y="351"/>
      <point x="248" y="375" type="curve" smooth="yes"/>
      <point x="248" y="424"/>
      <point x="265" y="453"/>
      <point x="299" y="453" type="curve" smooth="yes"/>
      <point x="352" y="453"/>
      <point x="385" y="383"/>
      <point x="385" y="286" type="curve" smooth="yes"/>
      <point x="385" y="201"/>
      <point x="357" y="144"/>
      <point x="291" y="144" type="curve" smooth="yes"/>
      <point x="185" y="144"/>
      <point x="112" y="288"/>
      <point x="58" y="460" type="curve"/>
      <point x="43" y="454"/>
      <point x="30" y="444"/>
      <point x="19" y="433" type="curve"/>
      <point x="73" y="264"/>
      <point x="159" y="92"/>
      <point x="291" y="92" type="curve" smooth="yes"/>
    </contour>
  </outline>
</glyph>
<glyph name="bn_i" format="1">
  <advance width="497"/>
  <unicode hex="0987"/>
  <outline>
    <contour>
      <point x="458" y="-102"/>
      <point x="469" y="-89"/>
      <point x="478" y="-75" type="curve"/>
      <point x="373" y="27"/>
      <point x="271" y="99"/>
      <point x="166" y="146" type="curve"/>
      <point x="144" y="121" type="line"/>
      <point x="170" y="116"/>
      <point x="196" y="114"/>
      <point x="217" y="114" type="curve" smooth="yes"/>
      <point x="322" y="114"/>
      <point x="391" y="163"/>
      <point x="391" y="258" type="curve" smooth="yes"/>
      <point x="391" y="371"/>
      <point x="294" y="480"/>
      <point x="186" y="480" type="curve" smooth="yes"/>
      <point x="128" y="480"/>
      <point x="85" y="449"/>
      <point x="85" y="392" type="curve" smooth="yes"/>
      <point x="85" y="359"/>
      <point x="99" y="328"/>
      <point x="128" y="295" type="curve"/>
      <point x="144" y="294"/>
      <point x="169" y="297"/>
      <point x="185" y="304" type="curve"/>
      <point x="159" y="328"/>
      <point x="130" y="357"/>
      <point x="130" y="391" type="curve" smooth="yes"/>
      <point x="130" y="420"/>
      <point x="151" y="440"/>
      <point x="190" y="440" type="curve" smooth="yes"/>
      <point x="269" y="440"/>
      <point x="343" y="354"/>
      <point x="343" y="270" type="curve" smooth="yes"/>
      <point x="343" y="203"/>
      <point x="296" y="165"/>
      <point x="214" y="165" type="curve" smooth="yes"/>
      <point x="166" y="165"/>
      <point x="110" y="178"/>
      <point x="49" y="200" type="curve"/>
      <point x="69" y="131" type="line"/>
      <point x="208" y="89"/>
      <point x="327" y="14"/>
      <point x="446" y="-115" type="curve"/>
    </contour>
    <contour>
      <point x="57" y="549"/>
      <point x="149" y="562"/>
      <point x="253" y="562" type="curve" smooth="yes"/>
      <point x="361" y="562"/>
      <point x="447" y="549"/>
      <point x="497" y="535" type="curve"/>
      <point x="499" y="542"/>
      <point x="500" y="552"/>
      <point x="500" y="561" type="curve" smooth="yes"/>
      <point x="500" y="569"/>
      <point x="500" y="576"/>
      <point x="497" y="581" type="curve"/>
      <point x="450" y="598"/>
      <point x="360" y="612"/>
      <point x="254" y="612" type="curve" smooth="yes"/>
      <point x="149" y="612"/>
      <point x="55" y="598"/>
      <point x="0" y="581" type="curve"/>
      <point x="-4" y="576"/>
      <point x="-6" y="569"/>
      <point x="-6" y="560" type="curve" smooth="yes"/>
      <point x="-6" y="552"/>
      <point x="-4" y="543"/>
      <point x="0" y="535" type="curve"/>
    </contour>
    <contour>
      <point x="497" y="581" type="line"/>
      <point x="481" y="673"/>
      <point x="441" y="736"/>
      <point x="342" y="736" type="curve" smooth="yes"/>
      <point x="280" y="736"/>
      <point x="206" y="711"/>
      <point x="158" y="711" type="curve" smooth="yes"/>
      <point x="90" y="711"/>
      <point x="57" y="760"/>
      <point x="26" y="812" type="curve"/>
      <point x="15" y="807"/>
      <point x="-1" y="796"/>
      <point x="-11" y="783" type="curve"/>
      <point x="27" y="713"/>
      <point x="72" y="665"/>
      <point x="156" y="665" type="curve" smooth="yes"/>
      <point x="216" y="665"/>
      <point x="288" y="690"/>
      <point x="345" y="690" type="curve" smooth="yes"/>
      <point x="424" y="690"/>
      <point x="447" y="644"/>
      <point x="463" y="574" type="curve"/>
    </contour>
  </outline>
</glyph>
<glyph name="bn_u" format="1">
  <advance width="556"/>
  <unicode hex="0989"/>
  <outline>
    <contour>
      <point x="556" y="581" type="line"/>
      <point x="544" y="668"/>
      <point x="500" y="743"/>
      <point x="416" y="743" type="curve" smooth="yes"/>
      <point x="353" y="743"/>
      <point x="285" y="718"/>
      <point x="237" y="718" type="curve" smooth="yes"/>
      <point x="177" y="718"/>
      <point x="146" y="757"/>
      <point x="120" y="799" type="curve"/>
      <point x="109" y="794"/>
      <point x="93" y="783"/>
      <point x="83" y="770" type="curve"/>
      <point x="116" y="712"/>
      <point x="159" y="672"/>
      <point x="235" y="672" type="curve" smooth="yes"/>
      <point x="295" y="672"/>
      <point x="352" y="697"/>
      <point x="419" y="697" type="curve" smooth="yes"/>
      <point x="483" y="697"/>
      <point x="511" y="639"/>
      <point x="522" y="574" type="curve"/>
    </contour>
    <component base="bn_dda"/>
  </outline>
</glyph>
<glyph name="bn_ri" format="1">
  <advance width="655"/>
  <unicode hex="098B"/>
  <outline>
    <contour>
      <point x="378" y="11" type="line"/>
      <point x="328" y="156"/>
      <point x="232" y="238"/>
      <point x="132" y="280" type="curve"/>
      <point x="135" y="252" type="line"/>
      <point x="205" y="322"/>
      <point x="342" y="400"/>
      <point x="417" y="424" type="curve"/>
      <point x="424" y="484" type="line"/>
      <point x="302" y="441"/>
      <point x="160" y="356"/>
      <point x="95" y="289" type="curve"/>
      <point x="96" y="268"/>
      <point x="99" y="250"/>
      <point x="117" y="228" type="curve"/>
      <point x="219" y="199"/>
      <point x="302" y="122"/>
      <point x="363" y="-17" type="curve"/>
    </contour>
    <contour>
      <point x="582" y="25" type="line"/>
      <point x="536" y="132"/>
      <point x="470" y="202"/>
      <point x="401" y="244" type="curve"/>
      <point x="398" y="196" type="line"/>
      <point x="462" y="157"/>
      <point x="519" y="94"/>
      <point x="570" y="-6" type="curve"/>
    </contour>
    <contour>
      <point x="378" y="-17"/>
      <point x="394" y="-17"/>
      <point x="405" y="-13" type="curve"/>
      <point x="404" y="8"/>
      <point x="404" y="31"/>
      <point x="404" y="56" type="curve" smooth="yes"/>
      <point x="404" y="233"/>
      <point x="409" y="389"/>
      <point x="460" y="582" type="curve"/>
      <point x="446" y="591"/>
      <point x="427" y="595"/>
      <point x="410" y="595" type="curve"/>
      <point x="400" y="545"/>
      <point x="391" y="503"/>
      <point x="388" y="451" type="curve"/>
      <point x="384" y="425" type="line"/>
      <point x="368" y="312"/>
      <point x="362" y="185"/>
      <point x="362" y="61" type="curve" smooth="yes"/>
      <point x="362" y="20"/>
      <point x="362" y="2"/>
      <point x="363" y="-17" type="curve"/>
    </contour>
    <contour>
      <point x="588" y="-7"/>
      <point x="606" y="-3"/>
      <point x="619" y="5" type="curve"/>
      <point x="588" y="83"/>
      <point x="573" y="185"/>
      <point x="573" y="294" type="curve" smooth="yes"/>
      <point x="573" y="431"/>
      <point x="597" y="530"/>
      <point x="612" y="577" type="curve"/>
      <point x="600" y="582"/>
      <point x="585" y="585"/>
      <point x="570" y="585" type="curve"/>
      <point x="544" y="499"/>
      <point x="532" y="402"/>
      <point x="532" y="287" type="curve" smooth="yes"/>
      <point x="532" y="171"/>
      <point x="544" y="54"/>
      <point x="570" y="-6" type="curve"/>
    </contour>
    <contour>
      <point x="373" y="421" type="line"/>
      <point x="374" y="478"/>
      <point x="344" y="525"/>
      <point x="315" y="547" type="curve"/>
      <point x="279" y="564" type="line"/>
      <point x="243" y="511"/>
      <point x="191" y="483"/>
      <point x="147" y="483" type="curve" smooth="yes"/>
      <point x="114" y="483"/>
      <point x="94" y="499"/>
      <point x="94" y="537" type="curve" smooth="yes"/>
      <point x="94" y="560"/>
      <point x="101" y="583"/>
      <point x="112" y="598" type="curve"/>
      <point x="92" y="599"/>
      <point x="70" y="595"/>
      <point x="55" y="589" type="curve"/>
      <point x="47" y="575"/>
      <point x="42" y="555"/>
      <point x="42" y="533" type="curve" smooth="yes"/>
      <point x="42" y="466"/>
      <point x="88" y="430"/>
      <point x="145" y="430" type="curve" smooth="yes"/>
      <point x="205" y="430"/>
      <point x="265" y="470"/>
      <point x="302" y="527" type="curve"/>
      <point x="269" y="536" type="line"/>
      <point x="305" y="515"/>
      <point x="337" y="480"/>
      <point x="337" y="436" type="curve"/>
    </contour>
  </outline>
</glyph>
<glyph name="bn_li" format="1">
  <advance width="460"/>
  <unicode hex="098C"/>
  <outline>
    <contour>
      <point x="388" y="97"/>
      <point x="418" y="229"/>
      <point x="418" y="327" type="curve" smooth="yes"/>
      <point x="418" y="458"/>
      <point x="365" y="504"/>
      <point x="258" y="527" type="curve" smooth="yes"/>
      <point x="189" y="542" type="line" smooth="yes"/>
      <point x="118" y="557"/>
      <point x="85" y="576"/>
      <point x="67" y="659" type="curve"/>
      <point x="55" y="658"/>
      <point x="38" y="651"/>
      <point x="24" y="641" type="curve"/>
      <point x="45" y="528"/>
      <point x="106" y="514"/>
      <point x="223" y="488" type="curve" smooth="yes"/>
      <point x="329" y="466"/>
      <point x="379" y="454"/>
      <point x="379" y="356" type="curve" smooth="yes"/>
      <point x="379" y="267"/>
      <point x="347" y="102"/>
      <point x="309" y="38" type="curve"/>
      <point x="297" y="-5" type="line"/>
      <point x="311" y="-13"/>
      <point x="327" y="-17"/>
      <point x="346" y="-17" type="curve"/>
    </contour>
    <contour>
      <point x="166" y="-16"/>
      <point x="203" y="10"/>
      <point x="221" y="52" type="curve"/>
      <point x="220" y="69"/>
      <point x="209" y="92"/>
      <point x="200" y="108" type="curve"/>
      <point x="187" y="66"/>
      <point x="164" y="33"/>
      <point x="130" y="33" type="curve" smooth="yes"/>
      <point x="97" y="33"/>
      <point x="68" y="65"/>
      <point x="68" y="127" type="curve" smooth="yes"/>
      <point x="68" y="200"/>
      <point x="108" y="246"/>
      <point x="164" y="246" type="curve" smooth="yes"/>
      <point x="247" y="246"/>
      <point x="302" y="143"/>
      <point x="297" y="-5" type="curve"/>
      <point x="332" y="20" type="line"/>
      <point x="337" y="193"/>
      <point x="257" y="297"/>
      <point x="158" y="297" type="curve" smooth="yes"/>
      <point x="80" y="297"/>
      <point x="23" y="229"/>
      <point x="23" y="136" type="curve" smooth="yes"/>
      <point x="23" y="45"/>
      <point x="77" y="-16"/>
      <point x="131" y="-16" type="curve" smooth="yes"/>
    </contour>
  </outline>
</glyph>
<glyph name="bn_e" format="1">
  <advance width="568"/>
  <unicode hex="098F"/>
  <note>
	uni098F
  </note>
  <outline>
    <contour>
      <point x="444" y="-17"/>
      <point x="461" y="-15"/>
      <point x="476" y="-9" type="curve"/>
      <point x="493" y="125"/>
      <point x="503" y="281"/>
      <point x="503" y="484" type="curve" smooth="yes"/>
      <point x="503" y="570"/>
      <point x="447" y="627"/>
      <point x="383" y="627" type="curve" smooth="yes"/>
      <point x="288" y="627"/>
      <point x="156" y="501"/>
      <point x="156" y="387" type="curve" smooth="yes"/>
      <point x="156" y="320"/>
      <point x="201" y="281"/>
      <point x="263" y="281" type="curve" smooth="yes"/>
      <point x="296" y="281"/>
      <point x="329" y="292"/>
      <point x="354" y="315" type="curve"/>
      <point x="359" y="326"/>
      <point x="360" y="338"/>
      <point x="360" y="349" type="curve" smooth="yes"/>
      <point x="360" y="360"/>
      <point x="359" y="370"/>
      <point x="354" y="377" type="curve"/>
      <point x="338" y="358"/>
      <point x="310" y="331"/>
      <point x="270" y="331" type="curve" smooth="yes"/>
      <point x="237" y="331"/>
      <point x="212" y="349"/>
      <point x="212" y="391" type="curve" smooth="yes"/>
      <point x="212" y="480"/>
      <point x="321" y="585"/>
      <point x="392" y="585" type="curve" smooth="yes"/>
      <point x="429" y="585"/>
      <point x="456" y="555"/>
      <point x="456" y="501" type="curve" smooth="yes"/>
      <point x="456" y="331"/>
      <point x="446" y="137"/>
      <point x="426" y="8" type="curve"/>
      <point x="443" y="13" type="line"/>
      <point x="418" y="89"/>
      <point x="387" y="128"/>
      <point x="332" y="128" type="curve" smooth="yes"/>
      <point x="268" y="128"/>
      <point x="202" y="87"/>
      <point x="145" y="87" type="curve" smooth="yes"/>
      <point x="108" y="87"/>
      <point x="74" y="108"/>
      <point x="74" y="163" type="curve" smooth="yes"/>
      <point x="74" y="196"/>
      <point x="86" y="245"/>
      <point x="105" y="275" type="curve"/>
      <point x="95" y="284"/>
      <point x="83" y="290"/>
      <point x="65" y="291" type="curve"/>
      <point x="44" y="253"/>
      <point x="25" y="201"/>
      <point x="25" y="155" type="curve" smooth="yes"/>
      <point x="25" y="86"/>
      <point x="68" y="34"/>
      <point x="137" y="34" type="curve" smooth="yes"/>
      <point x="205" y="34"/>
      <point x="278" y="75"/>
      <point x="335" y="75" type="curve" smooth="yes"/>
      <point x="391" y="75"/>
      <point x="407" y="27"/>
      <point x="429" y="-17" type="curve"/>
    </contour>
  </outline>
</glyph>
<glyph name="bn_o" format="1">
  <advance width="638"/>
  <unicode hex="0993"/>
  <outline>
    <contour>
      <point x="515" y="-17"/>
      <point x="590" y="66"/>
      <point x="590" y="159" type="curve" smooth="yes"/>
      <point x="590" y="255"/>
      <point x="522" y="315"/>
      <point x="462" y="333" type="curve"/>
      <point x="463" y="300" type="line"/>
      <point x="522" y="326"/>
      <point x="581" y="395"/>
      <point x="581" y="474" type="curve" smooth="yes"/>
      <point x="581" y="565"/>
      <point x="510" y="627"/>
      <point x="417" y="627" type="curve" smooth="yes"/>
      <point x="304" y="627"/>
      <point x="216" y="533"/>
      <point x="218" y="399" type="curve"/>
      <point x="230" y="384"/>
      <point x="259" y="373"/>
      <point x="276" y="373" type="curve"/>
      <point x="274" y="381"/>
      <point x="271" y="399"/>
      <point x="271" y="418" type="curve" smooth="yes"/>
      <point x="271" y="504"/>
      <point x="340" y="585"/>
      <point x="424" y="585" type="curve" smooth="yes"/>
      <point x="496" y="585"/>
      <point x="533" y="548"/>
      <point x="533" y="483" type="curve" smooth="yes"/>
      <point x="533" y="407"/>
      <point x="478" y="350"/>
      <point x="398" y="317" type="curve"/>
      <point x="508" y="307" type="line"/>
      <point x="466" y="337"/>
      <point x="387" y="353"/>
      <point x="348" y="354" type="curve"/>
      <point x="341" y="341"/>
      <point x="339" y="315"/>
      <point x="341" y="299" type="curve"/>
      <point x="454" y="299"/>
      <point x="543" y="277"/>
      <point x="543" y="170" type="curve" smooth="yes"/>
      <point x="543" y="94"/>
      <point x="492" y="37"/>
      <point x="407" y="37" type="curve" smooth="yes"/>
      <point x="260" y="37"/>
      <point x="152" y="189"/>
      <point x="63" y="569" type="curve"/>
      <point x="48" y="562"/>
      <point x="35" y="554"/>
      <point x="22" y="543" type="curve"/>
      <point x="86" y="274"/>
      <point x="183" y="-17"/>
      <point x="401" y="-17" type="curve" smooth="yes"/>
    </contour>
  </outline>
</glyph>
<glyph name="bn_ka" format="1">
  <advance width="590"/>
  <unicode hex="0995"/>
  <outline>
    <contour>
      <point x="270" y="172"/>
      <point x="163" y="255"/>
      <point x="60" y="293" type="curve"/>
      <point x="67" y="269" type="line"/>
      <point x="123" y="342"/>
      <point x="245" y="427"/>
      <point x="314" y="455" type="curve"/>
      <point x="316" y="512" type="line"/>
      <point x="202" y="462"/>
      <point x="77" y="369"/>
      <point x="23" y="299" type="curve"/>
      <point x="26" y="279"/>
      <point x="32" y="262"/>
      <point x="53" y="243" type="curve"/>
      <point x="156" y="217"/>
      <point x="247" y="137"/>
      <point x="324" y="-16" type="curve"/>
      <point x="340" y="13" type="line"/>
    </contour>
    <contour>
      <point x="343" y="-16"/>
      <point x="361" y="-14"/>
      <point x="375" y="-7" type="curve"/>
      <point x="352" y="75"/>
      <point x="331" y="211"/>
      <point x="331" y="418" type="curve" smooth="yes"/>
      <point x="331" y="469"/>
      <point x="333" y="527"/>
      <point x="335" y="573" type="curve"/>
      <point x="295" y="582" type="line"/>
      <point x="291" y="511"/>
      <point x="290" y="423"/>
      <point x="290" y="354" type="curve" smooth="yes"/>
      <point x="290" y="152"/>
      <point x="309" y="61"/>
      <point x="324" y="-16" type="curve"/>
    </contour>
    <contour>
      <point x="517" y="172"/>
      <point x="559" y="232"/>
      <point x="559" y="297" type="curve" smooth="yes"/>
      <point x="559" y="386"/>
      <point x="477" y="467"/>
      <point x="325" y="501" type="curve"/>
      <point x="323" y="449" type="line"/>
      <point x="432" y="429"/>
      <point x="527" y="378"/>
      <point x="527" y="298" type="curve" smooth="yes"/>
      <point x="527" y="248"/>
      <point x="490" y="212"/>
      <point x="430" y="189" type="curve"/>
      <point x="440" y="165"/>
      <point x="457" y="151"/>
      <point x="472" y="147" type="curve"/>
    </contour>
    <contour>
      <point x="79" y="552"/>
      <point x="178" y="567"/>
      <point x="289" y="567" type="curve" smooth="yes"/>
      <point x="399" y="567"/>
      <point x="512" y="552"/>
      <point x="590" y="536" type="curve"/>
      <point x="593" y="546"/>
      <point x="596" y="568"/>
      <point x="590" y="580" type="curve"/>
      <point x="521" y="599"/>
      <point x="405" y="615"/>
      <point x="293" y="615" type="curve" smooth="yes"/>
      <point x="181" y="615"/>
      <point x="77" y="599"/>
      <point x="0" y="580" type="curve"/>
      <point x="-7" y="569"/>
      <point x="-5" y="549"/>
      <point x="0" y="536" type="curve"/>
    </contour>
  </outline>
</glyph>
<glyph name="bn_ga" format="1">
  <advance width="457"/>
  <unicode hex="0997"/>
  <outline>
    <contour>
      <point x="196" y="209"/>
      <point x="273" y="298"/>
      <point x="273" y="373" type="curve" smooth="yes"/>
      <point x="273" y="426"/>
      <point x="231" y="471"/>
      <point x="175" y="471" type="curve" smooth="yes"/>
      <point x="142" y="471"/>
      <point x="98" y="456"/>
      <point x="63" y="429" type="curve"/>
      <point x="93" y="423" type="line"/>
      <point x="88" y="434"/>
      <point x="85" y="448"/>
      <point x="85" y="464" type="curve" smooth="yes"/>
      <point x="85" y="526"/>
      <point x="128" y="558"/>
      <point x="187" y="558" type="curve" smooth="yes"/>
      <point x="262" y="558"/>
      <point x="349" y="485"/>
      <point x="349" y="348" type="curve" smooth="yes"/>
      <point x="349" y="321"/>
      <point x="346" y="283"/>
      <point x="340" y="226" type="curve"/>
      <point x="378" y="278" type="line"/>
      <point x="384" y="469"/>
      <point x="313" y="613"/>
      <point x="188" y="613" type="curve" smooth="yes"/>
      <point x="96" y="613"/>
      <point x="38" y="546"/>
      <point x="38" y="466" type="curve" smooth="yes"/>
      <point x="38" y="446"/>
      <point x="40" y="428"/>
      <point x="44" y="412" type="curve"/>
      <point x="71" y="382" type="line"/>
      <point x="108" y="409"/>
      <point x="151" y="424"/>
      <point x="183" y="424" type="curve" smooth="yes"/>
      <point x="215" y="424"/>
      <point x="233" y="409"/>
      <point x="233" y="380" type="curve" smooth="yes"/>
      <point x="233" y="335"/>
      <point x="174" y="269"/>
      <point x="103" y="203" type="curve"/>
      <point x="114" y="186"/>
      <point x="132" y="169"/>
      <point x="151" y="160" type="curve"/>
    </contour>
    <contour>
      <point x="370" y="104"/>
      <point x="393" y="242"/>
      <point x="393" y="470" type="curve" smooth="yes"/>
      <point x="393" y="494"/>
      <point x="396" y="510"/>
      <point x="413" y="519" type="curve" smooth="yes"/>
      <point x="422" y="524"/>
      <point x="435" y="529"/>
      <point x="457" y="535" type="curve"/>
      <point x="460" y="539"/>
      <point x="462" y="549"/>
      <point x="462" y="559" type="curve" smooth="yes"/>
      <point x="462" y="568"/>
      <point x="460" y="577"/>
      <point x="457" y="581" type="curve"/>
      <point x="423" y="573"/>
      <point x="398" y="564"/>
      <point x="381" y="553" type="curve" smooth="yes"/>
      <point x="361" y="540"/>
      <point x="354" y="522"/>
      <point x="354" y="499" type="curve" smooth="yes"/>
      <point x="354" y="484"/>
      <point x="355" y="472"/>
      <point x="356" y="445" type="curve"/>
      <point x="350" y="416" type="line"/>
      <point x="350" y="222"/>
      <point x="329" y="119"/>
      <point x="284" y="-8" type="curve"/>
      <point x="299" y="-13"/>
      <point x="316" y="-16"/>
      <point x="337" y="-16" type="curve"/>
    </contour>
  </outline>
</glyph>
<glyph name="bn_gha" format="1">
  <advance width="513"/>
  <unicode hex="0998"/>
  <outline>
    <contour>
      <point x="416" y="13" type="line"/>
      <point x="341" y="153"/>
      <point x="234" y="226"/>
      <point x="127" y="259" type="curve"/>
      <point x="132" y="230" type="line"/>
      <point x="279" y="352" type="line"/>
      <point x="278" y="371"/>
      <point x="273" y="390"/>
      <point x="260" y="405" type="curve"/>
      <point x="229" y="378"/>
      <point x="196" y="369"/>
      <point x="174" y="369" type="curve" smooth="yes"/>
      <point x="131" y="369"/>
      <point x="98" y="403"/>
      <point x="98" y="448" type="curve" smooth="yes"/>
      <point x="98" y="488"/>
      <point x="126" y="530"/>
      <point x="207" y="566" type="curve"/>
      <point x="134" y="583" type="line"/>
      <point x="76" y="543"/>
      <point x="47" y="505"/>
      <point x="47" y="453" type="curve" smooth="yes"/>
      <point x="47" y="378"/>
      <point x="102" y="336"/>
      <point x="173" y="332" type="curve" smooth="yes"/>
      <point x="222" y="329"/>
      <point x="248" y="348"/>
      <point x="258" y="355" type="curve"/>
      <point x="212" y="362" type="line"/>
      <point x="88" y="263" type="line"/>
      <point x="90" y="244"/>
      <point x="98" y="226"/>
      <point x="121" y="208" type="curve"/>
      <point x="227" y="185"/>
      <point x="321" y="116"/>
      <point x="403" y="-16" type="curve"/>
    </contour>
    <contour>
      <point x="422" y="-16"/>
      <point x="442" y="-14"/>
      <point x="455" y="-6" type="curve"/>
      <point x="404" y="136"/>
      <point x="397" y="382"/>
      <point x="397" y="412" type="curve" smooth="yes"/>
      <point x="397" y="462"/>
      <point x="399" y="518"/>
      <point x="403" y="562" type="curve"/>
      <point x="354" y="572" type="line"/>
      <point x="352" y="533"/>
      <point x="351" y="458"/>
      <point x="351" y="414" type="curve" smooth="yes"/>
      <point x="351" y="86"/>
      <point x="386" y="34"/>
      <point x="403" y="-16" type="curve"/>
    </contour>
    <contour>
      <point x="58" y="549"/>
      <point x="162" y="562"/>
      <point x="267" y="562" type="curve" smooth="yes"/>
      <point x="375" y="562"/>
      <point x="462" y="549"/>
      <point x="513" y="535" type="curve"/>
      <point x="516" y="546"/>
      <point x="519" y="569"/>
      <point x="513" y="581" type="curve"/>
      <point x="465" y="598"/>
      <point x="375" y="612"/>
      <point x="269" y="612" type="curve" smooth="yes"/>
      <point x="163" y="612"/>
      <point x="56" y="598"/>
      <point x="0" y="581" type="curve"/>
      <point x="-7" y="570"/>
      <point x="-5" y="549"/>
      <point x="0" y="535" type="curve"/>
    </contour>
  </outline>
</glyph>
<glyph name="bn_nga" format="1">
  <advance width="565"/>
  <unicode hex="0999"/>
  <outline>
    <contour>
      <point x="465" y="-27"/>
      <point x="533" y="60"/>
      <point x="533" y="191" type="curve" smooth="yes"/>
      <point x="533" y="262"/>
      <point x="514" y="329"/>
      <point x="488" y="379" type="curve"/>
      <point x="478" y="386"/>
      <point x="465" y="392"/>
      <point x="455" y="394" type="curve"/>
      <point x="404" y="336"/>
      <point x="354" y="290"/>
      <point x="318" y="290" type="curve" smooth="yes"/>
      <point x="282" y="290"/>
      <point x="266" y="311"/>
      <point x="266" y="373" type="curve" smooth="yes"/>
      <point x="266" y="470"/>
      <point x="302" y="587"/>
      <point x="383" y="587" type="curve" smooth="yes"/>
      <point x="419" y="587"/>
      <point x="441" y="567"/>
      <point x="441" y="538" type="curve" smooth="yes"/>
      <point x="441" y="505"/>
      <point x="418" y="482"/>
      <point x="369" y="482" type="curve" smooth="yes"/>
      <point x="299" y="482"/>
      <point x="190" y="533"/>
      <point x="129" y="580" type="curve"/>
      <point x="119" y="565"/>
      <point x="113" y="548"/>
      <point x="107" y="528" type="curve"/>
      <point x="174" y="483"/>
      <point x="288" y="436"/>
      <point x="362" y="436" type="curve" smooth="yes"/>
      <point x="438" y="436"/>
      <point x="484" y="476"/>
      <point x="484" y="534" type="curve" smooth="yes"/>
      <point x="484" y="588"/>
      <point x="439" y="624"/>
      <point x="382" y="624" type="curve" smooth="yes"/>
      <point x="264" y="624"/>
      <point x="220" y="497"/>
      <point x="220" y="374" type="curve" smooth="yes"/>
      <point x="220" y="298"/>
      <point x="265" y="240"/>
      <point x="332" y="243" type="curve" smooth="yes"/>
      <point x="395" y="246"/>
      <point x="446" y="307"/>
      <point x="493" y="361" type="curve"/>
      <point x="458" y="362" type="line"/>
      <point x="476" y="322"/>
      <point x="487" y="268"/>
      <point x="487" y="205" type="curve" smooth="yes"/>
      <point x="487" y="90"/>
      <point x="437" y="28"/>
      <point x="350" y="28" type="curve" smooth="yes"/>
      <point x="225" y="28"/>
      <point x="136" y="136"/>
      <point x="54" y="447" type="curve"/>
      <point x="39" y="442"/>
      <point x="24" y="437"/>
      <point x="10" y="429" type="curve"/>
      <point x="69" y="202"/>
      <point x="154" y="-27"/>
      <point x="350" y="-27" type="curve" smooth="yes"/>
    </contour>
  </outline>
</glyph>
<glyph name="bn_ca" format="1">
  <advance width="426"/>
  <unicode hex="099A"/>
  <outline>
    <contour>
      <point x="294" y="-17"/>
      <point x="390" y="127"/>
      <point x="390" y="285" type="curve" smooth="yes"/>
      <point x="390" y="316"/>
      <point x="386" y="348"/>
      <point x="376" y="373" type="curve"/>
      <point x="288" y="403"/>
      <point x="196" y="446"/>
      <point x="145" y="583" type="curve"/>
      <point x="133" y="538" type="line"/>
      <point x="178" y="422"/>
      <point x="254" y="358"/>
      <point x="356" y="330" type="curve"/>
      <point x="329" y="358" type="line"/>
      <point x="336" y="338"/>
      <point x="339" y="322"/>
      <point x="339" y="296" type="curve" smooth="yes"/>
      <point x="339" y="155"/>
      <point x="256" y="25"/>
      <point x="175" y="25" type="curve" smooth="yes"/>
      <point x="135" y="25"/>
      <point x="114" y="51"/>
      <point x="114" y="130" type="curve" smooth="yes"/>
      <point x="114" y="235"/>
      <point x="138" y="471"/>
      <point x="162" y="602" type="curve"/>
      <point x="113" y="589" type="line"/>
      <point x="104" y="530"/>
      <point x="67" y="284"/>
      <point x="67" y="155" type="curve" smooth="yes"/>
      <point x="67" y="12"/>
      <point x="132" y="-17"/>
      <point x="183" y="-17" type="curve" smooth="yes"/>
    </contour>
    <contour>
      <point x="56" y="549"/>
      <point x="148" y="562"/>
      <point x="219" y="562" type="curve" smooth="yes"/>
      <point x="290" y="562"/>
      <point x="381" y="549"/>
      <point x="426" y="535" type="curve"/>
      <point x="428" y="541"/>
      <point x="429" y="552"/>
      <point x="429" y="562" type="curve" smooth="yes"/>
      <point x="429" y="569"/>
      <point x="429" y="576"/>
      <point x="426" y="581" type="curve"/>
      <point x="384" y="598"/>
      <point x="292" y="612"/>
      <point x="222" y="612" type="curve" smooth="yes"/>
      <point x="152" y="612"/>
      <point x="55" y="598"/>
      <point x="0" y="581" type="curve"/>
      <point x="-3" y="576"/>
      <point x="-5" y="569"/>
      <point x="-5" y="561" type="curve" smooth="yes"/>
      <point x="-5" y="552"/>
      <point x="-3" y="543"/>
      <point x="0" y="535" type="curve"/>
    </contour>
  </outline>
</glyph>
<glyph name="bn_ja" format="1">
  <advance width="678"/>
  <unicode hex="099C"/>
  <outline>
    <contour>
      <point x="416" y="-17"/>
      <point x="474" y="71"/>
      <point x="474" y="204" type="curve" smooth="yes"/>
      <point x="474" y="256"/>
      <point x="465" y="309"/>
      <point x="452" y="354" type="curve"/>
      <point x="443" y="364"/>
      <point x="430" y="375"/>
      <point x="419" y="381" type="curve"/>
      <point x="371" y="335"/>
      <point x="316" y="305"/>
      <point x="278" y="305" type="curve" smooth="yes"/>
      <point x="254" y="305"/>
      <point x="226" y="317"/>
      <point x="226" y="364" type="curve" smooth="yes"/>
      <point x="226" y="423"/>
      <point x="269" y="514"/>
      <point x="313" y="568" type="curve"/>
      <point x="268" y="584" type="line"/>
      <point x="224" y="531"/>
      <point x="180" y="437"/>
      <point x="180" y="372" type="curve" smooth="yes"/>
      <point x="180" y="299"/>
      <point x="236" y="256"/>
      <point x="290" y="256" type="curve" smooth="yes"/>
      <point x="343" y="256"/>
      <point x="399" y="296"/>
      <point x="443" y="338" type="curve"/>
      <point x="415" y="356" type="line"/>
      <point x="425" y="318"/>
      <point x="431" y="268"/>
      <point x="431" y="221" type="curve" smooth="yes"/>
      <point x="431" y="100"/>
      <point x="391" y="38"/>
      <point x="311" y="38" type="curve" smooth="yes"/>
      <point x="200" y="38"/>
      <point x="120" y="154"/>
      <point x="50" y="452" type="curve"/>
      <point x="36" y="446"/>
      <point x="21" y="439"/>
      <point x="9" y="430" type="curve"/>
      <point x="58" y="219"/>
      <point x="135" y="-17"/>
      <point x="309" y="-17" type="curve" smooth="yes"/>
    </contour>
    <contour>
      <point x="586" y="-10"/>
      <point x="611" y="-5"/>
      <point x="626" y="2" type="curve"/>
      <point x="587" y="147"/>
      <point x="579" y="298"/>
      <point x="625" y="434" type="curve"/>
      <point x="619" y="453"/>
      <point x="607" y="471"/>
      <point x="593" y="482" type="curve"/>
      <point x="560" y="464"/>
      <point x="525" y="456"/>
      <point x="493" y="456" type="curve" smooth="yes"/>
      <point x="416" y="456"/>
      <point x="380" y="501"/>
      <point x="347" y="581" type="curve"/>
      <point x="304" y="579" type="line"/>
      <point x="335" y="491"/>
      <point x="394" y="406"/>
      <point x="500" y="406" type="curve" smooth="yes"/>
      <point x="526" y="406"/>
      <point x="560" y="411"/>
      <point x="590" y="426" type="curve"/>
      <point x="578" y="436" type="line"/>
      <point x="534" y="304"/>
      <point x="532" y="124"/>
      <point x="568" y="-10" type="curve"/>
    </contour>
    <contour>
      <point x="84" y="553"/>
      <point x="214" y="569"/>
      <point x="338" y="569" type="curve" smooth="yes"/>
      <point x="458" y="569"/>
      <point x="587" y="553"/>
      <point x="678" y="535" type="curve"/>
      <point x="681" y="546"/>
      <point x="684" y="569"/>
      <point x="678" y="581" type="curve"/>
      <point x="597" y="602"/>
      <point x="464" y="619"/>
      <point x="342" y="619" type="curve" smooth="yes"/>
      <point x="216" y="619"/>
      <point x="82" y="602"/>
      <point x="0" y="581" type="curve"/>
      <point x="-7" y="570"/>
      <point x="-5" y="549"/>
      <point x="0" y="535" type="curve"/>
    </contour>
  </outline>
</glyph>
<glyph name="bn_tta" format="1">
  <advance width="484"/>
  <unicode hex="099F"/>
  <outline>
    <contour>
      <point x="312" y="-17"/>
      <point x="445" y="122"/>
      <point x="445" y="229" type="curve" smooth="yes"/>
      <point x="445" y="300"/>
      <point x="387" y="324"/>
      <point x="285" y="333" type="curve"/>
      <point x="272" y="327"/>
      <point x="255" y="301"/>
      <point x="253" y="285" type="curve"/>
      <point x="339" y="285"/>
      <point x="391" y="274"/>
      <point x="391" y="224" type="curve" smooth="yes"/>
      <point x="391" y="143"/>
      <point x="280" y="24"/>
      <point x="209" y="24" type="curve" smooth="yes"/>
      <point x="172" y="24"/>
      <point x="144" y="54"/>
      <point x="144" y="109" type="curve" smooth="yes"/>
      <point x="144" y="279"/>
      <point x="156" y="473"/>
      <point x="177" y="602" type="curve"/>
      <point x="122" y="588" type="line"/>
      <point x="108" y="461"/>
      <point x="99" y="313"/>
      <point x="99" y="125" type="curve" smooth="yes"/>
      <point x="99" y="41"/>
      <point x="153" y="-17"/>
      <point x="219" y="-17" type="curve" smooth="yes"/>
    </contour>
    <contour>
      <point x="45" y="549"/>
      <point x="129" y="563"/>
      <point x="233" y="563" type="curve" smooth="yes"/>
      <point x="323" y="563"/>
      <point x="422" y="550"/>
      <point x="484" y="536" type="curve"/>
      <point x="486" y="542"/>
      <point x="487" y="550"/>
      <point x="487" y="559" type="curve" smooth="yes"/>
      <point x="487" y="567"/>
      <point x="486" y="574"/>
      <point x="484" y="580" type="curve"/>
      <point x="423" y="598"/>
      <point x="321" y="611"/>
      <point x="230" y="611" type="curve" smooth="yes"/>
      <point x="127" y="611"/>
      <point x="42" y="597"/>
      <point x="0" y="580" type="curve"/>
      <point x="-2" y="573"/>
      <point x="-3" y="565"/>
      <point x="-3" y="556" type="curve" smooth="yes"/>
      <point x="-3" y="549"/>
      <point x="-2" y="542"/>
      <point x="0" y="536" type="curve"/>
    </contour>
    <contour>
      <point x="484" y="580" type="line"/>
      <point x="470" y="671"/>
      <point x="426" y="734"/>
      <point x="336" y="734" type="curve" smooth="yes"/>
      <point x="261" y="734"/>
      <point x="204" y="709"/>
      <point x="140" y="709" type="curve" smooth="yes"/>
      <point x="78" y="709"/>
      <point x="39" y="767"/>
      <point x="14" y="810" type="curve"/>
      <point x="3" y="805"/>
      <point x="-12" y="795"/>
      <point x="-22" y="782" type="curve"/>
      <point x="10" y="722"/>
      <point x="58" y="664"/>
      <point x="139" y="664" type="curve" smooth="yes"/>
      <point x="214" y="664"/>
      <point x="268" y="689"/>
      <point x="339" y="689" type="curve" smooth="yes"/>
      <point x="408" y="689"/>
      <point x="436" y="644"/>
      <point x="451" y="573" type="curve"/>
    </contour>
  </outline>
</glyph>
<glyph name="bn_ttha" format="1">
  <advance width="440"/>
  <unicode hex="09A0"/>
  <outline>
    <contour>
      <point x="323" y="-15"/>
      <point x="405" y="95"/>
      <point x="405" y="236" type="curve" smooth="yes"/>
      <point x="405" y="375"/>
      <point x="328" y="500"/>
      <point x="259" y="593" type="curve"/>
      <point x="216" y="599" type="line"/>
      <point x="294" y="495"/>
      <point x="359" y="382"/>
      <point x="359" y="256" type="curve" smooth="yes"/>
      <point x="359" y="136"/>
      <point x="299" y="38"/>
      <point x="191" y="38" type="curve" smooth="yes"/>
      <point x="103" y="38"/>
      <point x="56" y="93"/>
      <point x="56" y="195" type="curve"/>
      <point x="41" y="168" type="line"/>
      <point x="152" y="212"/>
      <point x="267" y="300"/>
      <point x="267" y="454" type="curve" smooth="yes"/>
      <point x="267" y="508"/>
      <point x="251" y="558"/>
      <point x="217" y="606" type="curve"/>
      <point x="192" y="595" type="line"/>
      <point x="217" y="567"/>
      <point x="234" y="518"/>
      <point x="234" y="467" type="curve" smooth="yes"/>
      <point x="234" y="332"/>
      <point x="116" y="253"/>
      <point x="25" y="222" type="curve"/>
      <point x="24" y="210"/>
      <point x="23" y="199"/>
      <point x="23" y="188" type="curve" smooth="yes"/>
      <point x="23" y="69"/>
      <point x="80" y="-15"/>
      <point x="197" y="-15" type="curve" smooth="yes"/>
    </contour>
    <contour>
      <point x="58" y="549"/>
      <point x="132" y="562"/>
      <point x="220" y="562" type="curve" smooth="yes"/>
      <point x="308" y="562"/>
      <point x="382" y="549"/>
      <point x="440" y="535" type="curve"/>
      <point x="443" y="543"/>
      <point x="445" y="552"/>
      <point x="445" y="561" type="curve" smooth="yes"/>
      <point x="445" y="569"/>
      <point x="443" y="576"/>
      <point x="440" y="581" type="curve"/>
      <point x="383" y="598"/>
      <point x="310" y="612"/>
      <point x="220" y="612" type="curve" smooth="yes"/>
      <point x="130" y="612"/>
      <point x="57" y="598"/>
      <point x="0" y="581" type="curve"/>
      <point x="-3" y="576"/>
      <point x="-5" y="569"/>
      <point x="-5" y="561" type="curve" smooth="yes"/>
      <point x="-5" y="552"/>
      <point x="-3" y="543"/>
      <point x="0" y="535" type="curve"/>
    </contour>
    <contour>
      <point x="258" y="586" type="line"/>
      <point x="221" y="640"/>
      <point x="195" y="689"/>
      <point x="195" y="744" type="curve" smooth="yes"/>
      <point x="195" y="788"/>
      <point x="215" y="840"/>
      <point x="240" y="868" type="curve"/>
      <point x="230" y="880"/>
      <point x="218" y="888"/>
      <point x="204" y="895" type="curve"/>
      <point x="172" y="854"/>
      <point x="152" y="803"/>
      <point x="152" y="752" type="curve" smooth="yes"/>
      <point x="152" y="688"/>
      <point x="181" y="629"/>
      <point x="219" y="578" type="curve"/>
    </contour>
  </outline>
</glyph>
<glyph name="bn_dda" format="1">
  <advance width="556"/>
  <unicode hex="09A1"/>
  <note>
    uni09A1
  </note>
  <outline>
    <contour>
      <point x="467" y="-16"/>
      <point x="535" y="72"/>
      <point x="535" y="204" type="curve" smooth="yes"/>
      <point x="535" y="278"/>
      <point x="516" y="348"/>
      <point x="490" y="400" type="curve"/>
      <point x="480" y="407"/>
      <point x="467" y="413"/>
      <point x="457" y="415" type="curve"/>
      <point x="406" y="352"/>
      <point x="359" y="301"/>
      <point x="323" y="301" type="curve" smooth="yes"/>
      <point x="288" y="301"/>
      <point x="267" y="325"/>
      <point x="267" y="369" type="curve" smooth="yes"/>
      <point x="267" y="428"/>
      <point x="293" y="506"/>
      <point x="314" y="583" type="curve"/>
      <point x="264" y="584" type="line"/>
      <point x="245" y="515"/>
      <point x="222" y="434"/>
      <point x="222" y="376" type="curve" smooth="yes"/>
      <point x="222" y="314"/>
      <point x="265" y="254"/>
      <point x="329" y="254" type="curve" smooth="yes"/>
      <point x="395" y="254"/>
      <point x="447" y="323"/>
      <point x="495" y="382" type="curve"/>
      <point x="457" y="383" type="line"/>
      <point x="476" y="341"/>
      <point x="489" y="284"/>
      <point x="489" y="218" type="curve" smooth="yes"/>
      <point x="489" y="102"/>
      <point x="439" y="39"/>
      <point x="352" y="39" type="curve" smooth="yes"/>
      <point x="226" y="39"/>
      <point x="135" y="148"/>
      <point x="52" y="456" type="curve"/>
      <point x="37" y="449"/>
      <point x="23" y="441"/>
      <point x="10" y="431" type="curve"/>
      <point x="69" y="208"/>
      <point x="155" y="-16"/>
      <point x="352" y="-16" type="curve" smooth="yes"/>
    </contour>
    <contour>
      <point x="70" y="553"/>
      <point x="159" y="567"/>
      <point x="279" y="567" type="curve" smooth="yes"/>
      <point x="394" y="567"/>
      <point x="485" y="554"/>
      <point x="556" y="536" type="curve"/>
      <point x="559" y="543"/>
      <point x="561" y="553"/>
      <point x="561" y="561" type="curve" smooth="yes"/>
      <point x="561" y="568"/>
      <point x="559" y="577"/>
      <point x="556" y="582" type="curve"/>
      <point x="487" y="601"/>
      <point x="397" y="617"/>
      <point x="280" y="617" type="curve" smooth="yes"/>
      <point x="158" y="617"/>
      <point x="68" y="601"/>
      <point x="-1" y="582" type="curve"/>
      <point x="-4" y="576"/>
      <point x="-5" y="568"/>
      <point x="-5" y="561" type="curve" smooth="yes"/>
      <point x="-5" y="552"/>
      <point x="-4" y="544"/>
      <point x="-1" y="536" type="curve"/>
    </contour>
  </outline>
</glyph>
<glyph name="bn_ddha" format="1">
  <advance width="468"/>
  <unicode hex="09A2"/>
  <outline>
    <contour>
      <point x="298" y="-17"/>
      <point x="431" y="122"/>
      <point x="431" y="229" type="curve" smooth="yes"/>
      <point x="431" y="300"/>
      <point x="373" y="325"/>
      <point x="271" y="334" type="curve"/>
      <point x="257" y="328"/>
      <point x="239" y="299"/>
      <point x="237" y="283" type="curve"/>
      <point x="322" y="283"/>
      <point x="374" y="274"/>
      <point x="374" y="223" type="curve" smooth="yes"/>
      <point x="374" y="143"/>
      <point x="266" y="25"/>
      <point x="195" y="25" type="curve" smooth="yes"/>
      <point x="158" y="25"/>
      <point x="130" y="54"/>
      <point x="130" y="109" type="curve" smooth="yes"/>
      <point x="130" y="279"/>
      <point x="142" y="473"/>
      <point x="163" y="602" type="curve"/>
      <point x="107" y="589" type="line"/>
      <point x="93" y="462"/>
      <point x="83" y="313"/>
      <point x="83" y="126" type="curve" smooth="yes"/>
      <point x="83" y="41"/>
      <point x="138" y="-17"/>
      <point x="205" y="-17" type="curve" smooth="yes"/>
    </contour>
    <contour>
      <point x="45" y="548"/>
      <point x="129" y="562"/>
      <point x="233" y="562" type="curve" smooth="yes"/>
      <point x="326" y="562"/>
      <point x="405" y="549"/>
      <point x="468" y="535" type="curve"/>
      <point x="470" y="542"/>
      <point x="471" y="550"/>
      <point x="471" y="559" type="curve" smooth="yes"/>
      <point x="471" y="568"/>
      <point x="470" y="575"/>
      <point x="468" y="581" type="curve"/>
      <point x="406" y="599"/>
      <point x="324" y="612"/>
      <point x="230" y="612" type="curve" smooth="yes"/>
      <point x="127" y="612"/>
      <point x="42" y="598"/>
      <point x="0" y="581" type="curve"/>
      <point x="-3" y="574"/>
      <point x="-4" y="566"/>
      <point x="-4" y="556" type="curve" smooth="yes"/>
      <point x="-4" y="549"/>
      <point x="-2" y="542"/>
      <point x="0" y="535" type="curve"/>
    </contour>
  </outline>
</glyph>
<glyph name="bn_nna" format="1">
  <advance width="481"/>
  <unicode hex="09A3"/>
  <outline>
    <contour>
      <point x="354" y="278" type="line"/>
      <point x="360" y="469"/>
      <point x="293" y="612"/>
      <point x="171" y="612" type="curve" smooth="yes"/>
      <point x="82" y="612"/>
      <point x="28" y="537"/>
      <point x="28" y="447" type="curve" smooth="yes"/>
      <point x="28" y="356"/>
      <point x="82" y="296"/>
      <point x="153" y="296" type="curve" smooth="yes"/>
      <point x="179" y="296"/>
      <point x="207" y="304"/>
      <point x="228" y="319" type="curve"/>
      <point x="237" y="337"/>
      <point x="239" y="361"/>
      <point x="239" y="383" type="curve"/>
      <point x="217" y="360"/>
      <point x="187" y="347"/>
      <point x="156" y="347" type="curve" smooth="yes"/>
      <point x="107" y="347"/>
      <point x="67" y="382"/>
      <point x="67" y="450" type="curve" smooth="yes"/>
      <point x="67" y="525"/>
      <point x="117" y="560"/>
      <point x="169" y="560" type="curve" smooth="yes"/>
      <point x="245" y="560"/>
      <point x="326" y="486"/>
      <point x="326" y="348" type="curve" smooth="yes"/>
      <point x="326" y="321"/>
      <point x="323" y="283"/>
      <point x="317" y="226" type="curve"/>
    </contour>
    <contour>
      <point x="340" y="93"/>
      <point x="368" y="235"/>
      <point x="368" y="435" type="curve" smooth="yes"/>
      <point x="368" y="473"/>
      <point x="367" y="482"/>
      <point x="366" y="506" type="curve"/>
      <point x="330" y="494" type="line"/>
      <point x="330" y="479"/>
      <point x="331" y="467"/>
      <point x="332" y="445" type="curve"/>
      <point x="327" y="415" type="line"/>
      <point x="327" y="212"/>
      <point x="306" y="121"/>
      <point x="249" y="-1" type="curve"/>
      <point x="263" y="-10"/>
      <point x="279" y="-16"/>
      <point x="299" y="-16" type="curve"/>
    </contour>
    <contour>
      <point x="367" y="488"/>
      <point x="372" y="499"/>
      <point x="390" y="507" type="curve"/>
      <point x="371" y="517" type="line"/>
      <point x="343" y="485" type="line"/>
      <point x="367" y="474" type="line"/>
    </contour>
    <contour>
      <point x="389" y="509"/>
      <point x="444" y="528"/>
      <point x="481" y="536" type="curve"/>
      <point x="486" y="543"/>
      <point x="489" y="552"/>
      <point x="489" y="561" type="curve" smooth="yes"/>
      <point x="489" y="568"/>
      <point x="487" y="575"/>
      <point x="481" y="580" type="curve"/>
      <point x="424" y="568"/>
      <point x="378" y="552"/>
      <point x="363" y="545" type="curve" smooth="yes"/>
      <point x="337" y="533"/>
      <point x="330" y="513"/>
      <point x="330" y="494" type="curve"/>
      <point x="358" y="492" type="line"/>
    </contour>
  </outline>
</glyph>
<glyph name="bn_ta" format="1">
  <advance width="578"/>
  <unicode hex="09A4"/>
  <outline>
    <contour>
      <point x="477" y="-111"/>
      <point x="542" y="-13"/>
      <point x="542" y="144" type="curve" smooth="yes"/>
      <point x="542" y="327"/>
      <point x="454" y="462"/>
      <point x="354" y="462" type="curve" smooth="yes"/>
      <point x="287" y="462"/>
      <point x="246" y="402"/>
      <point x="246" y="323" type="curve" smooth="yes"/>
      <point x="246" y="265"/>
      <point x="266" y="204"/>
      <point x="294" y="165" type="curve"/>
      <point x="300" y="164"/>
      <point x="308" y="164"/>
      <point x="312" y="164" type="curve" smooth="yes"/>
      <point x="328" y="164"/>
      <point x="341" y="170"/>
      <point x="352" y="178" type="curve"/>
      <point x="317" y="212"/>
      <point x="297" y="269"/>
      <point x="297" y="326" type="curve" smooth="yes"/>
      <point x="297" y="381"/>
      <point x="316" y="421"/>
      <point x="361" y="421" type="curve" smooth="yes"/>
      <point x="431" y="421"/>
      <point x="495" y="322"/>
      <point x="495" y="156" type="curve" smooth="yes"/>
      <point x="495" y="14"/>
      <point x="448" y="-60"/>
      <point x="364" y="-60" type="curve" smooth="yes"/>
      <point x="236" y="-60"/>
      <point x="135" y="110"/>
      <point x="62" y="436" type="curve"/>
      <point x="47" y="428"/>
      <point x="34" y="419"/>
      <point x="21" y="408" type="curve"/>
      <point x="72" y="195"/>
      <point x="166" y="-111"/>
      <point x="364" y="-111" type="curve" smooth="yes"/>
    </contour>
    <contour>
      <point x="71" y="550"/>
      <point x="163" y="563"/>
      <point x="288" y="563" type="curve" smooth="yes"/>
      <point x="413" y="563"/>
      <point x="506" y="550"/>
      <point x="578" y="536" type="curve"/>
      <point x="585" y="547"/>
      <point x="584" y="569"/>
      <point x="578" y="580" type="curve"/>
      <point x="507" y="597"/>
      <point x="414" y="611"/>
      <point x="288" y="611" type="curve" smooth="yes"/>
      <point x="162" y="611"/>
      <point x="69" y="597"/>
      <point x="-1" y="580" type="curve"/>
      <point x="-6" y="570"/>
      <point x="-6" y="545"/>
      <point x="-1" y="536" type="curve"/>
    </contour>
  </outline>
</glyph>
<glyph name="bn_tha" format="1">
  <advance width="507"/>
  <unicode hex="09A5"/>
  <outline>
    <contour>
      <point x="342" y="13" type="line"/>
      <point x="301" y="141"/>
      <point x="227" y="250"/>
      <point x="111" y="278" type="curve"/>
      <point x="116" y="241" type="line"/>
      <point x="180" y="277" type="line" smooth="yes"/>
      <point x="266" y="326"/>
      <point x="319" y="386"/>
      <point x="319" y="465" type="curve" smooth="yes"/>
      <point x="319" y="548"/>
      <point x="262" y="615"/>
      <point x="175" y="615" type="curve" smooth="yes"/>
      <point x="85" y="615"/>
      <point x="34" y="547"/>
      <point x="34" y="481" type="curve" smooth="yes"/>
      <point x="34" y="438"/>
      <point x="53" y="402"/>
      <point x="79" y="380" type="curve"/>
      <point x="97" y="385"/>
      <point x="121" y="394"/>
      <point x="132" y="408" type="curve"/>
      <point x="107" y="421"/>
      <point x="93" y="449"/>
      <point x="93" y="485" type="curve" smooth="yes"/>
      <point x="93" y="527"/>
      <point x="118" y="566"/>
      <point x="177" y="566" type="curve" smooth="yes"/>
      <point x="234" y="566"/>
      <point x="275" y="531"/>
      <point x="275" y="480" type="curve" smooth="yes"/>
      <point x="275" y="418"/>
      <point x="239" y="376"/>
      <point x="159" y="328" type="curve" smooth="yes"/>
      <point x="82" y="282" type="line"/>
      <point x="82" y="262"/>
      <point x="92" y="240"/>
      <point x="108" y="228" type="curve"/>
      <point x="204" y="205"/>
      <point x="262" y="131"/>
      <point x="314" y="-1" type="curve"/>
    </contour>
    <contour>
      <point x="415" y="105"/>
      <point x="440" y="284"/>
      <point x="440" y="467" type="curve" smooth="yes"/>
      <point x="440" y="495"/>
      <point x="441" y="508"/>
      <point x="459" y="518" type="curve" smooth="yes"/>
      <point x="468" y="523"/>
      <point x="483" y="529"/>
      <point x="507" y="535" type="curve"/>
      <point x="510" y="539"/>
      <point x="512" y="549"/>
      <point x="512" y="559" type="curve" smooth="yes"/>
      <point x="512" y="568"/>
      <point x="510" y="577"/>
      <point x="507" y="581" type="curve"/>
      <point x="472" y="572"/>
      <point x="445" y="563"/>
      <point x="426" y="551" type="curve" smooth="yes"/>
      <point x="405" y="538"/>
      <point x="396" y="518"/>
      <point x="396" y="494" type="curve"/>
      <point x="396" y="483"/>
      <point x="398" y="451"/>
      <point x="398" y="425" type="curve" smooth="yes"/>
      <point x="398" y="267"/>
      <point x="380" y="125"/>
      <point x="332" y="24" type="curve"/>
      <point x="314" y="-1" type="line"/>
      <point x="327" y="-11"/>
      <point x="346" y="-18"/>
      <point x="366" y="-18" type="curve"/>
    </contour>
  </outline>
</glyph>
<glyph name="bn_da" format="1">
  <advance width="477"/>
  <unicode hex="09A6"/>
  <outline>
    <contour>
      <point x="380" y="-16"/>
      <point x="394" y="-13"/>
      <point x="402" y="-7" type="curve"/>
      <point x="367" y="151"/>
      <point x="371" y="299"/>
      <point x="409" y="422" type="curve"/>
      <point x="398" y="441"/>
      <point x="385" y="455"/>
      <point x="365" y="465" type="curve"/>
      <point x="273" y="405"/>
      <point x="181" y="311"/>
      <point x="96" y="179" type="curve"/>
      <point x="122" y="184" type="line"/>
      <point x="157" y="298"/>
      <point x="171" y="470"/>
      <point x="165" y="584" type="curve"/>
      <point x="131" y="578" type="line"/>
      <point x="129" y="445"/>
      <point x="104" y="284"/>
      <point x="65" y="145" type="curve"/>
      <point x="76" y="133"/>
      <point x="99" y="123"/>
      <point x="116" y="120" type="curve"/>
      <point x="175" y="226"/>
      <point x="278" y="346"/>
      <point x="379" y="413" type="curve"/>
      <point x="351" y="424" type="line"/>
      <point x="321" y="280"/>
      <point x="330" y="127"/>
      <point x="370" y="-16" type="curve"/>
    </contour>
    <contour>
      <point x="61" y="549"/>
      <point x="162" y="562"/>
      <point x="257" y="562" type="curve" smooth="yes"/>
      <point x="353" y="562"/>
      <point x="432" y="549"/>
      <point x="477" y="535" type="curve"/>
      <point x="480" y="546"/>
      <point x="483" y="569"/>
      <point x="477" y="581" type="curve"/>
      <point x="435" y="598"/>
      <point x="354" y="612"/>
      <point x="261" y="612" type="curve" smooth="yes"/>
      <point x="165" y="612"/>
      <point x="60" y="598"/>
      <point x="0" y="581" type="curve"/>
      <point x="-7" y="570"/>
      <point x="-5" y="549"/>
      <point x="0" y="535" type="curve"/>
    </contour>
  </outline>
</glyph>
<glyph name="bn_na" format="1">
  <advance width="497"/>
  <unicode hex="09A8"/>
  <outline>
    <contour>
      <point x="338" y="248" type="line"/>
      <point x="313" y="322"/>
      <point x="235" y="416"/>
      <point x="145" y="416" type="curve" smooth="yes"/>
      <point x="74" y="416"/>
      <point x="23" y="373"/>
      <point x="23" y="294" type="curve" smooth="yes"/>
      <point x="23" y="228"/>
      <point x="74" y="177"/>
      <point x="136" y="177" type="curve" smooth="yes"/>
      <point x="156" y="177"/>
      <point x="175" y="182"/>
      <point x="190" y="190" type="curve"/>
      <point x="190" y="210"/>
      <point x="187" y="235"/>
      <point x="180" y="249" type="curve"/>
      <point x="169" y="239"/>
      <point x="157" y="234"/>
      <point x="142" y="234" type="curve" smooth="yes"/>
      <point x="109" y="234"/>
      <point x="75" y="254"/>
      <point x="75" y="296" type="curve" smooth="yes"/>
      <point x="75" y="337"/>
      <point x="97" y="364"/>
      <point x="146" y="364" type="curve" smooth="yes"/>
      <point x="223" y="364"/>
      <point x="324" y="273"/>
      <point x="322" y="189" type="curve"/>
    </contour>
    <contour>
      <point x="349" y="-16"/>
      <point x="369" y="-15"/>
      <point x="385" y="-10" type="curve"/>
      <point x="372" y="70"/>
      <point x="371" y="190"/>
      <point x="371" y="250" type="curve" smooth="yes"/>
      <point x="371" y="376"/>
      <point x="377" y="465"/>
      <point x="395" y="562" type="curve"/>
      <point x="354" y="572" type="line"/>
      <point x="331" y="454"/>
      <point x="322" y="345"/>
      <point x="322" y="189" type="curve" smooth="yes"/>
      <point x="322" y="75"/>
      <point x="324" y="22"/>
      <point x="327" y="-16" type="curve"/>
    </contour>
    <contour>
      <point x="63" y="550"/>
      <point x="164" y="562"/>
      <point x="267" y="562" type="curve" smooth="yes"/>
      <point x="373" y="562"/>
      <point x="452" y="548"/>
      <point x="497" y="535" type="curve"/>
      <point x="499" y="542"/>
      <point x="500" y="552"/>
      <point x="500" y="561" type="curve" smooth="yes"/>
      <point x="500" y="569"/>
      <point x="500" y="576"/>
      <point x="497" y="581" type="curve"/>
      <point x="455" y="598"/>
      <point x="373" y="612"/>
      <point x="268" y="612" type="curve" smooth="yes"/>
      <point x="161" y="612"/>
      <point x="62" y="598"/>
      <point x="0" y="581" type="curve"/>
      <point x="-3" y="576"/>
      <point x="-5" y="569"/>
      <point x="-5" y="561" type="curve" smooth="yes"/>
      <point x="-5" y="552"/>
      <point x="-3" y="543"/>
      <point x="0" y="535" type="curve"/>
    </contour>
  </outline>
</glyph>
<glyph name="bn_pa" format="1">
  <advance width="520"/>
  <unicode hex="09AA"/>
  <outline>
    <contour>
      <point x="436" y="461"/>
      <point x="366" y="613"/>
      <point x="223" y="613" type="curve" smooth="yes"/>
      <point x="128" y="613"/>
      <point x="51" y="546"/>
      <point x="6" y="475" type="curve"/>
      <point x="10" y="453"/>
      <point x="17" y="433"/>
      <point x="27" y="413" type="curve"/>
      <point x="79" y="398"/>
      <point x="156" y="369"/>
      <point x="156" y="322" type="curve" smooth="yes"/>
      <point x="156" y="304"/>
      <point x="146" y="289"/>
      <point x="132" y="280" type="curve"/>
      <point x="164" y="295" type="line"/>
      <point x="178" y="304"/>
      <point x="188" y="325"/>
      <point x="188" y="344" type="curve" smooth="yes"/>
      <point x="188" y="398"/>
      <point x="106" y="441"/>
      <point x="43" y="465" type="curve"/>
      <point x="55" y="446" type="line"/>
      <point x="107" y="516"/>
      <point x="161" y="561"/>
      <point x="229" y="561" type="curve" smooth="yes"/>
      <point x="319" y="561"/>
      <point x="397" y="481"/>
      <point x="397" y="334" type="curve"/>
      <point x="429" y="268" type="line"/>
    </contour>
    <contour>
      <point x="243" y="293"/>
      <point x="338" y="389"/>
      <point x="391" y="458" type="curve"/>
      <point x="359" y="493" type="line"/>
      <point x="299" y="416"/>
      <point x="190" y="319"/>
      <point x="119" y="271" type="curve"/>
      <point x="129" y="254"/>
      <point x="143" y="240"/>
      <point x="159" y="229" type="curve"/>
    </contour>
    <contour>
      <point x="425" y="-16"/>
      <point x="444" y="-14"/>
      <point x="457" y="-10" type="curve"/>
      <point x="449" y="36"/>
      <point x="443" y="146"/>
      <point x="443" y="255" type="curve" smooth="yes"/>
      <point x="443" y="332"/>
      <point x="446" y="408"/>
      <point x="453" y="466" type="curve" smooth="yes"/>
      <point x="456" y="495"/>
      <point x="461" y="511"/>
      <point x="477" y="520" type="curve" smooth="yes"/>
      <point x="486" y="525"/>
      <point x="504" y="531"/>
      <point x="519" y="535" type="curve"/>
      <point x="522" y="539"/>
      <point x="524" y="549"/>
      <point x="524" y="559" type="curve" smooth="yes"/>
      <point x="524" y="568"/>
      <point x="522" y="577"/>
      <point x="519" y="581" type="curve"/>
      <point x="480" y="572"/>
      <point x="457" y="562"/>
      <point x="445" y="554" type="curve" smooth="yes"/>
      <point x="427" y="542"/>
      <point x="422" y="526"/>
      <point x="417" y="499" type="curve" smooth="yes"/>
      <point x="413" y="477"/>
      <point x="410" y="453"/>
      <point x="408" y="430" type="curve"/>
      <point x="402" y="407" type="line"/>
      <point x="395" y="332"/>
      <point x="394" y="251"/>
      <point x="394" y="184" type="curve" smooth="yes"/>
      <point x="394" y="89"/>
      <point x="396" y="29"/>
      <point x="399" y="-16" type="curve"/>
    </contour>
    <contour>
      <point x="477" y="569" type="line"/>
      <point x="465" y="565"/>
      <point x="460" y="565"/>
      <point x="452" y="563" type="curve" smooth="yes"/>
      <point x="434" y="559"/>
      <point x="424" y="549"/>
      <point x="417" y="499" type="curve"/>
    </contour>
  </outline>
</glyph>
<glyph name="bn_pha" format="1">
  <advance width="640"/>
  <unicode hex="09AB"/>
  <outline>
    <contour>
      <point x="389" y="-16"/>
      <point x="409" y="-14"/>
      <point x="423" y="-6" type="curve"/>
      <point x="397" y="76"/>
      <point x="394" y="208"/>
      <point x="394" y="291" type="curve" smooth="yes"/>
      <point x="394" y="350"/>
      <point x="395" y="397"/>
      <point x="399" y="442" type="curve"/>
      <point x="392" y="435" type="line"/>
      <point x="492" y="417"/>
      <point x="575" y="373"/>
      <point x="575" y="303" type="curve" smooth="yes"/>
      <point x="575" y="256"/>
      <point x="537" y="223"/>
      <point x="476" y="202" type="curve"/>
      <point x="485" y="177"/>
      <point x="502" y="160"/>
      <point x="517" y="156" type="curve"/>
      <point x="566" y="180"/>
      <point x="611" y="239"/>
      <point x="611" y="303" type="curve" smooth="yes"/>
      <point x="611" y="389"/>
      <point x="529" y="473"/>
      <point x="358" y="497" type="curve"/>
      <point x="349" y="406"/>
      <point x="345" y="317"/>
      <point x="345" y="205" type="curve" smooth="yes"/>
      <point x="345" y="78"/>
      <point x="358" y="22"/>
      <point x="369" y="-16" type="curve"/>
    </contour>
    <contour>
      <point x="384" y="13" type="line"/>
      <point x="319" y="155"/>
      <point x="213" y="230"/>
      <point x="103" y="265" type="curve"/>
      <point x="100" y="237" type="line"/>
      <point x="268" y="387" type="line"/>
      <point x="214" y="405" type="line"/>
      <point x="59" y="270" type="line"/>
      <point x="61" y="250"/>
      <point x="68" y="232"/>
      <point x="92" y="214" type="curve"/>
      <point x="203" y="191"/>
      <point x="294" y="119"/>
      <point x="369" y="-16" type="curve"/>
    </contour>
    <contour>
      <point x="268" y="387" type="line"/>
      <point x="228" y="420" type="line" smooth="yes"/>
      <point x="169" y="469"/>
      <point x="98" y="515"/>
      <point x="96" y="558" type="curve"/>
      <point x="28" y="564" type="line"/>
      <point x="28" y="491"/>
      <point x="167" y="433"/>
      <point x="214" y="382" type="curve"/>
    </contour>
    <contour>
      <point x="79" y="552"/>
      <point x="204" y="568"/>
      <point x="328" y="568" type="curve" smooth="yes"/>
      <point x="463" y="568"/>
      <point x="574" y="552"/>
      <point x="640" y="535" type="curve"/>
      <point x="643" y="546"/>
      <point x="646" y="569"/>
      <point x="640" y="581" type="curve"/>
      <point x="577" y="601"/>
      <point x="462" y="618"/>
      <point x="331" y="618" type="curve" smooth="yes"/>
      <point x="205" y="618"/>
      <point x="77" y="601"/>
      <point x="-1" y="581" type="curve"/>
      <point x="-8" y="570"/>
      <point x="-6" y="549"/>
      <point x="-1" y="535" type="curve"/>
    </contour>
  </outline>
</glyph>
<glyph name="bn_ba" format="1">
  <advance width="456"/>
  <unicode hex="09AC"/>
  <outline>
    <contour>
      <point x="351" y="13" type="line"/>
      <point x="287" y="163"/>
      <point x="181" y="242"/>
      <point x="73" y="279" type="curve"/>
      <point x="79" y="252" type="line"/>
      <point x="143" y="330"/>
      <point x="275" y="421"/>
      <point x="349" y="451" type="curve"/>
      <point x="353" y="512" type="line"/>
      <point x="232" y="459"/>
      <point x="96" y="361"/>
      <point x="35" y="285" type="curve"/>
      <point x="37" y="265"/>
      <point x="42" y="247"/>
      <point x="62" y="227" type="curve"/>
      <point x="171" y="203"/>
      <point x="263" y="128"/>
      <point x="336" y="-16" type="curve"/>
    </contour>
    <contour>
      <point x="356" y="-16"/>
      <point x="376" y="-13"/>
      <point x="390" y="-4" type="curve"/>
      <point x="367" y="77"/>
      <point x="363" y="209"/>
      <point x="363" y="291" type="curve" smooth="yes"/>
      <point x="363" y="401"/>
      <point x="369" y="468"/>
      <point x="386" y="562" type="curve"/>
      <point x="345" y="572" type="line"/>
      <point x="325" y="453"/>
      <point x="316" y="341"/>
      <point x="316" y="199" type="curve" smooth="yes"/>
      <point x="316" y="72"/>
      <point x="326" y="22"/>
      <point x="336" y="-16" type="curve"/>
    </contour>
    <contour>
      <point x="59" y="548"/>
      <point x="154" y="561"/>
      <point x="238" y="561" type="curve" smooth="yes"/>
      <point x="315" y="561"/>
      <point x="398" y="548"/>
      <point x="456" y="535" type="curve"/>
      <point x="459" y="546"/>
      <point x="462" y="569"/>
      <point x="456" y="581" type="curve"/>
      <point x="401" y="597"/>
      <point x="317" y="611"/>
      <point x="242" y="611" type="curve" smooth="yes"/>
      <point x="157" y="611"/>
      <point x="58" y="597"/>
      <point x="-1" y="581" type="curve"/>
      <point x="-8" y="570"/>
      <point x="-6" y="549"/>
      <point x="-1" y="535" type="curve"/>
    </contour>
  </outline>
</glyph>
<glyph name="bn_ya" format="1">
  <advance width="490"/>
  <unicode hex="09AF"/>
  <outline>
    <contour>
      <point x="381" y="13" type="line"/>
      <point x="318" y="153"/>
      <point x="214" y="227"/>
      <point x="107" y="261" type="curve"/>
      <point x="104" y="233" type="line"/>
      <point x="268" y="387" type="line"/>
      <point x="214" y="405" type="line"/>
      <point x="61" y="265" type="line"/>
      <point x="63" y="245"/>
      <point x="71" y="228"/>
      <point x="96" y="210" type="curve"/>
      <point x="204" y="187"/>
      <point x="293" y="117"/>
      <point x="366" y="-16" type="curve"/>
    </contour>
    <contour>
      <point x="268" y="387" type="line"/>
      <point x="228" y="420" type="line" smooth="yes"/>
      <point x="169" y="469"/>
      <point x="98" y="515"/>
      <point x="96" y="558" type="curve"/>
      <point x="28" y="564" type="line"/>
      <point x="28" y="491"/>
      <point x="167" y="433"/>
      <point x="214" y="382" type="curve"/>
    </contour>
    <contour>
      <point x="386" y="-16"/>
      <point x="406" y="-13"/>
      <point x="420" y="-4" type="curve"/>
      <point x="397" y="77"/>
      <point x="394" y="209"/>
      <point x="394" y="291" type="curve" smooth="yes"/>
      <point x="394" y="401"/>
      <point x="399" y="468"/>
      <point x="416" y="562" type="curve"/>
      <point x="367" y="572" type="line"/>
      <point x="351" y="453"/>
      <point x="345" y="347"/>
      <point x="345" y="205" type="curve" smooth="yes"/>
      <point x="345" y="78"/>
      <point x="356" y="22"/>
      <point x="366" y="-16" type="curve"/>
    </contour>
    <contour>
      <point x="62" y="549"/>
      <point x="158" y="562"/>
      <point x="258" y="562" type="curve" smooth="yes"/>
      <point x="347" y="562"/>
      <point x="428" y="549"/>
      <point x="490" y="535" type="curve"/>
      <point x="493" y="546"/>
      <point x="496" y="569"/>
      <point x="490" y="581" type="curve"/>
      <point x="429" y="598"/>
      <point x="344" y="612"/>
      <point x="261" y="612" type="curve" smooth="yes"/>
      <point x="159" y="612"/>
      <point x="60" y="598"/>
      <point x="-1" y="581" type="curve"/>
      <point x="-8" y="570"/>
      <point x="-6" y="549"/>
      <point x="-1" y="535" type="curve"/>
    </contour>
  </outline>
</glyph>
<glyph name="bn_ra" format="1">
  <advance width="456"/>
  <unicode hex="09B0"/>
  <outline>
    <contour>
      <point x="207" y="42"/>
      <point x="190" y="62"/>
      <point x="166" y="62" type="curve" smooth="yes"/>
      <point x="146" y="62"/>
      <point x="130" y="46"/>
      <point x="130" y="26" type="curve" smooth="yes"/>
      <point x="130" y="3"/>
      <point x="146" y="-17"/>
      <point x="171" y="-17" type="curve" smooth="yes"/>
      <point x="192" y="-17"/>
      <point x="207" y="-2"/>
      <point x="207" y="18" type="curve" smooth="yes"/>
    </contour>
    <component base="bn_ba"/>
  </outline>
</glyph>
<glyph name="bn_sha" format="1">
  <advance width="510"/>
  <unicode hex="09B6"/>
  <outline>
    <contour>
      <point x="437" y="169"/>
      <point x="439" y="276"/>
      <point x="442" y="482" type="curve" smooth="yes"/>
      <point x="442" y="501"/>
      <point x="446" y="509"/>
      <point x="462" y="518" type="curve" smooth="yes"/>
      <point x="471" y="523"/>
      <point x="486" y="529"/>
      <point x="510" y="535" type="curve"/>
      <point x="513" y="539"/>
      <point x="515" y="549"/>
      <point x="515" y="559" type="curve" smooth="yes"/>
      <point x="515" y="568"/>
      <point x="513" y="577"/>
      <point x="510" y="581" type="curve"/>
      <point x="474" y="572"/>
      <point x="447" y="563"/>
      <point x="429" y="551" type="curve" smooth="yes"/>
      <point x="409" y="538"/>
      <point x="401" y="520"/>
      <point x="401" y="507" type="curve" smooth="yes"/>
      <point x="401" y="435" type="line"/>
      <point x="394" y="416" type="line"/>
      <point x="394" y="216"/>
      <point x="376" y="117"/>
      <point x="335" y="-7" type="curve"/>
      <point x="349" y="-13"/>
      <point x="372" y="-16"/>
      <point x="396" y="-16" type="curve"/>
    </contour>
    <contour>
      <point x="169" y="289"/>
      <point x="200" y="367"/>
      <point x="200" y="437" type="curve" smooth="yes"/>
      <point x="200" y="467"/>
      <point x="194" y="495"/>
      <point x="185" y="517" type="curve"/>
      <point x="155" y="504" type="line"/>
      <point x="162" y="487"/>
      <point x="165" y="463"/>
      <point x="165" y="441" type="curve" smooth="yes"/>
      <point x="165" y="379"/>
      <point x="143" y="331"/>
      <point x="109" y="331" type="curve" smooth="yes"/>
      <point x="91" y="331"/>
      <point x="78" y="341"/>
      <point x="78" y="371" type="curve" smooth="yes"/>
      <point x="78" y="424"/>
      <point x="118" y="493"/>
      <point x="177" y="491" type="curve"/>
      <point x="184" y="509" type="line"/>
      <point x="161" y="525" type="line"/>
      <point x="76" y="509"/>
      <point x="36" y="432"/>
      <point x="36" y="368" type="curve" smooth="yes"/>
      <point x="36" y="311"/>
      <point x="69" y="289"/>
      <point x="105" y="289" type="curve" smooth="yes"/>
    </contour>
    <contour>
      <point x="196" y="532"/>
      <point x="163" y="596"/>
      <point x="92" y="596" type="curve" smooth="yes"/>
      <point x="70" y="596"/>
      <point x="29" y="589"/>
      <point x="0" y="581" type="curve"/>
      <point x="-3" y="576"/>
      <point x="-5" y="569"/>
      <point x="-5" y="560" type="curve" smooth="yes"/>
      <point x="-5" y="552"/>
      <point x="-3" y="543"/>
      <point x="0" y="535" type="curve"/>
      <point x="21" y="541"/>
      <point x="68" y="549"/>
      <point x="90" y="549" type="curve" smooth="yes"/>
      <point x="147" y="549"/>
      <point x="169" y="506"/>
      <point x="169" y="456" type="curve"/>
      <point x="196" y="437" type="line"/>
    </contour>
    <contour>
      <point x="302" y="292"/>
      <point x="327" y="327"/>
      <point x="327" y="379" type="curve" smooth="yes"/>
      <point x="327" y="454"/>
      <point x="275" y="517"/>
      <point x="216" y="527" type="curve"/>
      <point x="185" y="498" type="line"/>
      <point x="241" y="498"/>
      <point x="289" y="447"/>
      <point x="289" y="381" type="curve" smooth="yes"/>
      <point x="289" y="350"/>
      <point x="280" y="335"/>
      <point x="260" y="335" type="curve" smooth="yes"/>
      <point x="226" y="335"/>
      <point x="207" y="381"/>
      <point x="207" y="434" type="curve" smooth="yes"/>
      <point x="207" y="464"/>
      <point x="214" y="492"/>
      <point x="225" y="513" type="curve"/>
      <point x="190" y="533" type="line"/>
      <point x="176" y="506"/>
      <point x="167" y="470"/>
      <point x="167" y="429" type="curve" smooth="yes"/>
      <point x="167" y="350"/>
      <point x="199" y="292"/>
      <point x="257" y="292" type="curve" smooth="yes"/>
    </contour>
    <contour>
      <point x="416" y="473"/>
      <point x="369" y="609"/>
      <point x="279" y="609" type="curve" smooth="yes"/>
      <point x="226" y="609"/>
      <point x="190" y="561"/>
      <point x="178" y="497" type="curve"/>
      <point x="216" y="498" type="line"/>
      <point x="228" y="532"/>
      <point x="251" y="555"/>
      <point x="281" y="555" type="curve" smooth="yes"/>
      <point x="337" y="555"/>
      <point x="394" y="477"/>
      <point x="394" y="339" type="curve"/>
      <point x="418" y="311" type="line"/>
    </contour>
  </outline>
</glyph>
<glyph name="bn_ssa" format="1">
  <advance width="524"/>
  <unicode hex="09B7"/>
  <outline>
    <contour>
      <point x="382" y="13" type="line"/>
      <point x="320" y="156"/>
      <point x="218" y="230"/>
      <point x="113" y="264" type="curve"/>
      <point x="111" y="237" type="line"/>
      <point x="260" y="397" type="line"/>
      <point x="205" y="415" type="line"/>
      <point x="66" y="268" type="line"/>
      <point x="69" y="249"/>
      <point x="77" y="231"/>
      <point x="102" y="213" type="curve"/>
      <point x="208" y="189"/>
      <point x="296" y="120"/>
      <point x="367" y="-16" type="curve"/>
    </contour>
    <contour>
      <point x="372" y="362" type="line"/>
      <point x="276" y="409" type="line" smooth="yes"/>
      <point x="169" y="462"/>
      <point x="100" y="513"/>
      <point x="97" y="558" type="curve"/>
      <point x="31" y="563" type="line"/>
      <point x="31" y="508"/>
      <point x="108" y="448"/>
      <point x="190" y="408" type="curve" smooth="yes"/>
      <point x="362" y="323" type="line"/>
    </contour>
    <contour>
      <point x="386" y="-16"/>
      <point x="405" y="-14"/>
      <point x="419" y="-6" type="curve"/>
      <point x="397" y="76"/>
      <point x="395" y="208"/>
      <point x="395" y="291" type="curve" smooth="yes"/>
      <point x="395" y="401"/>
      <point x="401" y="468"/>
      <point x="417" y="562" type="curve"/>
      <point x="368" y="572" type="line"/>
      <point x="353" y="453"/>
      <point x="346" y="347"/>
      <point x="346" y="205" type="curve" smooth="yes"/>
      <point x="346" y="78"/>
      <point x="357" y="22"/>
      <point x="367" y="-16" type="curve"/>
    </contour>
    <contour>
      <point x="63" y="549"/>
      <point x="164" y="562"/>
      <point x="265" y="562" type="curve" smooth="yes"/>
      <point x="380" y="562"/>
      <point x="472" y="549"/>
      <point x="524" y="535" type="curve"/>
      <point x="527" y="546"/>
      <point x="530" y="569"/>
      <point x="524" y="581" type="curve"/>
      <point x="475" y="598"/>
      <point x="380" y="612"/>
      <point x="268" y="612" type="curve" smooth="yes"/>
      <point x="166" y="612"/>
      <point x="62" y="598"/>
      <point x="0" y="581" type="curve"/>
      <point x="-7" y="570"/>
      <point x="-5" y="549"/>
      <point x="0" y="535" type="curve"/>
    </contour>
  </outline>
</glyph>
<glyph name="bn_sa" format="1">
  <advance width="505"/>
  <unicode hex="09B8"/>
  <outline>
    <contour>
      <point x="194" y="109"/>
      <point x="219" y="321"/>
      <point x="296" y="321" type="curve" smooth="yes"/>
      <point x="328" y="321"/>
      <point x="346" y="296"/>
      <point x="346" y="267" type="curve"/>
      <point x="368" y="301" type="line"/>
      <point x="351" y="337"/>
      <point x="327" y="372"/>
      <point x="286" y="372" type="curve" smooth="yes"/>
      <point x="189" y="372"/>
      <point x="151" y="165"/>
      <point x="85" y="165" type="curve" smooth="yes"/>
      <point x="66" y="165"/>
      <point x="41" y="171"/>
      <point x="25" y="188" type="curve"/>
      <point x="24" y="164"/>
      <point x="26" y="143"/>
      <point x="33" y="123" type="curve"/>
      <point x="49" y="113"/>
      <point x="65" y="109"/>
      <point x="81" y="109" type="curve" smooth="yes"/>
    </contour>
    <contour>
      <point x="201" y="261" type="line"/>
      <point x="212" y="282"/>
      <point x="223" y="312"/>
      <point x="223" y="343" type="curve" smooth="yes"/>
      <point x="223" y="424"/>
      <point x="101" y="496"/>
      <point x="101" y="555" type="curve"/>
      <point x="27" y="568" type="line"/>
      <point x="27" y="477"/>
      <point x="181" y="449"/>
      <point x="181" y="332" type="curve" smooth="yes"/>
      <point x="181" y="298"/>
      <point x="173" y="262"/>
      <point x="151" y="228" type="curve"/>
    </contour>
    <contour>
      <point x="373" y="-12"/>
      <point x="392" y="-11"/>
      <point x="407" y="-6" type="curve"/>
      <point x="396" y="75"/>
      <point x="395" y="209"/>
      <point x="395" y="291" type="curve" smooth="yes"/>
      <point x="395" y="401"/>
      <point x="399" y="468"/>
      <point x="413" y="562" type="curve"/>
      <point x="364" y="572" type="line"/>
      <point x="351" y="453"/>
      <point x="346" y="347"/>
      <point x="346" y="205" type="curve" smooth="yes"/>
      <point x="346" y="80"/>
      <point x="350" y="25"/>
      <point x="353" y="-12" type="curve"/>
    </contour>
    <contour>
      <point x="56" y="550"/>
      <point x="164" y="563"/>
      <point x="258" y="563" type="curve" smooth="yes"/>
      <point x="352" y="563"/>
      <point x="463" y="550"/>
      <point x="508" y="535" type="curve"/>
      <point x="510" y="541"/>
      <point x="511" y="552"/>
      <point x="511" y="562" type="curve" smooth="yes"/>
      <point x="511" y="569"/>
      <point x="511" y="576"/>
      <point x="508" y="581" type="curve"/>
      <point x="466" y="599"/>
      <point x="351" y="613"/>
      <point x="258" y="613" type="curve" smooth="yes"/>
      <point x="165" y="613"/>
      <point x="55" y="599"/>
      <point x="0" y="581" type="curve"/>
      <point x="-3" y="576"/>
      <point x="-5" y="569"/>
      <point x="-5" y="561" type="curve" smooth="yes"/>
      <point x="-5" y="552"/>
      <point x="-3" y="543"/>
      <point x="0" y="535" type="curve"/>
    </contour>
  </outline>
</glyph>
<glyph name="bn_ha" format="1">
  <advance width="442"/>
  <unicode hex="09B9"/>
  <outline>
    <contour>
      <point x="444" y="-105"/>
      <point x="455" y="-92"/>
      <point x="464" y="-77" type="curve"/>
      <point x="361" y="28"/>
      <point x="251" y="104"/>
      <point x="143" y="152" type="curve"/>
      <point x="129" y="129" type="line"/>
      <point x="155" y="124"/>
      <point x="181" y="122"/>
      <point x="202" y="122" type="curve" smooth="yes"/>
      <point x="307" y="122"/>
      <point x="376" y="173"/>
      <point x="376" y="270" type="curve" smooth="yes"/>
      <point x="376" y="386"/>
      <point x="279" y="498"/>
      <point x="171" y="498" type="curve" smooth="yes"/>
      <point x="113" y="498"/>
      <point x="70" y="466"/>
      <point x="70" y="408" type="curve" smooth="yes"/>
      <point x="70" y="374"/>
      <point x="84" y="342"/>
      <point x="113" y="308" type="curve"/>
      <point x="129" y="307"/>
      <point x="154" y="310"/>
      <point x="170" y="317" type="curve"/>
      <point x="144" y="341"/>
      <point x="115" y="372"/>
      <point x="115" y="407" type="curve" smooth="yes"/>
      <point x="115" y="437"/>
      <point x="136" y="457"/>
      <point x="175" y="457" type="curve" smooth="yes"/>
      <point x="254" y="457"/>
      <point x="328" y="368"/>
      <point x="328" y="281" type="curve" smooth="yes"/>
      <point x="328" y="212"/>
      <point x="281" y="171"/>
      <point x="199" y="171" type="curve" smooth="yes"/>
      <point x="151" y="171"/>
      <point x="95" y="184"/>
      <point x="34" y="207" type="curve"/>
      <point x="54" y="137" type="line"/>
      <point x="193" y="94"/>
      <point x="313" y="15"/>
      <point x="432" y="-118" type="curve"/>
    </contour>
    <contour>
      <point x="58" y="548"/>
      <point x="149" y="561"/>
      <point x="224" y="561" type="curve" smooth="yes"/>
      <point x="302" y="561"/>
      <point x="393" y="548"/>
      <point x="442" y="535" type="curve"/>
      <point x="444" y="542"/>
      <point x="445" y="552"/>
      <point x="445" y="561" type="curve" smooth="yes"/>
      <point x="445" y="569"/>
      <point x="445" y="576"/>
      <point x="442" y="581" type="curve"/>
      <point x="396" y="597"/>
      <point x="301" y="611"/>
      <point x="225" y="611" type="curve" smooth="yes"/>
      <point x="149" y="611"/>
      <point x="56" y="597"/>
      <point x="0" y="581" type="curve"/>
      <point x="-4" y="576"/>
      <point x="-6" y="569"/>
      <point x="-6" y="560" type="curve" smooth="yes"/>
      <point x="-6" y="552"/>
      <point x="-4" y="543"/>
      <point x="0" y="535" type="curve"/>
    </contour>
  </outline>
</glyph>
<glyph name="bn_nukta" format="1">
  <advance width="300"/>
  <unicode hex="09BC"/>
  <outline>
    <contour>
      <point x="201" y="-5"/>
      <point x="181" y="18"/>
      <point x="154" y="18" type="curve" smooth="yes"/>
      <point x="131" y="18"/>
      <point x="112" y="0"/>
      <point x="112" y="-23" type="curve" smooth="yes"/>
      <point x="112" y="-50"/>
      <point x="131" y="-73"/>
      <point x="159" y="-73" type="curve" smooth="yes"/>
      <point x="184" y="-73"/>
      <point x="201" y="-56"/>
      <point x="201" y="-33" type="curve" smooth="yes"/>
    </contour>
  </outline>
</glyph>
<glyph name="bn_aakaar" format="1">
  <advance width="235"/>
  <unicode hex="09BE"/>
  <outline>
    <contour>
      <point x="136" y="110"/>
      <point x="146" y="306"/>
      <point x="146" y="509" type="curve"/>
      <point x="129" y="498" type="line"/>
      <point x="100" y="494" type="line"/>
      <point x="100" y="265"/>
      <point x="87" y="102"/>
      <point x="61" y="-42" type="curve"/>
      <point x="74" y="-47"/>
      <point x="104" y="-51"/>
      <point x="125" y="-51" type="curve"/>
    </contour>
    <contour>
      <point x="143" y="496" type="line"/>
      <point x="118" y="540"/>
      <point x="57" y="564"/>
      <point x="0" y="580" type="curve"/>
      <point x="-4" y="570"/>
      <point x="-5" y="550"/>
      <point x="0" y="536" type="curve"/>
      <point x="60" y="517"/>
      <point x="100" y="496"/>
      <point x="100" y="454" type="curve"/>
    </contour>
    <contour>
      <point x="150" y="505"/>
      <point x="182" y="521"/>
      <point x="235" y="536" type="curve"/>
      <point x="239" y="548"/>
      <point x="239" y="570"/>
      <point x="235" y="580" type="curve"/>
      <point x="174" y="564"/>
      <point x="119" y="539"/>
      <point x="107" y="506" type="curve"/>
      <point x="140" y="484" type="line"/>
    </contour>
  </outline>
</glyph>
<glyph name="bn_ikaar" format="1">
  <advance width="236"/>
  <unicode hex="09BF"/>
  <outline>
    <contour>
      <point x="137" y="-50"/>
      <point x="167" y="-46"/>
      <point x="181" y="-41" type="curve"/>
      <point x="155" y="105"/>
      <point x="143" y="270"/>
      <point x="144" y="503" type="curve"/>
      <point x="138" y="525" type="line"/>
      <point x="117" y="567"/>
      <point x="91" y="615"/>
      <point x="91" y="675" type="curve" smooth="yes"/>
      <point x="91" y="748"/>
      <point x="139" y="790"/>
      <point x="266" y="790" type="curve" smooth="yes"/>
      <point x="395" y="790"/>
      <point x="574" y="735"/>
      <point x="701" y="671" type="curve"/>
      <point x="708" y="682"/>
      <point x="714" y="695"/>
      <point x="717" y="710" type="curve"/>
      <point x="584" y="778"/>
      <point x="398" y="842"/>
      <point x="259" y="842" type="curve" smooth="yes"/>
      <point x="116" y="842"/>
      <point x="44" y="782"/>
      <point x="44" y="691" type="curve" smooth="yes"/>
      <point x="44" y="624"/>
      <point x="75" y="565"/>
      <point x="114" y="509" type="curve"/>
      <point x="113" y="498" type="line"/>
      <point x="96" y="497" type="line"/>
      <point x="96" y="295"/>
      <point x="105" y="111"/>
      <point x="115" y="-50" type="curve"/>
    </contour>
    <contour>
      <point x="131" y="497" type="line"/>
      <point x="109" y="541"/>
      <point x="62" y="559"/>
      <point x="0" y="581" type="curve"/>
      <point x="-4" y="571"/>
      <point x="-5" y="550"/>
      <point x="0" y="535" type="curve"/>
      <point x="59" y="517"/>
      <point x="96" y="495"/>
      <point x="96" y="453" type="curve"/>
    </contour>
    <contour>
      <point x="148" y="504"/>
      <point x="181" y="521"/>
      <point x="236" y="535" type="curve"/>
      <point x="240" y="548"/>
      <point x="241" y="571"/>
      <point x="236" y="581" type="curve"/>
      <point x="174" y="565"/>
      <point x="116" y="540"/>
      <point x="104" y="506" type="curve"/>
      <point x="138" y="483" type="line"/>
    </contour>
  </outline>
</glyph>
<glyph name="bn_ukaar" format="1">
  <advance width="300"/>
  <unicode hex="09C1"/>
  <outline>
    <contour>
      <point x="200" y="-256"/>
      <point x="244" y="-154"/>
      <point x="244" y="-98" type="curve" smooth="yes"/>
      <point x="244" y="-59"/>
      <point x="230" y="-23"/>
      <point x="222" y="-6" type="curve"/>
      <point x="179" y="-6" type="line"/>
      <point x="192" y="-28"/>
      <point x="201" y="-63"/>
      <point x="201" y="-93" type="curve" smooth="yes"/>
      <point x="201" y="-137"/>
      <point x="164" y="-209"/>
      <point x="99" y="-209" type="curve" smooth="yes"/>
      <point x="65" y="-209"/>
      <point x="43" y="-189"/>
      <point x="43" y="-160" type="curve" smooth="yes"/>
      <point x="43" y="-129"/>
      <point x="66" y="-110"/>
      <point x="99" y="-110" type="curve" smooth="yes"/>
      <point x="146" y="-110"/>
      <point x="181" y="-146"/>
      <point x="203" y="-176" type="curve"/>
      <point x="221" y="-132" type="line"/>
      <point x="188" y="-95"/>
      <point x="146" y="-61"/>
      <point x="94" y="-61" type="curve" smooth="yes"/>
      <point x="41" y="-61"/>
      <point x="-3" y="-97"/>
      <point x="-3" y="-162" type="curve" smooth="yes"/>
      <point x="-3" y="-223"/>
      <point x="41" y="-256"/>
      <point x="99" y="-256" type="curve" smooth="yes"/>
    </contour>
    <contour>
      <point x="374" y="-271"/>
      <point x="383" y="-257"/>
      <point x="389" y="-243" type="curve"/>
      <point x="221" y="-124" type="line"/>
      <point x="214" y="-170" type="line"/>
      <point x="361" y="-282" type="line"/>
    </contour>
  </outline>
</glyph>
<glyph name="bn_uukaar" format="1">
  <advance width="600"/>
  <unicode hex="09C2"/>
  <outline>
    <contour>
      <point x="373" y="-270"/>
      <point x="382" y="-256"/>
      <point x="388" y="-243" type="curve"/>
      <point x="231" y="-131" type="line"/>
      <point x="188" y="-174"/>
      <point x="155" y="-195"/>
      <point x="122" y="-195" type="curve" smooth="yes"/>
      <point x="94" y="-195"/>
      <point x="70" y="-180"/>
      <point x="70" y="-148" type="curve" smooth="yes"/>
      <point x="70" y="-104"/>
      <point x="116" y="-55"/>
      <point x="193" y="-32" type="curve" smooth="yes"/>
      <point x="224" y="-23" type="line"/>
      <point x="205" y="0" type="line"/>
      <point x="172" y="8" type="line"/>
      <point x="62" y="-33"/>
      <point x="25" y="-90"/>
      <point x="25" y="-148" type="curve" smooth="yes"/>
      <point x="25" y="-207"/>
      <point x="68" y="-239"/>
      <point x="126" y="-239" type="curve" smooth="yes"/>
      <point x="180" y="-239"/>
      <point x="226" y="-211"/>
      <point x="262" y="-163" type="curve"/>
      <point x="221" y="-175" type="line"/>
      <point x="361" y="-281" type="line"/>
    </contour>
  </outline>
</glyph>
<glyph name="bn_rrikaar" format="1">
  <advance width="300"/>
  <unicode hex="09C4"/>
  <outline>
    <contour>
      <point x="231" y="-271"/>
      <point x="240" y="-257"/>
      <point x="246" y="-243" type="curve"/>
      <point x="99" y="-140" type="line"/>
      <point x="88" y="-157" type="line"/>
      <point x="225" y="-24" type="line"/>
      <point x="206" y="0" type="line"/>
      <point x="171" y="8" type="line"/>
      <point x="171" y="-9" type="line"/>
      <point x="44" y="-133" type="line"/>
      <point x="44" y="-148" type="line"/>
      <point x="218" y="-282" type="line"/>
    </contour>
    <contour>
      <point x="171" y="-349"/>
      <point x="179" y="-335"/>
      <point x="184" y="-322" type="curve"/>
      <point x="62" y="-236" type="line"/>
      <point x="57" y="-253" type="line"/>
      <point x="123" y="-189" type="line"/>
      <point x="77" y="-169" type="line"/>
      <point x="13" y="-232" type="line"/>
      <point x="13" y="-247" type="line"/>
      <point x="158" y="-359" type="line"/>
    </contour>
  </outline>
</glyph>
<glyph name="bn_ekaar" format="1">
  <advance width="244"/>
  <unicode hex="09C7"/>
  <outline>
    <contour>
      <point x="230" y="-63"/>
      <point x="264" y="-39"/>
      <point x="285" y="-1" type="curve"/>
      <point x="285" y="17"/>
      <point x="270" y="41"/>
      <point x="251" y="52" type="curve"/>
      <point x="221" y="0"/>
      <point x="204" y="-19"/>
      <point x="186" y="-19" type="curve" smooth="yes"/>
      <point x="147" y="-19"/>
      <point x="126" y="71"/>
      <point x="126" y="238" type="curve" smooth="yes"/>
      <point x="126" y="439"/>
      <point x="156" y="514"/>
      <point x="244" y="535" type="curve"/>
      <point x="246" y="542"/>
      <point x="247" y="551"/>
      <point x="247" y="559" type="curve" smooth="yes"/>
      <point x="247" y="568"/>
      <point x="246" y="576"/>
      <point x="244" y="581" type="curve"/>
      <point x="180" y="566"/>
      <point x="144" y="544"/>
      <point x="131" y="514" type="curve"/>
      <point x="119" y="512" type="line"/>
      <point x="90" y="465"/>
      <point x="70" y="349"/>
      <point x="70" y="229" type="curve" smooth="yes"/>
      <point x="70" y="52"/>
      <point x="120" y="-63"/>
      <point x="196" y="-63" type="curve" smooth="yes"/>
    </contour>
    <contour>
      <point x="160" y="501" type="line"/>
      <point x="142" y="532"/>
      <point x="76" y="565"/>
      <point x="0" y="581" type="curve"/>
      <point x="-2" y="576"/>
      <point x="-3" y="568"/>
      <point x="-3" y="559" type="curve" smooth="yes"/>
      <point x="-3" y="551"/>
      <point x="-2" y="543"/>
      <point x="0" y="535" type="curve"/>
      <point x="88" y="510"/>
      <point x="125" y="484"/>
      <point x="125" y="448" type="curve"/>
    </contour>
  </outline>
</glyph>
<glyph name="bn_okaar" format="1">
  <advance width="1111"/>
  <unicode hex="09CB"/>
  <outline>
    <contour>
      <point x="370" y="115"/>
      <point x="385" y="131"/>
      <point x="385" y="157" type="curve" smooth="yes"/>
      <point x="385" y="181"/>
      <point x="370" y="197"/>
      <point x="347" y="197" type="curve" smooth="yes"/>
      <point x="323" y="197"/>
      <point x="306" y="180"/>
      <point x="306" y="157" type="curve" smooth="yes"/>
      <point x="306" y="132"/>
      <point x="323" y="115"/>
      <point x="347" y="115" type="curve" smooth="yes"/>
    </contour>
    <contour>
      <point x="464" y="21"/>
      <point x="480" y="37"/>
      <point x="480" y="60" type="curve" smooth="yes"/>
      <point x="480" y="85"/>
      <point x="464" y="101"/>
      <point x="440" y="101" type="curve" smooth="yes"/>
      <point x="417" y="101"/>
      <point x="401" y="85"/>
      <point x="401" y="60" type="curve" smooth="yes"/>
      <point x="401" y="37"/>
      <point x="417" y="21"/>
      <point x="440" y="21" type="curve" smooth="yes"/>
    </contour>
    <contour>
      <point x="337" y="244"/>
      <point x="351" y="260"/>
      <point x="351" y="285" type="curve" smooth="yes"/>
      <point x="351" y="310"/>
      <point x="337" y="325"/>
      <point x="312" y="325" type="curve" smooth="yes"/>
      <point x="287" y="325"/>
      <point x="271" y="309"/>
      <point x="271" y="285" type="curve" smooth="yes"/>
      <point x="271" y="260"/>
      <point x="287" y="244"/>
      <point x="312" y="244" type="curve" smooth="yes"/>
    </contour>
    <contour>
      <point x="597" y="-15"/>
      <point x="612" y="0"/>
      <point x="612" y="25" type="curve" smooth="yes"/>
      <point x="612" y="50"/>
      <point x="597" y="66"/>
      <point x="572" y="66" type="curve" smooth="yes"/>
      <point x="547" y="66"/>
      <point x="533" y="50"/>
      <point x="533" y="25" type="curve" smooth="yes"/>
      <point x="533" y="0"/>
      <point x="547" y="-15"/>
      <point x="572" y="-15" type="curve" smooth="yes"/>
    </contour>
    <contour>
      <point x="727" y="21"/>
      <point x="743" y="37"/>
      <point x="743" y="60" type="curve" smooth="yes"/>
      <point x="743" y="85"/>
      <point x="727" y="101"/>
      <point x="702" y="101" type="curve" smooth="yes"/>
      <point x="678" y="101"/>
      <point x="663" y="85"/>
      <point x="663" y="60" type="curve" smooth="yes"/>
      <point x="663" y="37"/>
      <point x="678" y="21"/>
      <point x="702" y="21" type="curve" smooth="yes"/>
    </contour>
    <contour>
      <point x="464" y="469"/>
      <point x="480" y="484"/>
      <point x="480" y="508" type="curve" smooth="yes"/>
      <point x="480" y="532"/>
      <point x="464" y="549"/>
      <point x="440" y="549" type="curve" smooth="yes"/>
      <point x="417" y="549"/>
      <point x="401" y="532"/>
      <point x="401" y="508" type="curve" smooth="yes"/>
      <point x="401" y="484"/>
      <point x="417" y="469"/>
      <point x="440" y="469" type="curve" smooth="yes"/>
    </contour>
    <contour>
      <point x="823" y="115"/>
      <point x="837" y="131"/>
      <point x="837" y="157" type="curve" smooth="yes"/>
      <point x="837" y="181"/>
      <point x="823" y="197"/>
      <point x="799" y="197" type="curve" smooth="yes"/>
      <point x="776" y="197"/>
      <point x="758" y="180"/>
      <point x="758" y="157" type="curve" smooth="yes"/>
      <point x="758" y="132"/>
      <point x="776" y="115"/>
      <point x="799" y="115" type="curve" smooth="yes"/>
    </contour>
    <contour>
      <point x="597" y="504"/>
      <point x="612" y="519"/>
      <point x="612" y="544" type="curve" smooth="yes"/>
      <point x="612" y="570"/>
      <point x="597" y="585"/>
      <point x="572" y="585" type="curve" smooth="yes"/>
      <point x="547" y="585"/>
      <point x="533" y="570"/>
      <point x="533" y="544" type="curve" smooth="yes"/>
      <point x="533" y="519"/>
      <point x="547" y="504"/>
      <point x="572" y="504" type="curve" smooth="yes"/>
    </contour>
    <contour>
      <point x="858" y="244"/>
      <point x="873" y="260"/>
      <point x="873" y="285" type="curve" smooth="yes"/>
      <point x="873" y="310"/>
      <point x="858" y="325"/>
      <point x="834" y="325" type="curve" smooth="yes"/>
      <point x="810" y="325"/>
      <point x="794" y="309"/>
      <point x="794" y="285" type="curve" smooth="yes"/>
      <point x="794" y="261"/>
      <point x="810" y="244"/>
      <point x="834" y="244" type="curve" smooth="yes"/>
    </contour>
    <contour>
      <point x="823" y="372"/>
      <point x="837" y="388"/>
      <point x="837" y="413" type="curve" smooth="yes"/>
      <point x="837" y="438"/>
      <point x="823" y="453"/>
      <point x="799" y="453" type="curve" smooth="yes"/>
      <point x="776" y="453"/>
      <point x="758" y="436"/>
      <point x="758" y="413" type="curve" smooth="yes"/>
      <point x="758" y="390"/>
      <point x="776" y="372"/>
      <point x="799" y="372" type="curve" smooth="yes"/>
    </contour>
    <contour>
      <point x="727" y="469"/>
      <point x="743" y="484"/>
      <point x="743" y="508" type="curve" smooth="yes"/>
      <point x="743" y="532"/>
      <point x="727" y="549"/>
      <point x="702" y="549" type="curve" smooth="yes"/>
      <point x="678" y="549"/>
      <point x="663" y="532"/>
      <point x="663" y="508" type="curve" smooth="yes"/>
      <point x="663" y="484"/>
      <point x="678" y="469"/>
      <point x="702" y="469" type="curve" smooth="yes"/>
    </contour>
    <contour>
      <point x="369" y="372"/>
      <point x="385" y="389"/>
      <point x="385" y="412" type="curve" smooth="yes"/>
      <point x="385" y="438"/>
      <point x="371" y="453"/>
      <point x="347" y="453" type="curve" smooth="yes"/>
      <point x="323" y="453"/>
      <point x="306" y="437"/>
      <point x="306" y="413" type="curve" smooth="yes"/>
      <point x="306" y="390"/>
      <point x="323" y="372"/>
      <point x="347" y="372" type="curve" smooth="yes"/>
    </contour>
    <component base="bn_ekaar"/>
    <component base="bn_aakaar" xOffset="887"/>
  </outline>
</glyph>
<glyph name="bn_halanth" format="1">
  <advance width="300"/>
  <unicode hex="09CD"/>
  <outline>
    <contour>
      <point x="231" y="-271"/>
      <point x="240" y="-257"/>
      <point x="246" y="-243" type="curve"/>
      <point x="56" y="-101" type="line"/>
      <point x="44" y="-111"/>
      <point x="35" y="-123"/>
      <point x="29" y="-137" type="curve"/>
      <point x="218" y="-282" type="line"/>
    </contour>
  </outline>
</glyph>
<glyph name="bn_khanda_ta" format="1">
  <advance width="428"/>
  <unicode hex="09CE"/>
  <outline>
    <contour>
      <point x="65" y="471"/>
      <point x="136" y="543"/>
      <point x="221" y="543" type="curve" smooth="yes"/>
      <point x="284" y="543"/>
      <point x="317" y="502"/>
      <point x="317" y="446" type="curve" smooth="yes"/>
      <point x="317" y="392"/>
      <point x="280" y="360"/>
      <point x="237" y="360" type="curve" smooth="yes"/>
      <point x="177" y="360"/>
      <point x="137" y="417"/>
      <point x="133" y="526" type="curve"/>
      <point x="103" y="495" type="line"/>
      <point x="108" y="381"/>
      <point x="153" y="310"/>
      <point x="238" y="310" type="curve" smooth="yes"/>
      <point x="309" y="310"/>
      <point x="355" y="375"/>
      <point x="355" y="453" type="curve" smooth="yes"/>
      <point x="355" y="525"/>
      <point x="313" y="593"/>
      <point x="220" y="593" type="curve" smooth="yes"/>
      <point x="116" y="593"/>
      <point x="29" y="490"/>
      <point x="29" y="368" type="curve" smooth="yes"/>
      <point x="29" y="273"/>
      <point x="80" y="226"/>
      <point x="183" y="175" type="curve" smooth="yes"/>
      <point x="324" y="105"/>
      <point x="352" y="93"/>
      <point x="357" y="-21" type="curve"/>
      <point x="373" y="-21"/>
      <point x="396" y="-17"/>
      <point x="403" y="-11" type="curve"/>
      <point x="402" y="121"/>
      <point x="335" y="153"/>
      <point x="214" y="213" type="curve" smooth="yes"/>
      <point x="130" y="255"/>
      <point x="65" y="283"/>
      <point x="65" y="370" type="curve" smooth="yes"/>
    </contour>
  </outline>
</glyph>
<glyph name="bn_aumark" format="1">
  <advance width="224"/>
  <unicode hex="09D7"/>
  <outline>
    <contour>
      <point x="158" y="524"/>
      <point x="180" y="564"/>
      <point x="180" y="610" type="curve" smooth="yes"/>
      <point x="180" y="659"/>
      <point x="152" y="700"/>
      <point x="88" y="749" type="curve" smooth="yes"/>
      <point x="32" y="792"/>
      <point x="-11" y="804"/>
      <point x="-11" y="869" type="curve" smooth="yes"/>
      <point x="-11" y="882"/>
      <point x="-10" y="894"/>
      <point x="-8" y="907" type="curve"/>
      <point x="-21" y="908"/>
      <point x="-38" y="906"/>
      <point x="-50" y="902" type="curve"/>
      <point x="-53" y="887"/>
      <point x="-54" y="873"/>
      <point x="-54" y="862" type="curve" smooth="yes"/>
      <point x="-54" y="780"/>
      <point x="-15" y="775"/>
      <point x="68" y="709" type="curve" smooth="yes"/>
      <point x="129" y="661"/>
      <point x="146" y="636"/>
      <point x="146" y="604" type="curve" smooth="yes"/>
      <point x="146" y="568"/>
      <point x="125" y="531"/>
      <point x="99" y="510" type="curve"/>
      <point x="124" y="488" type="line"/>
    </contour>
    <contour>
      <point x="138" y="110"/>
      <point x="148" y="306"/>
      <point x="148" y="509" type="curve"/>
      <point x="129" y="498" type="line"/>
      <point x="100" y="494" type="line"/>
      <point x="100" y="265"/>
      <point x="87" y="102"/>
      <point x="61" y="-42" type="curve"/>
      <point x="74" y="-47"/>
      <point x="105" y="-51"/>
      <point x="127" y="-51" type="curve"/>
    </contour>
    <contour>
      <point x="144" y="497" type="line"/>
      <point x="119" y="541"/>
      <point x="57" y="567"/>
      <point x="0" y="581" type="curve"/>
      <point x="-2" y="576"/>
      <point x="-3" y="567"/>
      <point x="-3" y="558" type="curve" smooth="yes"/>
      <point x="-3" y="551"/>
      <point x="-2" y="542"/>
      <point x="0" y="535" type="curve"/>
      <point x="61" y="520"/>
      <point x="100" y="496"/>
      <point x="100" y="455" type="curve"/>
    </contour>
    <contour>
      <point x="150" y="502"/>
      <point x="176" y="521"/>
      <point x="224" y="535" type="curve"/>
      <point x="226" y="542"/>
      <point x="227" y="551"/>
      <point x="227" y="561" type="curve" smooth="yes"/>
      <point x="227" y="569"/>
      <point x="226" y="576"/>
      <point x="224" y="581" type="curve"/>
      <point x="167" y="566"/>
      <point x="116" y="540"/>
      <point x="105" y="506" type="curve"/>
      <point x="141" y="481" type="line"/>
    </contour>
  </outline>
</glyph>
<glyph name="bn_rra" format="1">
  <advance width="556"/>
  <unicode hex="09DC"/>
  <outline>
    <contour>
      <point x="338" y="-156"/>
      <point x="358" y="-138"/>
      <point x="358" y="-114" type="curve" smooth="yes"/>
      <point x="358" y="-94"/>
      <point x="342" y="-79"/>
      <point x="322" y="-79" type="curve" smooth="yes"/>
      <point x="299" y="-79"/>
      <point x="279" y="-96"/>
      <point x="279" y="-121" type="curve" smooth="yes"/>
      <point x="279" y="-142"/>
      <point x="294" y="-156"/>
      <point x="314" y="-156" type="curve" smooth="yes"/>
    </contour>
    <component base="bn_dda"/>
  </outline>
</glyph>
<glyph name="bn_rha" format="1">
  <advance width="468"/>
  <unicode hex="09DD"/>
  <outline>
    <contour>
      <point x="235" y="-156"/>
      <point x="254" y="-138"/>
      <point x="254" y="-114" type="curve" smooth="yes"/>
      <point x="254" y="-94"/>
      <point x="237" y="-79"/>
      <point x="217" y="-79" type="curve" smooth="yes"/>
      <point x="194" y="-79"/>
      <point x="175" y="-96"/>
      <point x="175" y="-121" type="curve" smooth="yes"/>
      <point x="175" y="-142"/>
      <point x="191" y="-156"/>
      <point x="211" y="-156" type="curve" smooth="yes"/>
    </contour>
    <component base="bn_ddha"/>
  </outline>
</glyph>
<glyph name="bn_yya" format="1">
  <advance width="490"/>
  <unicode hex="09DF"/>
  <outline>
    <contour>
      <point x="234" y="42"/>
      <point x="217" y="62"/>
      <point x="193" y="62" type="curve" smooth="yes"/>
      <point x="173" y="62"/>
      <point x="157" y="46"/>
      <point x="157" y="26" type="curve" smooth="yes"/>
      <point x="157" y="3"/>
      <point x="173" y="-17"/>
      <point x="198" y="-17" type="curve" smooth="yes"/>
      <point x="219" y="-17"/>
      <point x="234" y="-2"/>
      <point x="234" y="18" type="curve" smooth="yes"/>
    </contour>
    <component base="bn_ya"/>
  </outline>
</glyph>
<glyph name="bn_lli" format="1">
  <advance width="632"/>
  <unicode hex="09E1"/>
  <outline>
    <contour>
      <point x="382" y="148"/>
      <point x="400" y="248"/>
      <point x="400" y="327" type="curve" smooth="yes"/>
      <point x="400" y="458"/>
      <point x="349" y="504"/>
      <point x="247" y="527" type="curve" smooth="yes"/>
      <point x="181" y="542" type="line" smooth="yes"/>
      <point x="114" y="557"/>
      <point x="83" y="576"/>
      <point x="66" y="659" type="curve"/>
      <point x="54" y="658"/>
      <point x="37" y="651"/>
      <point x="23" y="641" type="curve"/>
      <point x="43" y="528"/>
      <point x="103" y="514"/>
      <point x="213" y="488" type="curve" smooth="yes"/>
      <point x="313" y="465"/>
      <point x="362" y="454"/>
      <point x="362" y="356" type="curve" smooth="yes"/>
      <point x="362" y="266"/>
      <point x="332" y="100"/>
      <point x="296" y="36" type="curve"/>
      <point x="353" y="52" type="line"/>
    </contour>
    <contour>
      <point x="159" y="-16"/>
      <point x="193" y="10"/>
      <point x="211" y="52" type="curve"/>
      <point x="209" y="69"/>
      <point x="199" y="92"/>
      <point x="190" y="108" type="curve"/>
      <point x="177" y="66"/>
      <point x="156" y="33"/>
      <point x="124" y="33" type="curve" smooth="yes"/>
      <point x="92" y="33"/>
      <point x="66" y="65"/>
      <point x="66" y="127" type="curve" smooth="yes"/>
      <point x="66" y="200"/>
      <point x="103" y="246"/>
      <point x="156" y="246" type="curve" smooth="yes"/>
      <point x="228" y="246"/>
      <point x="279" y="160"/>
      <point x="282" y="31" type="curve"/>
      <point x="316" y="40" type="line"/>
      <point x="315" y="201"/>
      <point x="242" y="297"/>
      <point x="151" y="297" type="curve" smooth="yes"/>
      <point x="76" y="297"/>
      <point x="22" y="229"/>
      <point x="22" y="136" type="curve" smooth="yes"/>
      <point x="22" y="45"/>
      <point x="74" y="-16"/>
      <point x="125" y="-16" type="curve" smooth="yes"/>
    </contour>
    <contour>
      <point x="365" y="-205"/>
      <point x="398" y="-182"/>
      <point x="413" y="-143" type="curve"/>
      <point x="412" y="-126"/>
      <point x="403" y="-104"/>
      <point x="394" y="-88" type="curve"/>
      <point x="382" y="-126"/>
      <point x="361" y="-157"/>
      <point x="331" y="-157" type="curve" smooth="yes"/>
      <point x="302" y="-157"/>
      <point x="275" y="-127"/>
      <point x="275" y="-71" type="curve" smooth="yes"/>
      <point x="275" y="-4"/>
      <point x="311" y="38"/>
      <point x="361" y="38" type="curve" smooth="yes"/>
      <point x="435" y="38"/>
      <point x="486" y="-53"/>
      <point x="481" y="-188" type="curve"/>
      <point x="513" y="-169" type="line"/>
      <point x="518" y="-8"/>
      <point x="446" y="89"/>
      <point x="357" y="89" type="curve"/>
      <point x="287" y="65" type="line"/>
      <point x="254" y="38"/>
      <point x="234" y="-7"/>
      <point x="234" y="-62" type="curve" smooth="yes"/>
      <point x="234" y="-148"/>
      <point x="283" y="-205"/>
      <point x="332" y="-205" type="curve" smooth="yes"/>
    </contour>
    <contour>
      <point x="567" y="-101"/>
      <point x="594" y="22"/>
      <point x="594" y="114" type="curve" smooth="yes"/>
      <point x="594" y="235"/>
      <point x="546" y="273"/>
      <point x="449" y="307" type="curve" smooth="yes"/>
      <point x="375" y="333" type="line"/>
      <point x="372" y="289" type="line"/>
      <point x="420" y="272" type="line" smooth="yes"/>
      <point x="507" y="241"/>
      <point x="558" y="231"/>
      <point x="558" y="141" type="curve" smooth="yes"/>
      <point x="558" y="59"/>
      <point x="528" y="-93"/>
      <point x="492" y="-153" type="curve"/>
      <point x="481" y="-188" type="line"/>
      <point x="494" y="-199"/>
      <point x="510" y="-204"/>
      <point x="528" y="-206" type="curve"/>
    </contour>
  </outline>
</glyph>
<glyph name="bn_llikaar" format="1">
  <advance width="500"/>
  <unicode hex="09E3"/>
  <outline>
    <contour>
      <point x="300" y="-276" type="line"/>
      <point x="313" y="-235"/>
      <point x="321" y="-193"/>
      <point x="321" y="-157" type="curve" smooth="yes"/>
      <point x="321" y="-90"/>
      <point x="293" y="-58"/>
      <point x="227" y="-43" type="curve" smooth="yes"/>
      <point x="187" y="-34" type="line" smooth="yes"/>
      <point x="146" y="-25"/>
      <point x="128" y="-17"/>
      <point x="118" y="30" type="curve"/>
      <point x="108" y="28"/>
      <point x="93" y="22"/>
      <point x="81" y="14" type="curve"/>
      <point x="94" y="-55"/>
      <point x="130" y="-66"/>
      <point x="199" y="-81" type="curve" smooth="yes"/>
      <point x="250" y="-94"/>
      <point x="282" y="-105"/>
      <point x="282" y="-148" type="curve" smooth="yes"/>
      <point x="282" y="-189"/>
      <point x="265" y="-259"/>
      <point x="245" y="-297" type="curve"/>
      <point x="233" y="-330" type="line"/>
    </contour>
    <contour>
      <point x="163" y="-337"/>
      <point x="183" y="-326"/>
      <point x="193" y="-308" type="curve"/>
      <point x="191" y="-293"/>
      <point x="183" y="-271"/>
      <point x="175" y="-256" type="curve"/>
      <point x="167" y="-274"/>
      <point x="155" y="-288"/>
      <point x="137" y="-288" type="curve" smooth="yes"/>
      <point x="121" y="-288"/>
      <point x="107" y="-276"/>
      <point x="107" y="-251" type="curve" smooth="yes"/>
      <point x="107" y="-221"/>
      <point x="126" y="-201"/>
      <point x="155" y="-201" type="curve" smooth="yes"/>
      <point x="198" y="-201"/>
      <point x="235" y="-243"/>
      <point x="233" y="-330" type="curve"/>
      <point x="264" y="-298" type="line"/>
      <point x="265" y="-207"/>
      <point x="218" y="-150"/>
      <point x="152" y="-150" type="curve" smooth="yes"/>
      <point x="101" y="-150"/>
      <point x="64" y="-191"/>
      <point x="64" y="-246" type="curve" smooth="yes"/>
      <point x="64" y="-299"/>
      <point x="101" y="-337"/>
      <point x="144" y="-337" type="curve" smooth="yes"/>
    </contour>
    <contour>
      <point x="291" y="-427"/>
      <point x="309" y="-417"/>
      <point x="318" y="-402" type="curve"/>
      <point x="316" y="-388"/>
      <point x="308" y="-368"/>
      <point x="301" y="-354" type="curve"/>
      <point x="294" y="-370"/>
      <point x="283" y="-382"/>
      <point x="267" y="-382" type="curve" smooth="yes"/>
      <point x="253" y="-382"/>
      <point x="240" y="-372"/>
      <point x="240" y="-350" type="curve" smooth="yes"/>
      <point x="240" y="-324"/>
      <point x="257" y="-307"/>
      <point x="283" y="-307" type="curve" smooth="yes"/>
      <point x="321" y="-307"/>
      <point x="355" y="-343"/>
      <point x="353" y="-421" type="curve"/>
      <point x="382" y="-391" type="line"/>
      <point x="382" y="-310"/>
      <point x="340" y="-260"/>
      <point x="281" y="-260" type="curve" smooth="yes"/>
      <point x="234" y="-260"/>
      <point x="201" y="-296"/>
      <point x="201" y="-345" type="curve" smooth="yes"/>
      <point x="201" y="-393"/>
      <point x="234" y="-427"/>
      <point x="274" y="-427" type="curve" smooth="yes"/>
    </contour>
    <contour>
      <point x="418" y="-376"/>
      <point x="436" y="-315"/>
      <point x="436" y="-265" type="curve" smooth="yes"/>
      <point x="436" y="-204"/>
      <point x="411" y="-174"/>
      <point x="351" y="-159" type="curve" smooth="yes"/>
      <point x="312" y="-149" type="line"/>
      <point x="304" y="-189" type="line"/>
      <point x="325" y="-194" type="line" smooth="yes"/>
      <point x="371" y="-205"/>
      <point x="400" y="-218"/>
      <point x="400" y="-257" type="curve" smooth="yes"/>
      <point x="400" y="-294"/>
      <point x="384" y="-356"/>
      <point x="364" y="-391" type="curve"/>
      <point x="353" y="-421" type="line"/>
      <point x="365" y="-425"/>
      <point x="379" y="-428"/>
      <point x="393" y="-428" type="curve"/>
    </contour>
  </outline>
</glyph>
<glyph name="bn_zero" format="1">
  <advance width="550"/>
  <unicode hex="09E6"/>
  <outline>
    <contour>
      <point x="405" y="-19"/>
      <point x="477" y="171"/>
      <point x="477" y="326" type="curve" smooth="yes"/>
      <point x="477" y="482"/>
      <point x="415" y="584"/>
      <point x="294" y="584" type="curve" smooth="yes"/>
      <point x="144" y="584"/>
      <point x="72" y="394"/>
      <point x="72" y="239" type="curve" smooth="yes"/>
      <point x="72" y="85"/>
      <point x="134" y="-19"/>
      <point x="255" y="-19" type="curve" smooth="yes"/>
    </contour>
    <contour>
      <point x="179" y="40"/>
      <point x="115" y="98"/>
      <point x="115" y="243" type="curve" smooth="yes"/>
      <point x="115" y="402"/>
      <point x="184" y="525"/>
      <point x="293" y="525" type="curve" smooth="yes"/>
      <point x="370" y="525"/>
      <point x="434" y="467"/>
      <point x="434" y="322" type="curve" smooth="yes"/>
      <point x="434" y="163"/>
      <point x="365" y="40"/>
      <point x="256" y="40" type="curve" smooth="yes"/>
    </contour>
  </outline>
</glyph>
<glyph name="bn_one" format="1">
  <advance width="550"/>
  <unicode hex="09E7"/>
  <outline>
    <contour>
      <point x="391" y="-18"/>
      <point x="469" y="76"/>
      <point x="469" y="192" type="curve" smooth="yes"/>
      <point x="469" y="419"/>
      <point x="171" y="408"/>
      <point x="143" y="583" type="curve"/>
      <point x="125" y="575"/>
      <point x="110" y="562"/>
      <point x="96" y="546" type="curve"/>
      <point x="123" y="381"/>
      <point x="431" y="380"/>
      <point x="431" y="186" type="curve" smooth="yes"/>
      <point x="431" y="100"/>
      <point x="369" y="32"/>
      <point x="289" y="32" type="curve" smooth="yes"/>
      <point x="222" y="32"/>
      <point x="182" y="72"/>
      <point x="182" y="123" type="curve" smooth="yes"/>
      <point x="182" y="175"/>
      <point x="218" y="207"/>
      <point x="255" y="207" type="curve" smooth="yes"/>
      <point x="293" y="207"/>
      <point x="315" y="182"/>
      <point x="328" y="134" type="curve"/>
      <point x="343" y="142"/>
      <point x="358" y="157"/>
      <point x="365" y="171" type="curve"/>
      <point x="344" y="221"/>
      <point x="307" y="253"/>
      <point x="258" y="253" type="curve" smooth="yes"/>
      <point x="189" y="253"/>
      <point x="144" y="190"/>
      <point x="144" y="120" type="curve" smooth="yes"/>
      <point x="144" y="46"/>
      <point x="193" y="-18"/>
      <point x="283" y="-18" type="curve" smooth="yes"/>
    </contour>
  </outline>
</glyph>
<glyph name="bn_three" format="1">
  <advance width="550"/>
  <unicode hex="09E9"/>
  <outline>
    <contour>
      <point x="448" y="-19"/>
      <point x="502" y="85"/>
      <point x="502" y="251" type="curve" smooth="yes"/>
      <point x="502" y="454"/>
      <point x="421" y="584"/>
      <point x="332" y="584" type="curve" smooth="yes"/>
      <point x="271" y="584"/>
      <point x="234" y="523"/>
      <point x="234" y="437" type="curve" smooth="yes"/>
      <point x="234" y="366"/>
      <point x="256" y="294"/>
      <point x="288" y="248" type="curve"/>
      <point x="305" y="248"/>
      <point x="331" y="253"/>
      <point x="344" y="260" type="curve"/>
      <point x="306" y="298"/>
      <point x="286" y="369"/>
      <point x="286" y="441" type="curve" smooth="yes"/>
      <point x="286" y="499"/>
      <point x="302" y="540"/>
      <point x="340" y="540" type="curve" smooth="yes"/>
      <point x="400" y="540"/>
      <point x="455" y="431"/>
      <point x="455" y="257" type="curve" smooth="yes"/>
      <point x="455" y="112"/>
      <point x="418" y="40"/>
      <point x="347" y="40" type="curve" smooth="yes"/>
      <point x="231" y="40"/>
      <point x="135" y="229"/>
      <point x="74" y="545" type="curve"/>
      <point x="58" y="543"/>
      <point x="44" y="538"/>
      <point x="32" y="528" type="curve"/>
      <point x="76" y="297"/>
      <point x="163" y="-19"/>
      <point x="344" y="-19" type="curve" smooth="yes"/>
    </contour>
  </outline>
</glyph>
<glyph name="bn_four" format="1">
  <advance width="554"/>
  <unicode hex="09EA"/>
  <outline>
    <contour>
      <point x="395" y="-19"/>
      <point x="472" y="73"/>
      <point x="472" y="162" type="curve" smooth="yes"/>
      <point x="472" y="249"/>
      <point x="399" y="307"/>
      <point x="313" y="307" type="curve"/>
      <point x="303" y="270" type="line"/>
      <point x="374" y="270"/>
      <point x="425" y="240"/>
      <point x="425" y="177" type="curve" smooth="yes"/>
      <point x="425" y="105"/>
      <point x="366" y="34"/>
      <point x="241" y="34" type="curve" smooth="yes"/>
      <point x="164" y="34"/>
      <point x="127" y="64"/>
      <point x="127" y="112" type="curve" smooth="yes"/>
      <point x="127" y="257"/>
      <point x="462" y="255"/>
      <point x="462" y="443" type="curve" smooth="yes"/>
      <point x="462" y="520"/>
      <point x="405" y="583"/>
      <point x="290" y="583" type="curve" smooth="yes"/>
      <point x="151" y="583"/>
      <point x="75" y="491"/>
      <point x="75" y="402" type="curve" smooth="yes"/>
      <point x="75" y="315"/>
      <point x="148" y="257"/>
      <point x="234" y="257" type="curve"/>
      <point x="253" y="294" type="line"/>
      <point x="176" y="294"/>
      <point x="122" y="324"/>
      <point x="122" y="390" type="curve" smooth="yes"/>
      <point x="122" y="458"/>
      <point x="180" y="530"/>
      <point x="305" y="530" type="curve" smooth="yes"/>
      <point x="381" y="530"/>
      <point x="420" y="503"/>
      <point x="420" y="451" type="curve" smooth="yes"/>
      <point x="420" y="298"/>
      <point x="85" y="308"/>
      <point x="85" y="121" type="curve" smooth="yes"/>
      <point x="85" y="44"/>
      <point x="141" y="-19"/>
      <point x="256" y="-19" type="curve" smooth="yes"/>
    </contour>
  </outline>
</glyph>
<glyph name="bn_five" format="1">
  <advance width="550"/>
  <unicode hex="09EB"/>
  <outline>
    <contour>
      <point x="338" y="-19"/>
      <point x="407" y="7"/>
      <point x="441" y="36" type="curve"/>
      <point x="399" y="73"/>
      <point x="384" y="130"/>
      <point x="384" y="184" type="curve" smooth="yes"/>
      <point x="384" y="302"/>
      <point x="451" y="363"/>
      <point x="496" y="401" type="curve"/>
      <point x="471" y="457" type="line"/>
      <point x="462" y="451"/>
      <point x="437" y="443"/>
      <point x="411" y="443" type="curve" smooth="yes"/>
      <point x="334" y="443"/>
      <point x="265" y="511"/>
      <point x="248" y="590" type="curve"/>
      <point x="171" y="527"/>
      <point x="69" y="386"/>
      <point x="69" y="221" type="curve" smooth="yes"/>
      <point x="69" y="80"/>
      <point x="144" y="-19"/>
      <point x="274" y="-19" type="curve" smooth="yes"/>
    </contour>
    <contour>
      <point x="180" y="22"/>
      <point x="119" y="86"/>
      <point x="119" y="210" type="curve" smooth="yes"/>
      <point x="119" y="330"/>
      <point x="176" y="451"/>
      <point x="254" y="522" type="curve"/>
      <point x="224" y="529" type="line"/>
      <point x="261" y="452"/>
      <point x="335" y="400"/>
      <point x="412" y="400" type="curve" smooth="yes"/>
      <point x="423" y="400"/>
      <point x="433" y="401"/>
      <point x="448" y="404" type="curve"/>
      <point x="440" y="423" type="line"/>
      <point x="400" y="381"/>
      <point x="338" y="313"/>
      <point x="338" y="198" type="curve" smooth="yes"/>
      <point x="338" y="139"/>
      <point x="355" y="85"/>
      <point x="393" y="43" type="curve"/>
      <point x="395" y="78" type="line"/>
      <point x="364" y="42"/>
      <point x="319" y="22"/>
      <point x="270" y="22" type="curve" smooth="yes"/>
    </contour>
  </outline>
</glyph>
